<svg width="112" height="455" viewBox="0 0 112 455" fill="none" xmlns="http://www.w3.org/2000/svg">
<path d="M106.501 5.50146L58.0011 191.001C44.3344 203.501 22.1011 230.501 42.5011 238.501L47.501 241.001C46.3343 242.668 44.701 246.301 47.501 247.501C51.001 249.001 48.501 252.001 47.501 256.001C46.501 260.001 47.501 276.001 49.501 279.501C51.101 282.301 51.8343 283.668 52.001 284.001L5.50098 449.001" stroke="#EFE181" stroke-width="11" stroke-linecap="round"/>
<path d="M106.501 5.50146L58.0011 191.001C44.3344 203.501 22.1011 230.501 42.5011 238.501L47.501 241.001C46.3343 242.668 44.701 246.301 47.501 247.501C51.001 249.001 48.501 252.001 47.501 256.001C46.501 260.001 47.501 276.001 49.501 279.501C51.101 282.301 51.8343 283.668 52.001 284.001L5.50098 449.001" stroke="#374432" stroke-width="5" stroke-linecap="round"/>
</svg>
