<svg width="108" height="451" viewBox="0 0 108 451" fill="none" xmlns="http://www.w3.org/2000/svg">
<path d="M104.5 3.50085L56.0001 189.001C42.3334 201.501 20.1001 228.501 40.5001 236.501L45.5 239.001C44.3333 240.668 42.7 244.301 45.5 245.501C49 247.001 46.5 250.001 45.5 254.001C44.5 258.001 45.5 274.001 47.5 277.501C49.1 280.301 49.8333 281.668 50 282.001L3.5 447.001" stroke="#374432" stroke-width="7" stroke-linecap="round"/>
<path d="M104.5 3.50085L56.0001 189.001C42.3334 201.501 20.1001 228.501 40.5001 236.501L45.5 239.001C44.3333 240.668 42.7 244.301 45.5 245.501C49 247.001 46.5 250.001 45.5 254.001C44.5 258.001 45.5 274.001 47.5 277.501C49.1 280.301 49.8333 281.668 50 282.001L3.5 447.001" stroke="#EEECE0" stroke-width="4" stroke-linecap="round" stroke-dasharray="9 9"/>
</svg>
