<svg width="128" height="34" viewBox="0 0 128 34" fill="none" xmlns="http://www.w3.org/2000/svg">
<path d="M16.3646 13.9367L24.7995 5.33338C24.7995 5.33338 25.1212 5.0544 25.1438 4.60451C25.1991 3.45589 25.1614 0 25.1614 0L16.3646 8.82949L7.57029 0C7.57029 0 7.53259 3.45589 7.58537 4.60702C7.60799 5.05691 7.9297 5.3359 7.9297 5.3359L16.3646 13.9392V13.9367Z" fill="#FBCB22"/>
<path d="M18.893 16.45L27.4988 24.8824C27.4988 24.8824 27.7778 25.2041 28.2277 25.2268C29.3789 25.2795 32.8373 25.2418 32.8373 25.2418L24.0027 16.4475L32.8373 7.65323C32.8373 7.65323 29.3789 7.61553 28.2277 7.66831C27.7778 7.69093 27.4988 8.01264 27.4988 8.01264L18.893 16.445V16.45Z" fill="black"/>
<path d="M13.9417 16.45L5.3359 8.01767C5.3359 8.01767 5.05691 7.69596 4.60702 7.67334C3.45841 7.61804 0 7.65574 0 7.65574L8.83452 16.45L0 25.2418C0 25.2418 3.45841 25.2795 4.60953 25.2268C5.05943 25.2041 5.33841 24.8824 5.33841 24.8824L13.9442 16.45H13.9417Z" fill="black"/>
<path d="M16.3646 19.074L7.9297 27.6773C7.9297 27.6773 7.60799 27.9563 7.58537 28.4062C7.53259 29.5573 7.57029 33.0132 7.57029 33.0132L16.3671 24.1837L25.1639 33.0132C25.1639 33.0132 25.2016 29.5573 25.1488 28.4062C25.1262 27.9563 24.8045 27.6773 24.8045 27.6773L16.3696 19.074H16.3646Z" fill="black"/>
<path d="M117.583 13.0268H121.449V14.4167H116.035V7.20082H121.343V8.59575H117.586V10.0409H120.519V11.4308H117.586V13.0319L117.583 13.0268ZM109.133 7.05002C109.51 7.05002 109.872 7.10029 110.214 7.20082C110.556 7.30136 110.832 7.41697 111.054 7.55772C111.275 7.69847 111.466 7.83922 111.637 7.97997C111.808 8.12072 111.928 8.24136 112.004 8.33687L112.119 8.48767L111.139 9.46789C111.119 9.44275 111.089 9.40757 111.054 9.3573C111.018 9.30703 110.938 9.2266 110.817 9.10596C110.697 8.99035 110.561 8.88981 110.42 8.79933C110.274 8.70885 110.083 8.62842 109.852 8.55302C109.616 8.47762 109.375 8.4374 109.133 8.4374C108.46 8.4374 107.897 8.66361 107.442 9.11602C106.987 9.56842 106.763 10.1314 106.763 10.8075C106.763 11.4836 106.989 12.0441 107.442 12.499C107.894 12.9514 108.457 13.1776 109.133 13.1776C109.395 13.1776 109.641 13.1424 109.882 13.0721C110.124 13.0017 110.32 12.9162 110.48 12.8157C110.636 12.7152 110.777 12.6146 110.898 12.5141C111.018 12.4136 111.104 12.3281 111.159 12.2527L111.24 12.1471L112.169 13.1274C112.139 13.1676 112.099 13.2229 112.044 13.2882C111.988 13.3536 111.868 13.4692 111.677 13.6351C111.486 13.8009 111.285 13.9467 111.069 14.0724C110.852 14.1981 110.571 14.3137 110.219 14.4142C109.867 14.5198 109.505 14.57 109.133 14.57C108.032 14.57 107.1 14.2031 106.346 13.4692C105.592 12.7353 105.215 11.843 105.215 10.8075C105.215 9.77201 105.592 8.88478 106.346 8.15088C107.1 7.41697 108.032 7.05002 109.133 7.05002ZM99.6026 7.20082H101.148V14.4167H99.8087L96.2573 9.83233V14.4167H94.7065V7.20082H96.0512L99.6026 11.7902V7.20082ZM86.7768 13.0268H90.6424V14.4167H85.2286V7.20082H90.5368V8.59575H86.7793V10.0409H89.7124V11.4308H86.7793V13.0319L86.7768 13.0268ZM79.1965 14.4142V7.19831H80.7472V14.4142H79.1965ZM73.373 9.56842C73.373 9.28693 73.2825 9.0557 73.0965 8.86971C72.9105 8.68874 72.6743 8.59323 72.3928 8.59323H70.7968V10.5009H72.3928C72.6743 10.5009 72.9105 10.4154 73.0965 10.2345C73.2825 10.0535 73.373 9.83233 73.373 9.57094V9.56842ZM69.2536 14.4142L69.2485 7.19831H72.443C73.1568 7.19831 73.7525 7.42954 74.22 7.88697C74.6875 8.34441 74.9187 8.90238 74.9187 9.56842C74.9187 9.85997 74.8735 10.1264 74.783 10.3777C74.6925 10.6291 74.587 10.8352 74.4663 10.986C74.3457 11.1418 74.22 11.2725 74.0943 11.3831C73.9636 11.4937 73.8581 11.5691 73.7676 11.6093L73.6369 11.6797L75.1826 14.4117H73.5313L72.1414 11.8858H70.8018V14.4117H69.2511L69.2536 14.4142ZM61.3214 13.0268H65.1869V14.4167H59.7731V7.20082H65.0814V8.59575H61.3239V10.0409H64.257V11.4308H61.3239V13.0319L61.3214 13.0268ZM53.1303 8.59826H51.6901V10.6567H53.1303C53.4369 10.6567 53.6933 10.5562 53.8994 10.3601C54.1054 10.1591 54.211 9.91778 54.211 9.63126C54.211 9.34473 54.1054 9.09842 53.8994 8.89735C53.6933 8.69628 53.4369 8.60077 53.1303 8.60077V8.59826ZM50.1393 7.20082L53.178 7.20585C53.9169 7.20585 54.5327 7.43708 55.0203 7.89954C55.5079 8.362 55.7542 8.94008 55.7542 9.62623C55.7542 10.3124 55.5079 10.8879 55.0253 11.3529C54.5377 11.8154 53.9245 12.0466 53.178 12.0466H51.6876V14.4167H50.1368V7.20082H50.1393ZM42.9787 11.7877L41.2269 14.4142H39.4701L41.996 10.6517L39.6762 7.20082H41.433L42.9787 9.52067L44.5245 7.20082H46.2763L43.9564 10.6517L46.4824 14.4142H44.7306L42.9787 11.7877Z" fill="black"/>
<path d="M85.9499 19.1544H84.5098V21.2129H85.9499C86.2566 21.2129 86.5129 21.1124 86.719 20.9163C86.9251 20.7152 87.0307 20.474 87.0307 20.1874C87.0307 19.9009 86.9251 19.6546 86.719 19.4535C86.5129 19.2525 86.2566 19.157 85.9499 19.157V19.1544ZM82.9615 17.757L86.0002 17.762C86.7391 17.762 87.3549 17.9933 87.8425 18.4557C88.3301 18.9182 88.5764 19.4963 88.5764 20.1824C88.5764 20.8686 88.3301 21.4441 87.8475 21.9091C87.3599 22.3716 86.7467 22.6028 86.0002 22.6028H84.5098V24.9729H82.959V17.757H82.9615ZM75.4893 23.7338C75.9266 23.7338 76.3036 23.573 76.6152 23.2462C76.9269 22.9245 77.0827 22.5173 77.0827 22.0348V17.757H78.6285V22.0348C78.6285 22.9145 78.3269 23.6509 77.7337 24.244C77.1355 24.8372 76.384 25.1338 75.4842 25.1338C74.5844 25.1338 73.8329 24.8372 73.2398 24.244C72.6416 23.6509 72.345 22.9145 72.345 22.0348V17.757H73.8907V22.0348C73.8907 22.5173 74.0466 22.9195 74.3582 23.2462C74.6699 23.573 75.0469 23.7338 75.4893 23.7338ZM60.5925 21.3637C60.5925 20.3282 60.9695 19.441 61.7235 18.7071C62.4775 17.9732 63.41 17.6062 64.5058 17.6062C65.6016 17.6062 66.5341 17.9732 67.2881 18.7071C68.0421 19.441 68.4191 20.3282 68.4191 21.3637C68.4191 22.3992 68.0421 23.2915 67.2881 24.0254C66.5341 24.7593 65.6016 25.1262 64.5058 25.1262C63.41 25.1262 62.4775 24.7593 61.7235 24.0254C60.9695 23.2915 60.5925 22.3992 60.5925 21.3637ZM62.1935 21.3687C62.1935 22.0323 62.4147 22.5953 62.8671 23.0502C63.3145 23.5076 63.8624 23.7338 64.5083 23.7338C65.1543 23.7338 65.6997 23.5076 66.1496 23.0502C66.602 22.5978 66.8231 22.0348 66.8231 21.3687C66.8231 20.7027 66.602 20.1422 66.1496 19.6822C65.7022 19.2248 65.1543 18.9936 64.5083 18.9936C63.8624 18.9936 63.317 19.2248 62.8671 19.6822C62.4147 20.1397 62.1935 20.7027 62.1935 21.3687ZM55.2867 20.1246C55.2867 19.8431 55.1963 19.6119 55.0103 19.4259C54.8243 19.2449 54.588 19.1494 54.3065 19.1494H52.7105V21.0571H54.3065C54.588 21.0571 54.8243 20.9716 55.0103 20.7906C55.1963 20.6097 55.2867 20.3885 55.2867 20.1271V20.1246ZM51.1648 24.9704L51.1598 17.7545H54.3543C55.0681 17.7545 55.6637 17.9857 56.1312 18.4432C56.5987 18.9006 56.8299 19.4586 56.8299 20.1246C56.8299 20.4162 56.7847 20.6826 56.6942 20.9339C56.6037 21.1852 56.4982 21.3913 56.3775 21.5421C56.2569 21.698 56.1312 21.8287 56.0056 21.9393C55.8749 22.0498 55.7693 22.1253 55.6788 22.1655L55.5481 22.2358L57.0939 24.9679H55.4426L54.0527 22.4419H52.713V24.9679H51.1623L51.1648 24.9704ZM44.1123 21.0571H46.9448V23.7338C46.9147 23.769 46.8745 23.8193 46.8141 23.8846C46.7538 23.95 46.6282 24.0606 46.4271 24.2214C46.226 24.3823 46.0149 24.523 45.7937 24.6437C45.5725 24.7643 45.281 24.8749 44.9191 24.9754C44.5571 25.076 44.1902 25.1262 43.8081 25.1262C42.7073 25.1262 41.7748 24.7593 41.0208 24.0254C40.2668 23.2915 39.8898 22.3992 39.8898 21.3637C39.8898 20.3282 40.2668 19.441 41.0208 18.7071C41.7748 17.9732 42.7073 17.6062 43.8081 17.6062C44.1852 17.6062 44.5471 17.6565 44.8889 17.757C45.2307 17.8575 45.5072 17.9732 45.7284 18.1139C45.9495 18.2547 46.1406 18.3954 46.3115 18.5361C46.4824 18.6769 46.603 18.7975 46.6784 18.893L46.794 19.0438L45.8138 20.0241C45.7937 19.9989 45.7636 19.9637 45.7284 19.9135C45.6932 19.8632 45.6127 19.7828 45.4921 19.6621C45.3715 19.5465 45.2357 19.446 45.095 19.3555C44.9492 19.265 44.7582 19.1846 44.527 19.1092C44.2907 19.0338 44.0494 18.9936 43.8081 18.9936C43.1346 18.9936 42.5716 19.2198 42.1166 19.6722C41.6617 20.1246 41.438 20.6876 41.438 21.3637C41.438 22.0398 41.6642 22.6003 42.1166 23.0552C42.5691 23.5076 43.132 23.7338 43.8081 23.7338C44.1299 23.7338 44.4214 23.6886 44.6878 23.5931C44.9492 23.4976 45.1352 23.402 45.2458 23.3015L45.4016 23.1708V22.1906H44.1148V21.0596L44.1123 21.0571Z" fill="black"/>
<path d="M125.211 28.3886L126.262 30.2409L127.313 28.3886H127.976L126.564 30.8768V32.2592H125.955V30.8768L124.545 28.3886H125.211ZM121.258 28.3886H121.866V32.2592H121.343L119.187 29.4668V32.2592H118.579V28.3886H119.101L121.258 31.1835V28.3886ZM113.987 29.0798L113.348 30.6833H114.62L113.987 29.0798ZM112.076 32.2592L113.68 28.3886H114.288L115.892 32.2592H115.258L114.844 31.2362H113.13L112.715 32.2592H112.076ZM108.653 28.944H107.713V30.3239H108.653C108.842 30.3239 109.008 30.2585 109.141 30.1278C109.277 29.9946 109.344 29.8313 109.344 29.6352C109.344 29.4392 109.277 29.2758 109.141 29.1426C109.005 29.0069 108.842 28.944 108.653 28.944ZM107.105 28.3886H108.653C109.02 28.3911 109.332 28.5092 109.578 28.753C109.824 28.9968 109.953 29.2909 109.953 29.6352C109.953 29.9796 109.827 30.2761 109.578 30.5149C109.329 30.7587 109.02 30.8768 108.653 30.8768H107.713V32.2592H107.105V28.3886ZM101.963 30.2711L103.456 28.3886H103.981V32.2592H103.373V29.4417L101.96 31.2111L100.55 29.4417V32.2592H99.9419V28.3886H100.465L101.958 30.2711H101.963ZM92.9497 30.3239C92.9497 29.7684 93.1432 29.2984 93.5378 28.9114C93.9299 28.5268 94.415 28.3333 94.9931 28.3333C95.5711 28.3333 96.0562 28.5268 96.4483 28.9114C96.8429 29.2984 97.0364 29.7684 97.0364 30.3239C97.0364 30.8793 96.8429 31.3519 96.4483 31.7364C96.0562 32.1235 95.5711 32.3145 94.9931 32.3145C94.415 32.3145 93.9299 32.1235 93.5378 31.7364C93.1432 31.3519 92.9497 30.8793 92.9497 30.3239ZM93.5579 30.3239C93.5579 30.726 93.6962 31.0653 93.9726 31.3443C94.2516 31.6258 94.5909 31.764 94.9931 31.764C95.3952 31.764 95.7345 31.6258 96.0135 31.3443C96.2925 31.0653 96.4332 30.726 96.4332 30.3239C96.4332 29.9217 96.2925 29.585 96.0135 29.306C95.7345 29.027 95.3952 28.8862 94.9931 28.8862C94.5909 28.8862 94.2516 29.027 93.9726 29.306C93.6936 29.585 93.5579 29.9243 93.5579 30.3239ZM88.8906 28.3333C89.0841 28.3333 89.2751 28.3609 89.4511 28.4112C89.632 28.4615 89.7803 28.5243 89.8984 28.5972C90.0166 28.6726 90.1196 28.7455 90.2051 28.8159C90.293 28.8887 90.3584 28.9516 90.3986 29.0018L90.4589 29.0772L90.0719 29.4668C90.0618 29.4543 90.0467 29.4341 90.0266 29.4065C90.004 29.3789 89.9588 29.3336 89.8834 29.2632C89.8105 29.1954 89.7326 29.1376 89.6446 29.0873C89.5617 29.0395 89.4511 28.9918 89.3153 28.9491C89.1796 28.9063 89.0338 28.8862 88.883 28.8862C88.4834 28.8862 88.1441 29.0245 87.8626 29.3009C87.5836 29.5799 87.4429 29.9192 87.4429 30.3214C87.4429 30.7235 87.5836 31.0603 87.8626 31.3418C88.1416 31.6208 88.4809 31.7615 88.883 31.7615C89.0338 31.7615 89.1796 31.7389 89.3178 31.6962C89.4561 31.6535 89.5692 31.6032 89.6597 31.5454C89.7501 31.4876 89.8306 31.4273 89.901 31.3669C89.9713 31.3066 90.0216 31.2589 90.0543 31.2186L90.097 31.1508L90.4866 31.5404C90.474 31.563 90.4514 31.5881 90.4212 31.6233C90.3911 31.6585 90.3257 31.7213 90.2252 31.8093C90.1221 31.8947 90.0141 31.9752 89.901 32.043C89.7879 32.1109 89.6371 32.1737 89.4536 32.2265C89.2701 32.2793 89.0816 32.3069 88.8855 32.3069C88.305 32.3069 87.8199 32.1159 87.4278 31.7289C87.0332 31.3443 86.8397 30.8718 86.8397 30.3163C86.8397 29.7609 87.0332 29.2909 87.4278 28.9038C87.8199 28.5193 88.305 28.3257 88.8855 28.3257L88.8906 28.3333ZM81.0891 31.7062V32.2592H78.2967V28.3886H81.0338V28.9415H78.9024V29.9645H80.5889V30.5174H78.9024V31.7062H81.0891ZM73.4333 32.2592L71.9102 28.3886H72.5486L73.7374 31.4851L74.9288 28.3886H75.5621L74.0415 32.2592H73.4333ZM68.5699 32.2592V28.3886H69.1782V32.2592H68.5699ZM62.955 28.3886H65.8856V28.9415H64.7245V32.2592H64.1162V28.9415H62.955V28.3886ZM59.1423 29.0798L58.5039 30.6833H59.7756L59.1423 29.0798ZM57.2321 32.2592L58.8356 28.3886H59.4439L61.0474 32.2592H60.414L59.9993 31.2362H58.2852L57.8705 32.2592H57.2321ZM54.8268 31.7062V32.2592H52.0344V28.3886H54.7715V28.9415H52.6402V29.9645H54.3266V30.5174H52.6402V31.7062H54.8268ZM48.4101 29.5799C48.4101 29.399 48.3473 29.2482 48.2267 29.1275C48.106 29.0069 47.9552 28.944 47.7768 28.944H46.7538V30.2158H47.7768C47.9552 30.2158 48.106 30.1555 48.2267 30.0348C48.3473 29.9142 48.4101 29.7634 48.4101 29.5824V29.5799ZM46.1456 32.2592V28.3886H47.7768C48.1337 28.3886 48.4302 28.5042 48.6665 28.7304C48.9002 28.9591 49.0209 29.2431 49.0209 29.5774C49.0209 29.7358 48.9932 29.884 48.9405 30.0223C48.8877 30.1605 48.8223 30.2686 48.7469 30.3465C48.6715 30.4269 48.5961 30.4948 48.5207 30.5551C48.4453 30.6154 48.38 30.6556 48.3272 30.6758L48.2493 30.7109L49.134 32.2592H48.4705L47.641 30.7662H46.7563V32.2592H46.1456ZM41.7497 28.3333C41.9432 28.3333 42.1342 28.3609 42.3102 28.4112C42.4911 28.4615 42.6394 28.5243 42.7576 28.5972C42.8757 28.6726 42.9787 28.7455 43.0642 28.8159C43.1522 28.8887 43.2175 28.9516 43.2577 29.0018L43.318 29.0772L42.931 29.4668C42.9209 29.4543 42.9058 29.4341 42.8857 29.4065C42.8631 29.3789 42.8179 29.3336 42.7425 29.2632C42.6696 29.1954 42.5917 29.1376 42.5037 29.0873C42.4208 29.0395 42.3102 28.9918 42.1745 28.9491C42.0387 28.9063 41.893 28.8862 41.7422 28.8862C41.3425 28.8862 41.0032 29.0245 40.7217 29.3009C40.4427 29.5799 40.302 29.9192 40.302 30.3214C40.302 30.7235 40.4427 31.0603 40.7217 31.3418C41.0007 31.6208 41.34 31.7615 41.7422 31.7615C41.893 31.7615 42.0387 31.7389 42.177 31.6962C42.3152 31.6535 42.4283 31.6032 42.5188 31.5454C42.6093 31.4876 42.6897 31.4273 42.7601 31.3669C42.8304 31.3066 42.8807 31.2589 42.9134 31.2186L42.9561 31.1508L43.3457 31.5404C43.3331 31.563 43.3105 31.5881 43.2803 31.6233C43.2502 31.6585 43.1848 31.7213 43.0843 31.8093C42.9812 31.8947 42.8732 31.9752 42.7601 32.043C42.647 32.1109 42.4962 32.1737 42.3127 32.2265C42.1292 32.2793 41.9407 32.3069 41.7447 32.3069C41.1641 32.3069 40.679 32.1159 40.2869 31.7289C39.8923 31.3443 39.6988 30.8718 39.6988 30.3163C39.6988 29.7609 39.8923 29.2909 40.2869 28.9038C40.679 28.5193 41.1641 28.3257 41.7447 28.3257L41.7497 28.3333Z" fill="black"/>
</svg>
