<svg id="Capa_1" xmlns="http://www.w3.org/2000/svg" version="1.1" xmlns:xlink="http://www.w3.org/1999/xlink" viewBox="0 0 1920 1080">
  <defs>
    <style>
      .st0 {
        stroke: #cf3339;
      }

      .st0, .st1, .st2 {
        fill: none;
        stroke-miterlimit: 10;
        stroke-width: 7px;
      }

      .st1 {
        stroke: #03619e;
      }

      .st2 {
        stroke: #f8b300;
      }
    </style>
  </defs>
  <polyline class="st0" points="610.68 312.45 594.01 258.89 580.37 260.41"/>
  <path class="st1" d="M1279.15,252.83l-49.01-29.05-13.64-5.31h-22.74l-40.42-3.03-299.12,59.12-243.54,37.89"/>
  <path class="st2" d="M1426.68,758.6s-1.52-64.17,0-71.75-16.17-31.83-18.19-45.47,2.11-50.53,9.14-65.68,28.25-27.94,27.74-35.69-8.08-15.84-8.08-15.84l-7.07-4.04s-15.16,14.65-15.16,5.56,2.02-16.67,2.02-16.67l-5.56-15.16,9.6-7.58-4.55-4.55h-5.05l-3.54-16.17-5.55-12.13,5.56-13.14-12.13-5.05v-16.17l-11.12-16.17h-6.06l4.55-17.18s-19.2-3.03-11.12-32.34,4.04-75.79,4.04-75.79l-61.64-27.79s-14.65,14.65-35.37,3.03"/>
  <line class="st2" x1="1413.04" y1="808.12" x2="1426.68" y2="758.6"/>
</svg>