<svg width="116" height="16" viewBox="0 0 116 16" fill="none" xmlns="http://www.w3.org/2000/svg">
<path d="M8.61328 0.355469L4.26562 9.95312H13.0156L8.61328 0.355469ZM8.39453 0H9.81641L16.7344 15.0938C16.8711 15.1758 17.2539 15.2852 17.8828 15.4766V15.5586H14.3828V15.4492C14.8203 15.3672 15.1484 15.2578 15.3672 15.1211L13.1523 10.3359H4.10156L1.94141 15.0938C2.16016 15.2031 2.59766 15.3398 3.28125 15.4766V15.5586H0V15.4766C0.792969 15.3398 1.3125 15.1758 1.50391 15.0391L8.39453 0ZM21.4648 0.355469V8.14844H25.8125C26.9336 8.14844 27.8906 7.875 28.7109 7.35547C29.5312 6.83594 29.9414 6.09766 29.9414 5.19531C29.9414 4.67578 29.832 4.12891 29.6406 3.52734C29.2031 2.43359 28.6289 1.64062 27.9727 1.12109C27.2617 0.601562 26.5508 0.355469 25.8125 0.355469H21.4648ZM19.0312 0H21.4648H25.8125C27.3984 0 28.7109 0.410156 29.75 1.25781C30.8164 2.10547 31.3359 3.03516 31.3633 4.01953C31.3633 4.15625 31.3359 4.29297 31.3086 4.42969V4.29297C31.3086 5.46875 30.7891 6.45312 29.75 7.27344C28.7109 8.03906 27.3984 8.44922 25.8125 8.47656H24.2266C24.9102 8.66797 25.6211 9.13281 26.4141 9.92578C27.207 10.7188 27.918 11.5117 28.5469 12.332C29.1758 13.1523 29.9141 13.8906 30.707 14.5742C31.5 15.2305 32.2656 15.5586 32.9492 15.5586H33.0039V15.7227C32.8125 15.75 32.457 15.7773 31.9375 15.7773C31.3906 15.7773 30.7891 15.6133 30.1055 15.2578C29.4492 14.9297 28.875 14.4922 28.3555 13.9727C27.8633 13.4531 27.3711 12.9062 26.8516 12.3047C26.332 11.7031 25.8398 11.1289 25.3477 10.582C24.9102 10.0352 24.3633 9.57031 23.7617 9.1875C23.1602 8.77734 22.5312 8.53125 21.875 8.47656H21.4648V15.0664C21.6562 15.2031 22.0664 15.3398 22.6406 15.4766V15.5586H19.0312V15.4766C19.6055 15.3398 19.9883 15.2031 20.1797 15.0664V0.546875C19.9883 0.410156 19.6055 0.273438 19.0312 0.109375V0ZM32.8125 0H47.3594L47.8516 2.1875H47.7695C47.5781 1.44922 47.0039 0.847656 46.0469 0.355469H40.7422V15.0391C40.9336 15.1758 41.3438 15.3398 41.918 15.4766V15.5586H38.2539V15.4766C38.8828 15.3398 39.293 15.1758 39.4844 15.0391V0.355469H34.125C33.168 0.875 32.6211 1.47656 32.4297 2.1875H32.3477L32.8125 0ZM50.0938 0.0546875H61.7969L62.3164 2.24219H62.207C62.0156 1.53125 61.4688 0.902344 60.5117 0.382812H52.5273V7.68359H58.4336C58.9531 7.13672 59.2539 6.72656 59.3086 6.45312H59.4453V9.21484H59.3086C59.2266 8.96875 59.0078 8.61328 58.5977 8.20312L58.4336 8.01172H52.5273V15.2578H61.1953C62.1523 14.7383 62.7266 14.1094 62.918 13.4258H63L62.5078 15.5859H58.6797H50.0938V15.5039C50.6953 15.3672 51.0781 15.2305 51.2422 15.0938V0.601562C51.0508 0.464844 50.668 0.328125 50.0938 0.136719V0.0546875ZM72.7344 0.355469L68.3867 9.95312H77.1367L72.7344 0.355469ZM72.5156 0H73.9375L80.8555 15.0938C80.9922 15.1758 81.375 15.2852 82.0039 15.4766V15.5586H78.5039V15.4492C78.9414 15.3672 79.2695 15.2578 79.4883 15.1211L77.2734 10.3359H68.2227L66.0625 15.0938C66.2812 15.2031 66.7188 15.3398 67.4023 15.4766V15.5586H64.1211V15.4766C64.9141 15.3398 65.4336 15.1758 65.625 15.0391L72.5156 0ZM95.9492 9.67969L95.9766 14.1914V15.1211H95.7852C95.5391 14.2734 95.2109 13.6992 94.7734 13.4531C93.4883 14.8477 91.8477 15.5586 89.9062 15.5586H89.8242C88.5391 15.5586 87.2812 15.2578 86.1328 14.6562C84.9297 14.0273 83.9727 13.125 83.207 11.9219C82.4414 10.7188 82.0586 9.35156 82.0586 7.82031C82.0586 5.52344 82.8516 3.66406 84.3828 2.24219C85.9688 0.820312 87.8008 0.109375 89.9062 0.109375C92.3398 0.109375 94.3359 1.03906 95.9492 2.87109L95.1836 4.18359C94.582 2.98047 93.7891 2.07812 92.75 1.47656C91.7656 0.847656 90.6719 0.546875 89.4961 0.546875C87.8281 0.546875 86.3789 1.12109 85.1484 2.24219C83.918 3.36328 83.2891 4.83984 83.2891 6.64453C83.2891 9.1875 83.9727 11.2383 85.3398 12.7969C86.707 14.3555 88.2656 15.1484 90.043 15.1484C91.8203 15.1484 93.3516 14.4375 94.6914 13.043V9.67969C94.5 9.54297 94.0898 9.40625 93.4883 9.26953V9.1875H97.125V9.26953C96.5508 9.43359 96.1406 9.57031 95.9492 9.67969ZM106.586 0.355469L102.238 9.95312H110.988L106.586 0.355469ZM106.367 0H107.789L114.707 15.0938C114.844 15.1758 115.227 15.2852 115.855 15.4766V15.5586H112.355V15.4492C112.793 15.3672 113.121 15.2578 113.34 15.1211L111.125 10.3359H102.074L99.9141 15.0938C100.133 15.2031 100.57 15.3398 101.254 15.4766V15.5586H97.9727V15.4766C98.7656 15.3398 99.2852 15.1758 99.4766 15.0391L106.367 0Z" fill="#513A2B"/>
</svg>
