<svg width="162" height="45" viewBox="0 0 162 45" fill="none" xmlns="http://www.w3.org/2000/svg">
<path d="M0 0.191406H6.34375C7.82031 0.191406 9.07812 0.546875 10.1445 1.25781C11.2109 1.99609 11.7305 2.87109 11.7305 3.88281C11.7305 4.64844 11.4023 5.35938 10.7734 5.98828C10.1445 6.61719 9.32422 7.08203 8.33984 7.35547C9.625 7.54688 10.6914 8.06641 11.4844 8.85938C12.2773 9.65234 12.6875 10.6094 12.6875 11.7031C12.6875 12.7969 12.168 13.7266 11.1289 14.5469C10.0898 15.3125 8.77734 15.7227 7.21875 15.7227H0V15.6406C0.246094 15.5859 0.410156 15.5312 0.546875 15.5039C0.628906 15.5039 0.738281 15.4766 0.875 15.4492C1.06641 15.3945 1.17578 15.3125 1.17578 15.2031V5.16797V0.738281C0.984375 0.601562 0.574219 0.464844 0 0.273438V0.191406ZM2.43359 0.519531V7.27344H6.34375C7.38281 7.27344 8.33984 7.02734 9.16016 6.5625C10.0352 6.07031 10.4453 5.35938 10.4453 4.45703C10.4453 3.55469 10.0625 2.65234 9.32422 1.80469C8.58594 0.957031 7.57422 0.519531 6.34375 0.519531H2.43359ZM2.43359 7.57422V15.3945H7.21875C8.33984 15.3945 9.29688 15.1211 10.1445 14.6016C10.8281 14.1367 11.2383 13.3984 11.375 12.3867C11.3477 11.6484 11.0195 10.6641 10.3906 9.46094C10.1719 9.02344 9.73438 8.58594 9.10547 8.12109C8.64062 7.76562 8.01172 7.60156 7.21875 7.57422H2.43359ZM16.1328 6.78125C16.1328 8.20312 16.3516 9.46094 16.7344 10.6094C17.1719 11.7031 17.7188 12.6328 18.4023 13.3164C19.8242 14.7383 21.3828 15.4492 23.0781 15.4492L23.1055 15.4219C24.8281 15.4219 26.25 14.875 27.3984 13.7266C28.5742 12.6328 29.1484 11.0742 29.1484 9.13281C29.1484 6.37109 28.4375 4.26562 27.0156 2.73438C25.6211 1.25781 24.0352 0.492188 22.2578 0.492188C20.5078 0.492188 19.0586 1.06641 17.8828 2.1875C16.707 3.30859 16.1328 4.83984 16.1328 6.78125ZM29.2578 3.66406C30.0234 4.86719 30.4062 6.20703 30.4062 7.65625C30.4062 9.13281 30.1875 10.3906 29.75 11.375C29.3125 12.4141 28.7383 13.2344 28 13.8633C26.4688 15.1758 24.6914 15.832 22.668 15.8594C21.3281 15.8594 20.0703 15.5859 18.9219 14.9844C17.7734 14.4375 16.8164 13.5352 16.0508 12.3047C15.2852 11.1016 14.9023 9.76172 14.9023 8.28516V8.12109C14.9023 6.72656 15.1211 5.52344 15.5586 4.56641C16.0234 3.52734 16.5977 2.67969 17.3086 2.05078C18.8125 0.765625 20.5352 0.136719 22.5039 0.109375H22.5859H22.668C24.0078 0.109375 25.2656 0.382812 26.4141 0.984375C27.5352 1.53125 28.4922 2.43359 29.2578 3.66406ZM39.5117 0.574219H35.082V15.4219H39.5117H39.8125C40.2227 15.4219 40.5234 15.3945 40.7148 15.3672C41.0156 15.2852 41.207 15.2578 41.2891 15.2578L41.8359 15.0938C42.0273 15.0117 42.4102 14.8477 42.9297 14.5469C43.4492 14.2461 43.9141 13.918 44.3242 13.5078C44.707 13.0977 45.0625 12.5234 45.3906 11.7578C45.7188 10.9922 45.8828 10.1445 45.8828 9.1875C45.8828 8.88672 45.8281 8.39453 45.7461 7.71094C45.6367 7.02734 45.5 6.42578 45.3633 5.90625C45.2266 5.38672 44.9805 4.78516 44.6523 4.15625C44.3516 3.52734 43.9688 2.95312 43.5586 2.46094C43.1211 1.96875 42.5469 1.55859 41.8633 1.20312C41.1523 0.847656 40.3594 0.65625 39.5117 0.574219ZM35.082 15.7773H32.6484V15.6953C33.25 15.5586 33.6328 15.3945 33.7969 15.2578V0.765625C33.6055 0.628906 33.2227 0.464844 32.6484 0.300781V0.21875H35.082H39.5117C41.6172 0.246094 43.4219 1.01172 44.9258 2.51562C46.4023 4.04688 47.1406 5.87891 47.1406 8.01172C47.1406 10.1445 46.4023 11.9492 44.9258 13.4531C43.4492 14.957 41.6445 15.7227 39.5117 15.75H35.082V15.7773ZM49.3828 0.21875H61.0859L61.6055 2.40625H61.4961C61.3047 1.69531 60.7578 1.06641 59.8008 0.546875H51.8164V7.84766H57.7227C58.2422 7.30078 58.543 6.89062 58.5977 6.61719H58.7344V9.37891H58.5977C58.5156 9.13281 58.2969 8.77734 57.8867 8.36719L57.7227 8.17578H51.8164V15.4219H60.4844C61.4414 14.9023 62.0156 14.2734 62.207 13.5898H62.2891L61.7969 15.75H57.9688H49.3828V15.668C49.9844 15.5312 50.3672 15.3945 50.5312 15.2578V0.765625C50.3398 0.628906 49.957 0.492188 49.3828 0.300781V0.21875ZM77.4375 9.84375L77.4648 14.3555V15.2852H77.2734C77.0273 14.4375 76.6992 13.8633 76.2617 13.6172C74.9766 15.0117 73.3359 15.7227 71.3945 15.7227H71.3125C70.0273 15.7227 68.7695 15.4219 67.6211 14.8203C66.418 14.1914 65.4609 13.2891 64.6953 12.0859C63.9297 10.8828 63.5469 9.51562 63.5469 7.98438C63.5469 5.6875 64.3398 3.82812 65.8711 2.40625C67.457 0.984375 69.2891 0.273438 71.3945 0.273438C73.8281 0.273438 75.8242 1.20312 77.4375 3.03516L76.6719 4.34766C76.0703 3.14453 75.2773 2.24219 74.2383 1.64062C73.2539 1.01172 72.1602 0.710938 70.9844 0.710938C69.3164 0.710938 67.8672 1.28516 66.6367 2.40625C65.4062 3.52734 64.7773 5.00391 64.7773 6.80859C64.7773 9.35156 65.4609 11.4023 66.8281 12.9609C68.1953 14.5195 69.7539 15.3125 71.5312 15.3125C73.3086 15.3125 74.8398 14.6016 76.1797 13.207V9.84375C75.9883 9.70703 75.5781 9.57031 74.9766 9.43359V9.35156H78.6133V9.43359C78.0391 9.59766 77.6289 9.73438 77.4375 9.84375ZM88.0742 0.519531L83.7266 10.1172H92.4766L88.0742 0.519531ZM87.8555 0.164062H89.2773L96.1953 15.2578C96.332 15.3398 96.7148 15.4492 97.3438 15.6406V15.7227H93.8438V15.6133C94.2812 15.5312 94.6094 15.4219 94.8281 15.2852L92.6133 10.5H83.5625L81.4023 15.2578C81.6211 15.3672 82.0586 15.5039 82.7422 15.6406V15.7227H79.4609V15.6406C80.2539 15.5039 80.7734 15.3398 80.9648 15.2031L87.8555 0.164062ZM110.168 1.44922L109.293 2.57031C108.855 1.85938 108.145 1.3125 107.188 0.957031C106.23 0.601562 105.191 0.410156 104.07 0.410156C102.949 0.410156 101.992 0.683594 101.199 1.25781C100.379 1.80469 99.9688 2.51562 99.9688 3.41797C99.9688 4.64844 100.68 5.49609 102.102 6.01562C102.73 6.26172 103.414 6.45312 104.18 6.64453C104.945 6.83594 105.711 7.02734 106.477 7.24609C107.242 7.46484 107.926 7.73828 108.555 8.09375C109.184 8.42188 109.676 8.91406 110.059 9.51562C110.469 10.1719 110.66 10.9102 110.66 11.7578C110.66 13.0977 110.059 14.1914 108.801 14.9844C107.598 15.8047 106.066 16.2148 104.289 16.2148C103.277 16.2148 102.238 16.0781 101.172 15.8047C100.105 15.5586 99.2031 15.1758 98.4922 14.7109L99.4492 13.4531C99.9688 14.2188 100.762 14.793 101.773 15.2031C102.785 15.5859 103.906 15.7773 105.109 15.7773C106.312 15.7773 107.379 15.4766 108.281 14.8477C109.184 14.2188 109.648 13.4805 109.648 12.5781C109.648 11.6758 109.457 10.9375 109.074 10.3633C108.664 9.78906 108.145 9.32422 107.543 9.02344C106.887 8.69531 106.203 8.42188 105.438 8.20312C104.672 8.01172 103.906 7.79297 103.141 7.60156C102.375 7.41016 101.691 7.16406 101.062 6.94531C100.434 6.67188 99.9414 6.31641 99.5312 5.85156C99.1211 5.35938 98.9297 4.75781 98.9297 4.04688C98.9297 2.84375 99.4766 1.85938 100.57 1.12109C101.664 0.382812 103.031 0 104.699 0C105.629 0 106.613 0.109375 107.598 0.355469C108.637 0.601562 109.484 0.957031 110.168 1.44922ZM124.633 0.574219H120.203V15.4219H124.633H124.934C125.344 15.4219 125.645 15.3945 125.836 15.3672C126.137 15.2852 126.328 15.2578 126.41 15.2578L126.957 15.0938C127.148 15.0117 127.531 14.8477 128.051 14.5469C128.57 14.2461 129.035 13.918 129.445 13.5078C129.828 13.0977 130.184 12.5234 130.512 11.7578C130.84 10.9922 131.004 10.1445 131.004 9.1875C131.004 8.88672 130.949 8.39453 130.867 7.71094C130.758 7.02734 130.621 6.42578 130.484 5.90625C130.348 5.38672 130.102 4.78516 129.773 4.15625C129.473 3.52734 129.09 2.95312 128.68 2.46094C128.242 1.96875 127.668 1.55859 126.984 1.20312C126.273 0.847656 125.48 0.65625 124.633 0.574219ZM120.203 15.7773H117.77V15.6953C118.371 15.5586 118.754 15.3945 118.918 15.2578V0.765625C118.727 0.628906 118.344 0.464844 117.77 0.300781V0.21875H120.203H124.633C126.738 0.246094 128.543 1.01172 130.047 2.51562C131.523 4.04688 132.262 5.87891 132.262 8.01172C132.262 10.1445 131.523 11.9492 130.047 13.4531C128.57 14.957 126.766 15.7227 124.633 15.75H120.203V15.7773ZM134.504 0.21875H146.207L146.727 2.40625H146.617C146.426 1.69531 145.879 1.06641 144.922 0.546875H136.938V7.84766H142.844C143.363 7.30078 143.664 6.89062 143.719 6.61719H143.855V9.37891H143.719C143.637 9.13281 143.418 8.77734 143.008 8.36719L142.844 8.17578H136.938V15.4219H145.605C146.562 14.9023 147.137 14.2734 147.328 13.5898H147.41L146.918 15.75H143.09H134.504V15.668C135.105 15.5312 135.488 15.3945 135.652 15.2578V0.765625C135.461 0.628906 135.078 0.492188 134.504 0.300781V0.21875ZM149.625 0.191406H153.262V0.273438C152.66 0.410156 152.277 0.574219 152.086 0.738281V15.3945H160.07C161.027 14.875 161.602 14.2461 161.766 13.5625H161.875L161.355 15.7227H149.625V15.6406C150.227 15.5039 150.609 15.3398 150.801 15.2031V0.738281C150.609 0.601562 150.199 0.464844 149.625 0.273438V0.191406ZM50.2441 29.6016C50.2168 29.6016 49.834 29.4922 49.123 29.2461V29.1641H51.8301V29.2461L50.6543 29.7109C47.4004 36.3555 44.9668 41.332 43.3262 44.6953H42.8066L35.4512 29.7109C35.2598 29.5742 34.877 29.4375 34.3027 29.2461V29.1641H38.0762V29.2461C37.4746 29.3828 37.0918 29.5469 36.9004 29.7109L43.5449 43.3281L50.2441 29.6016ZM52.9512 29.1641H56.5879V29.2461C55.959 29.3828 55.5762 29.5469 55.3848 29.7109V44.2031C55.5762 44.3398 55.9863 44.5039 56.5879 44.6406V44.7227H52.9512V44.6406C53.5527 44.5039 53.9355 44.3398 54.127 44.2031V29.7109C53.9355 29.5742 53.5254 29.4102 52.9512 29.2461V29.1641ZM58.8301 29.2188H70.5332L71.0527 31.4062H70.9434C70.752 30.6953 70.2051 30.0664 69.248 29.5469H61.2637V36.8477H67.1699C67.6895 36.3008 67.9902 35.8906 68.0449 35.6172H68.1816V38.3789H68.0449C67.9629 38.1328 67.7441 37.7773 67.334 37.3672L67.1699 37.1758H61.2637V44.4219H69.9316C70.8887 43.9023 71.4629 43.2734 71.6543 42.5898H71.7363L71.2441 44.75H67.416H58.8301V44.668C59.4316 44.5312 59.8145 44.3945 59.9785 44.2578V29.7656C59.7871 29.6289 59.4043 29.4922 58.8301 29.3008V29.2188ZM73.9512 29.1641H76.8496L88.1973 43.0273V29.7109C87.6504 29.4922 87.2402 29.3281 86.9941 29.2461V29.1641H89.7832V29.2461L88.6074 29.7109V44.6953H87.8965L75.5918 29.7109H75.5098V44.2031C76.0293 44.4219 76.4395 44.5586 76.6855 44.6406V44.7227H73.9512V44.6406L75.127 44.2031V29.7109C74.9355 29.5742 74.5254 29.4102 73.9512 29.2461V29.1641ZM92.4629 29.1641H107.01L107.502 31.3516H107.42C107.229 30.6133 106.654 30.0117 105.697 29.5195H100.393V44.2031C100.584 44.3398 100.994 44.5039 101.568 44.6406V44.7227H97.9043V44.6406C98.5332 44.5039 98.9434 44.3398 99.1348 44.2031V29.5195H93.7754C92.8184 30.0391 92.2715 30.6406 92.0801 31.3516H91.998L92.4629 29.1641ZM108.432 35.7812C108.432 37.2031 108.65 38.4609 109.033 39.6094C109.471 40.7031 110.018 41.6328 110.701 42.3164C112.123 43.7383 113.682 44.4492 115.377 44.4492L115.404 44.4219C117.127 44.4219 118.549 43.875 119.697 42.7266C120.873 41.6328 121.447 40.0742 121.447 38.1328C121.447 35.3711 120.736 33.2656 119.314 31.7344C117.92 30.2578 116.334 29.4922 114.557 29.4922C112.807 29.4922 111.357 30.0664 110.182 31.1875C109.006 32.3086 108.432 33.8398 108.432 35.7812ZM121.557 32.6641C122.322 33.8672 122.705 35.207 122.705 36.6562C122.705 38.1328 122.486 39.3906 122.049 40.375C121.611 41.4141 121.037 42.2344 120.299 42.8633C118.768 44.1758 116.99 44.832 114.967 44.8594C113.627 44.8594 112.369 44.5859 111.221 43.9844C110.072 43.4375 109.115 42.5352 108.35 41.3047C107.584 40.1016 107.201 38.7617 107.201 37.2852V37.1211C107.201 35.7266 107.42 34.5234 107.857 33.5664C108.322 32.5273 108.896 31.6797 109.607 31.0508C111.111 29.7656 112.834 29.1367 114.803 29.1094H114.885H114.967C116.307 29.1094 117.564 29.3828 118.713 29.9844C119.834 30.5312 120.791 31.4336 121.557 32.6641Z" fill="#513A2B"/>
</svg>
