<svg width="143" height="16" viewBox="0 0 143 16" fill="none" xmlns="http://www.w3.org/2000/svg">
<path d="M0 0H3.60938V0.0820312C3.03516 0.21875 2.625 0.382812 2.43359 0.546875V7.24609H12.9062V0.546875C12.7148 0.410156 12.332 0.246094 11.7305 0.0820312V0H15.3945V0.0820312C14.7656 0.21875 14.3828 0.382812 14.1914 0.546875V15.0391C14.3828 15.1758 14.7656 15.3398 15.3945 15.4766V15.5586H11.7305V15.4766C12.332 15.3398 12.7148 15.1758 12.9062 15.0391V7.62891H2.43359V15.0391C2.625 15.1758 3.03516 15.3398 3.60938 15.4766V15.5586H0V15.4766C0.574219 15.3398 0.957031 15.1758 1.14844 15.0391V0.710938C0.628906 0.382812 0.246094 0.164062 0 0.0820312V0ZM17.6367 0H21.2734V0.0820312C20.6719 0.21875 20.2891 0.382812 20.0977 0.546875V8.61328V8.94141C20.0977 10.9102 20.6172 12.4141 21.6562 13.4805C22.7227 14.5469 24.0078 15.0664 25.5664 15.0664C27.125 15.0664 28.4922 14.4922 29.6953 13.3438C30.8711 12.168 31.4727 10.6094 31.4727 8.61328V0.546875C30.9531 0.328125 30.5703 0.164062 30.2969 0.0820312V0H33.0312V0.0820312L31.8555 0.546875V8.61328C31.8555 10.8008 31.2266 12.4961 29.9141 13.7266C28.6562 14.9297 27.125 15.5312 25.3203 15.5312C23.5703 15.5312 22.0391 14.9297 20.7266 13.7266C19.4688 12.4961 18.8125 10.8008 18.8125 8.61328V0.546875C18.5938 0.410156 18.2109 0.273438 17.6367 0.0820312V0ZM41.3438 0.355469L36.9961 9.95312H45.7461L41.3438 0.355469ZM41.125 0H42.5469L49.4648 15.0938C49.6016 15.1758 49.9844 15.2852 50.6133 15.4766V15.5586H47.1133V15.4492C47.5508 15.3672 47.8789 15.2578 48.0977 15.1211L45.8828 10.3359H36.832L34.6719 15.0938C34.8906 15.2031 35.3281 15.3398 36.0117 15.4766V15.5586H32.7305V15.4766C33.5234 15.3398 34.043 15.1758 34.2344 15.0391L41.125 0ZM64.5586 2.92578L63.7656 4.18359C63.1641 2.89844 62.3711 1.96875 61.3867 1.3125C60.4023 0.710938 59.3359 0.382812 58.1875 0.382812C56.5195 0.382812 55.0703 0.984375 53.8125 2.16016C52.5273 3.33594 51.8984 4.86719 51.8984 6.69922C51.8984 8.03906 52.1172 9.24219 52.5547 10.3359C52.9922 11.4297 53.5664 12.3047 54.2773 12.9883C55.7266 14.3828 57.3672 15.0664 59.1445 15.0664H59.2266C60.4297 15.0664 61.4688 14.7109 62.3438 14.0273C63.2461 13.3438 63.7656 12.3594 63.957 11.1289L64.5586 11.5938C64.0391 12.9062 63.2188 13.8906 62.125 14.5469C61.0312 15.2305 59.8281 15.5586 58.4883 15.5586C56.4375 15.5586 54.6055 14.8477 53.0469 13.4531C51.4609 12.0586 50.668 10.1992 50.668 7.875C50.668 5.57812 51.4609 3.71875 53.0469 2.24219C54.6055 0.820312 56.4375 0.0820312 58.543 0.0820312H58.625C61.0039 0.109375 62.9727 1.03906 64.5586 2.92578ZM66.7734 0H70.3828V0.0820312C69.8086 0.21875 69.3984 0.382812 69.207 0.546875V7.24609H79.6797V0.546875C79.4883 0.410156 79.1055 0.246094 78.5039 0.0820312V0H82.168V0.0820312C81.5391 0.21875 81.1562 0.382812 80.9648 0.546875V15.0391C81.1562 15.1758 81.5391 15.3398 82.168 15.4766V15.5586H78.5039V15.4766C79.1055 15.3398 79.4883 15.1758 79.6797 15.0391V7.62891H69.207V15.0391C69.3984 15.1758 69.8086 15.3398 70.3828 15.4766V15.5586H66.7734V15.4766C67.3477 15.3398 67.7305 15.1758 67.9219 15.0391V0.710938C67.4023 0.382812 67.0195 0.164062 66.7734 0.0820312V0ZM84.4102 0H88.0469V0.0820312C87.418 0.21875 87.0352 0.382812 86.8438 0.546875V15.0391C87.0352 15.1758 87.4453 15.3398 88.0469 15.4766V15.5586H84.4102V15.4766C85.0117 15.3398 85.3945 15.1758 85.5859 15.0391V0.546875C85.3945 0.410156 84.9844 0.246094 84.4102 0.0820312V0ZM104.18 2.92578L103.387 4.18359C102.785 2.89844 101.992 1.96875 101.008 1.3125C100.023 0.710938 98.957 0.382812 97.8086 0.382812C96.1406 0.382812 94.6914 0.984375 93.4336 2.16016C92.1484 3.33594 91.5195 4.86719 91.5195 6.69922C91.5195 8.03906 91.7383 9.24219 92.1758 10.3359C92.6133 11.4297 93.1875 12.3047 93.8984 12.9883C95.3477 14.3828 96.9883 15.0664 98.7656 15.0664H98.8477C100.051 15.0664 101.09 14.7109 101.965 14.0273C102.867 13.3438 103.387 12.3594 103.578 11.1289L104.18 11.5938C103.66 12.9062 102.84 13.8906 101.746 14.5469C100.652 15.2305 99.4492 15.5586 98.1094 15.5586C96.0586 15.5586 94.2266 14.8477 92.668 13.4531C91.082 12.0586 90.2891 10.1992 90.2891 7.875C90.2891 5.57812 91.082 3.71875 92.668 2.24219C94.2266 0.820312 96.0586 0.0820312 98.1641 0.0820312H98.2461C100.625 0.109375 102.594 1.03906 104.18 2.92578ZM106.395 0H110.004V0.0820312C109.43 0.21875 109.02 0.382812 108.828 0.546875V7.24609H119.301V0.546875C119.109 0.410156 118.727 0.246094 118.125 0.0820312V0H121.789V0.0820312C121.16 0.21875 120.777 0.382812 120.586 0.546875V15.0391C120.777 15.1758 121.16 15.3398 121.789 15.4766V15.5586H118.125V15.4766C118.727 15.3398 119.109 15.1758 119.301 15.0391V7.62891H108.828V15.0391C109.02 15.1758 109.43 15.3398 110.004 15.4766V15.5586H106.395V15.4766C106.969 15.3398 107.352 15.1758 107.543 15.0391V0.710938C107.023 0.382812 106.641 0.164062 106.395 0.0820312V0ZM124.031 0H127.668V0.0820312C127.039 0.21875 126.656 0.382812 126.465 0.546875V15.0391C126.656 15.1758 127.066 15.3398 127.668 15.4766V15.5586H124.031V15.4766C124.633 15.3398 125.016 15.1758 125.207 15.0391V0.546875C125.016 0.410156 124.605 0.246094 124.031 0.0820312V0ZM129.91 0.0273438H133.547V0.109375C132.945 0.246094 132.562 0.410156 132.371 0.574219V15.2305H140.355C141.312 14.7109 141.887 14.082 142.051 13.3984H142.16L141.641 15.5586H129.91V15.4766C130.512 15.3398 130.895 15.1758 131.086 15.0391V0.574219C130.895 0.4375 130.484 0.300781 129.91 0.109375V0.0273438Z" fill="#513A2B"/>
</svg>
