<svg width="142" height="17" viewBox="0 0 142 17" fill="none" xmlns="http://www.w3.org/2000/svg">
<path d="M0 0.191406H3.63672V0.273438C3.03516 0.410156 2.65234 0.574219 2.46094 0.738281V15.3945H10.4453C11.4023 14.875 11.9766 14.2461 12.1406 13.5625H12.25L11.7305 15.7227H0V15.6406C0.601562 15.5039 0.984375 15.3398 1.17578 15.2031V0.738281C0.984375 0.601562 0.574219 0.464844 0 0.273438V0.191406ZM12.8242 6.78125C12.8242 8.20312 13.043 9.46094 13.4258 10.6094C13.8633 11.7031 14.4102 12.6328 15.0938 13.3164C16.5156 14.7383 18.0742 15.4492 19.7695 15.4492L19.7969 15.4219C21.5195 15.4219 22.9414 14.875 24.0898 13.7266C25.2656 12.6328 25.8398 11.0742 25.8398 9.13281C25.8398 6.37109 25.1289 4.26562 23.707 2.73438C22.3125 1.25781 20.7266 0.492188 18.9492 0.492188C17.1992 0.492188 15.75 1.06641 14.5742 2.1875C13.3984 3.30859 12.8242 4.83984 12.8242 6.78125ZM25.9492 3.66406C26.7148 4.86719 27.0977 6.20703 27.0977 7.65625C27.0977 9.13281 26.8789 10.3906 26.4414 11.375C26.0039 12.4141 25.4297 13.2344 24.6914 13.8633C23.1602 15.1758 21.3828 15.832 19.3594 15.8594C18.0195 15.8594 16.7617 15.5859 15.6133 14.9844C14.4648 14.4375 13.5078 13.5352 12.7422 12.3047C11.9766 11.1016 11.5938 9.76172 11.5938 8.28516V8.12109C11.5938 6.72656 11.8125 5.52344 12.25 4.56641C12.7148 3.52734 13.2891 2.67969 14 2.05078C15.5039 0.765625 17.2266 0.136719 19.1953 0.109375H19.2773H19.3594C20.6992 0.109375 21.957 0.382812 23.1055 0.984375C24.2266 1.53125 25.1836 2.43359 25.9492 3.66406ZM41.0156 1.44922L40.1406 2.57031C39.7031 1.85938 38.9922 1.3125 38.0352 0.957031C37.0781 0.601562 36.0391 0.410156 34.918 0.410156C33.7969 0.410156 32.8398 0.683594 32.0469 1.25781C31.2266 1.80469 30.8164 2.51562 30.8164 3.41797C30.8164 4.64844 31.5273 5.49609 32.9492 6.01562C33.5781 6.26172 34.2617 6.45312 35.0273 6.64453C35.793 6.83594 36.5586 7.02734 37.3242 7.24609C38.0898 7.46484 38.7734 7.73828 39.4023 8.09375C40.0312 8.42188 40.5234 8.91406 40.9062 9.51562C41.3164 10.1719 41.5078 10.9102 41.5078 11.7578C41.5078 13.0977 40.9062 14.1914 39.6484 14.9844C38.4453 15.8047 36.9141 16.2148 35.1367 16.2148C34.125 16.2148 33.0859 16.0781 32.0195 15.8047C30.9531 15.5586 30.0508 15.1758 29.3398 14.7109L30.2969 13.4531C30.8164 14.2188 31.6094 14.793 32.6211 15.2031C33.6328 15.5859 34.7539 15.7773 35.957 15.7773C37.1602 15.7773 38.2266 15.4766 39.1289 14.8477C40.0312 14.2188 40.4961 13.4805 40.4961 12.5781C40.4961 11.6758 40.3047 10.9375 39.9219 10.3633C39.5117 9.78906 38.9922 9.32422 38.3906 9.02344C37.7344 8.69531 37.0508 8.42188 36.2852 8.20312C35.5195 8.01172 34.7539 7.79297 33.9883 7.60156C33.2227 7.41016 32.5391 7.16406 31.9102 6.94531C31.2812 6.67188 30.7891 6.31641 30.3789 5.85156C29.9688 5.35938 29.7773 4.75781 29.7773 4.04688C29.7773 2.84375 30.3242 1.85938 31.418 1.12109C32.5117 0.382812 33.8789 0 35.5469 0C36.4766 0 37.4609 0.109375 38.4453 0.355469C39.4844 0.601562 40.332 0.957031 41.0156 1.44922ZM62.5078 3.08984L61.7148 4.34766C61.1133 3.0625 60.3203 2.13281 59.3359 1.47656C58.3516 0.875 57.2852 0.546875 56.1367 0.546875C54.4688 0.546875 53.0195 1.14844 51.7617 2.32422C50.4766 3.5 49.8477 5.03125 49.8477 6.86328C49.8477 8.20312 50.0664 9.40625 50.5039 10.5C50.9414 11.5938 51.5156 12.4688 52.2266 13.1523C53.6758 14.5469 55.3164 15.2305 57.0938 15.2305H57.1758C58.3789 15.2305 59.418 14.875 60.293 14.1914C61.1953 13.5078 61.7148 12.5234 61.9062 11.293L62.5078 11.7578C61.9883 13.0703 61.168 14.0547 60.0742 14.7109C58.9805 15.3945 57.7773 15.7227 56.4375 15.7227C54.3867 15.7227 52.5547 15.0117 50.9961 13.6172C49.4102 12.2227 48.6172 10.3633 48.6172 8.03906C48.6172 5.74219 49.4102 3.88281 50.9961 2.40625C52.5547 0.984375 54.3867 0.246094 56.4922 0.246094H56.5742C58.9531 0.273438 60.9219 1.20312 62.5078 3.08984ZM64.7227 0.21875H76.4258L76.9453 2.40625H76.8359C76.6445 1.69531 76.0977 1.06641 75.1406 0.546875H67.1562V7.84766H73.0625C73.582 7.30078 73.8828 6.89062 73.9375 6.61719H74.0742V9.37891H73.9375C73.8555 9.13281 73.6367 8.77734 73.2266 8.36719L73.0625 8.17578H67.1562V15.4219H75.8242C76.7812 14.9023 77.3555 14.2734 77.5469 13.5898H77.6289L77.1367 15.75H73.3086H64.7227V15.668C65.3242 15.5312 65.707 15.3945 65.8711 15.2578V0.765625C65.6797 0.628906 65.2969 0.492188 64.7227 0.300781V0.21875ZM86.707 0.574219H82.2773V15.4219H86.707H87.0078C87.418 15.4219 87.7188 15.3945 87.9102 15.3672C88.2109 15.2852 88.4023 15.2578 88.4844 15.2578L89.0312 15.0938C89.2227 15.0117 89.6055 14.8477 90.125 14.5469C90.6445 14.2461 91.1094 13.918 91.5195 13.5078C91.9023 13.0977 92.2578 12.5234 92.5859 11.7578C92.9141 10.9922 93.0781 10.1445 93.0781 9.1875C93.0781 8.88672 93.0234 8.39453 92.9414 7.71094C92.832 7.02734 92.6953 6.42578 92.5586 5.90625C92.4219 5.38672 92.1758 4.78516 91.8477 4.15625C91.5469 3.52734 91.1641 2.95312 90.7539 2.46094C90.3164 1.96875 89.7422 1.55859 89.0586 1.20312C88.3477 0.847656 87.5547 0.65625 86.707 0.574219ZM82.2773 15.7773H79.8438V15.6953C80.4453 15.5586 80.8281 15.3945 80.9922 15.2578V0.765625C80.8008 0.628906 80.418 0.464844 79.8438 0.300781V0.21875H82.2773H86.707C88.8125 0.246094 90.6172 1.01172 92.1211 2.51562C93.5977 4.04688 94.3359 5.87891 94.3359 8.01172C94.3359 10.1445 93.5977 11.9492 92.1211 13.4531C90.6445 14.957 88.8398 15.7227 86.707 15.75H82.2773V15.7773ZM99.0117 0.519531V8.3125H103.359C104.48 8.3125 105.438 8.03906 106.258 7.51953C107.078 7 107.488 6.26172 107.488 5.35938C107.488 4.83984 107.379 4.29297 107.188 3.69141C106.75 2.59766 106.176 1.80469 105.52 1.28516C104.809 0.765625 104.098 0.519531 103.359 0.519531H99.0117ZM96.5781 0.164062H99.0117H103.359C104.945 0.164062 106.258 0.574219 107.297 1.42188C108.363 2.26953 108.883 3.19922 108.91 4.18359C108.91 4.32031 108.883 4.45703 108.855 4.59375V4.45703C108.855 5.63281 108.336 6.61719 107.297 7.4375C106.258 8.20312 104.945 8.61328 103.359 8.64062H101.773C102.457 8.83203 103.168 9.29688 103.961 10.0898C104.754 10.8828 105.465 11.6758 106.094 12.4961C106.723 13.3164 107.461 14.0547 108.254 14.7383C109.047 15.3945 109.812 15.7227 110.496 15.7227H110.551V15.8867C110.359 15.9141 110.004 15.9414 109.484 15.9414C108.938 15.9414 108.336 15.7773 107.652 15.4219C106.996 15.0938 106.422 14.6562 105.902 14.1367C105.41 13.6172 104.918 13.0703 104.398 12.4688C103.879 11.8672 103.387 11.293 102.895 10.7461C102.457 10.1992 101.91 9.73438 101.309 9.35156C100.707 8.94141 100.078 8.69531 99.4219 8.64062H99.0117V15.2305C99.2031 15.3672 99.6133 15.5039 100.188 15.6406V15.7227H96.5781V15.6406C97.1523 15.5039 97.5352 15.3672 97.7266 15.2305V0.710938C97.5352 0.574219 97.1523 0.4375 96.5781 0.273438V0.164062ZM112.902 6.78125C112.902 8.20312 113.121 9.46094 113.504 10.6094C113.941 11.7031 114.488 12.6328 115.172 13.3164C116.594 14.7383 118.152 15.4492 119.848 15.4492L119.875 15.4219C121.598 15.4219 123.02 14.875 124.168 13.7266C125.344 12.6328 125.918 11.0742 125.918 9.13281C125.918 6.37109 125.207 4.26562 123.785 2.73438C122.391 1.25781 120.805 0.492188 119.027 0.492188C117.277 0.492188 115.828 1.06641 114.652 2.1875C113.477 3.30859 112.902 4.83984 112.902 6.78125ZM126.027 3.66406C126.793 4.86719 127.176 6.20703 127.176 7.65625C127.176 9.13281 126.957 10.3906 126.52 11.375C126.082 12.4141 125.508 13.2344 124.77 13.8633C123.238 15.1758 121.461 15.832 119.438 15.8594C118.098 15.8594 116.84 15.5859 115.691 14.9844C114.543 14.4375 113.586 13.5352 112.82 12.3047C112.055 11.1016 111.672 9.76172 111.672 8.28516V8.12109C111.672 6.72656 111.891 5.52344 112.328 4.56641C112.793 3.52734 113.367 2.67969 114.078 2.05078C115.582 0.765625 117.305 0.136719 119.273 0.109375H119.355H119.438C120.777 0.109375 122.035 0.382812 123.184 0.984375C124.305 1.53125 125.262 2.43359 126.027 3.66406ZM141.094 1.44922L140.219 2.57031C139.781 1.85938 139.07 1.3125 138.113 0.957031C137.156 0.601562 136.117 0.410156 134.996 0.410156C133.875 0.410156 132.918 0.683594 132.125 1.25781C131.305 1.80469 130.895 2.51562 130.895 3.41797C130.895 4.64844 131.605 5.49609 133.027 6.01562C133.656 6.26172 134.34 6.45312 135.105 6.64453C135.871 6.83594 136.637 7.02734 137.402 7.24609C138.168 7.46484 138.852 7.73828 139.48 8.09375C140.109 8.42188 140.602 8.91406 140.984 9.51562C141.395 10.1719 141.586 10.9102 141.586 11.7578C141.586 13.0977 140.984 14.1914 139.727 14.9844C138.523 15.8047 136.992 16.2148 135.215 16.2148C134.203 16.2148 133.164 16.0781 132.098 15.8047C131.031 15.5586 130.129 15.1758 129.418 14.7109L130.375 13.4531C130.895 14.2188 131.688 14.793 132.699 15.2031C133.711 15.5859 134.832 15.7773 136.035 15.7773C137.238 15.7773 138.305 15.4766 139.207 14.8477C140.109 14.2188 140.574 13.4805 140.574 12.5781C140.574 11.6758 140.383 10.9375 140 10.3633C139.59 9.78906 139.07 9.32422 138.469 9.02344C137.812 8.69531 137.129 8.42188 136.363 8.20312C135.598 8.01172 134.832 7.79297 134.066 7.60156C133.301 7.41016 132.617 7.16406 131.988 6.94531C131.359 6.67188 130.867 6.31641 130.457 5.85156C130.047 5.35938 129.855 4.75781 129.855 4.04688C129.855 2.84375 130.402 1.85938 131.496 1.12109C132.59 0.382812 133.957 0 135.625 0C136.555 0 137.539 0.109375 138.523 0.355469C139.562 0.601562 140.41 0.957031 141.094 1.44922Z" fill="#513A2B"/>
</svg>
