<svg width="171" height="16" viewBox="0 0 171 16" fill="none" xmlns="http://www.w3.org/2000/svg">
<path d="M0.765625 0.0546875H3.39062L10.8008 14.3555L18.1836 0.0546875H20.6992V0.136719C20.0977 0.273438 19.6875 0.4375 19.4961 0.601562L20.2617 15.0938C20.4531 15.2305 20.8633 15.3945 21.4375 15.5312V15.6133H17.8281V15.5312C18.4297 15.3945 18.8125 15.2305 18.9766 15.0938L18.2109 0.65625C18.2109 0.683594 15.6406 5.66016 10.5273 15.5859H10.0352C10.0078 15.5859 7.4375 10.6094 2.26953 0.65625L1.50391 15.0938C2.13281 15.3125 2.57031 15.4492 2.81641 15.5312V15.6133H0V15.5312L1.14844 15.0938L1.96875 0.601562C1.77734 0.464844 1.36719 0.300781 0.765625 0.136719V0.0546875ZM24.9102 6.67188C24.9102 8.09375 25.1289 9.35156 25.5117 10.5C25.9492 11.5938 26.4961 12.5234 27.1797 13.207C28.6016 14.6289 30.1602 15.3398 31.8555 15.3398L31.8828 15.3125C33.6055 15.3125 35.0273 14.7656 36.1758 13.6172C37.3516 12.5234 37.9258 10.9648 37.9258 9.02344C37.9258 6.26172 37.2148 4.15625 35.793 2.625C34.3984 1.14844 32.8125 0.382812 31.0352 0.382812C29.2852 0.382812 27.8359 0.957031 26.6602 2.07812C25.4844 3.19922 24.9102 4.73047 24.9102 6.67188ZM38.0352 3.55469C38.8008 4.75781 39.1836 6.09766 39.1836 7.54688C39.1836 9.02344 38.9648 10.2812 38.5273 11.2656C38.0898 12.3047 37.5156 13.125 36.7773 13.7539C35.2461 15.0664 33.4688 15.7227 31.4453 15.75C30.1055 15.75 28.8477 15.4766 27.6992 14.875C26.5508 14.3281 25.5938 13.4258 24.8281 12.1953C24.0625 10.9922 23.6797 9.65234 23.6797 8.17578V8.01172C23.6797 6.61719 23.8984 5.41406 24.3359 4.45703C24.8008 3.41797 25.375 2.57031 26.0859 1.94141C27.5898 0.65625 29.3125 0.0273438 31.2812 0H31.3633H31.4453C32.7852 0 34.043 0.273438 35.1914 0.875C36.3125 1.42188 37.2695 2.32422 38.0352 3.55469ZM41.4258 0.0546875H44.3242L55.6719 13.918V0.601562C55.125 0.382812 54.7148 0.21875 54.4688 0.136719V0.0546875H57.2578V0.136719L56.082 0.601562V15.5859H55.3711L43.0664 0.601562H42.9844V15.0938C43.5039 15.3125 43.9141 15.4492 44.1602 15.5312V15.6133H41.4258V15.5312L42.6016 15.0938V0.601562C42.4102 0.464844 42 0.300781 41.4258 0.136719V0.0546875ZM59.9375 0.0546875H74.4844L74.9766 2.24219H74.8945C74.7031 1.50391 74.1289 0.902344 73.1719 0.410156H67.8672V15.0938C68.0586 15.2305 68.4688 15.3945 69.043 15.5312V15.6133H65.3789V15.5312C66.0078 15.3945 66.418 15.2305 66.6094 15.0938V0.410156H61.25C60.293 0.929688 59.7461 1.53125 59.5547 2.24219H59.4727L59.9375 0.0546875ZM77.2188 0.109375H88.9219L89.4414 2.29688H89.332C89.1406 1.58594 88.5938 0.957031 87.6367 0.4375H79.6523V7.73828H85.5586C86.0781 7.19141 86.3789 6.78125 86.4336 6.50781H86.5703V9.26953H86.4336C86.3516 9.02344 86.1328 8.66797 85.7227 8.25781L85.5586 8.06641H79.6523V15.3125H88.3203C89.2773 14.793 89.8516 14.1641 90.043 13.4805H90.125L89.6328 15.6406H85.8047H77.2188V15.5586C77.8203 15.4219 78.2031 15.2852 78.3672 15.1484V0.65625C78.1758 0.519531 77.793 0.382812 77.2188 0.191406V0.109375ZM94.7734 0.410156V8.20312H99.1211C100.242 8.20312 101.199 7.92969 102.02 7.41016C102.84 6.89062 103.25 6.15234 103.25 5.25C103.25 4.73047 103.141 4.18359 102.949 3.58203C102.512 2.48828 101.938 1.69531 101.281 1.17578C100.57 0.65625 99.8594 0.410156 99.1211 0.410156H94.7734ZM92.3398 0.0546875H94.7734H99.1211C100.707 0.0546875 102.02 0.464844 103.059 1.3125C104.125 2.16016 104.645 3.08984 104.672 4.07422C104.672 4.21094 104.645 4.34766 104.617 4.48438V4.34766C104.617 5.52344 104.098 6.50781 103.059 7.32812C102.02 8.09375 100.707 8.50391 99.1211 8.53125H97.5352C98.2188 8.72266 98.9297 9.1875 99.7227 9.98047C100.516 10.7734 101.227 11.5664 101.855 12.3867C102.484 13.207 103.223 13.9453 104.016 14.6289C104.809 15.2852 105.574 15.6133 106.258 15.6133H106.312V15.7773C106.121 15.8047 105.766 15.832 105.246 15.832C104.699 15.832 104.098 15.668 103.414 15.3125C102.758 14.9844 102.184 14.5469 101.664 14.0273C101.172 13.5078 100.68 12.9609 100.16 12.3594C99.6406 11.7578 99.1484 11.1836 98.6562 10.6367C98.2188 10.0898 97.6719 9.625 97.0703 9.24219C96.4688 8.83203 95.8398 8.58594 95.1836 8.53125H94.7734V15.1211C94.9648 15.2578 95.375 15.3945 95.9492 15.5312V15.6133H92.3398V15.5312C92.9141 15.3945 93.2969 15.2578 93.4883 15.1211V0.601562C93.2969 0.464844 92.9141 0.328125 92.3398 0.164062V0.0546875ZM110.961 0.410156V8.20312H115.309C116.43 8.20312 117.387 7.92969 118.207 7.41016C119.027 6.89062 119.438 6.15234 119.438 5.25C119.438 4.73047 119.328 4.18359 119.137 3.58203C118.699 2.48828 118.125 1.69531 117.469 1.17578C116.758 0.65625 116.047 0.410156 115.309 0.410156H110.961ZM108.527 0.0546875H110.961H115.309C116.895 0.0546875 118.207 0.464844 119.246 1.3125C120.312 2.16016 120.832 3.08984 120.859 4.07422C120.859 4.21094 120.832 4.34766 120.805 4.48438V4.34766C120.805 5.52344 120.285 6.50781 119.246 7.32812C118.207 8.09375 116.895 8.50391 115.309 8.53125H113.723C114.406 8.72266 115.117 9.1875 115.91 9.98047C116.703 10.7734 117.414 11.5664 118.043 12.3867C118.672 13.207 119.41 13.9453 120.203 14.6289C120.996 15.2852 121.762 15.6133 122.445 15.6133H122.5V15.7773C122.309 15.8047 121.953 15.832 121.434 15.832C120.887 15.832 120.285 15.668 119.602 15.3125C118.945 14.9844 118.371 14.5469 117.852 14.0273C117.359 13.5078 116.867 12.9609 116.348 12.3594C115.828 11.7578 115.336 11.1836 114.844 10.6367C114.406 10.0898 113.859 9.625 113.258 9.24219C112.656 8.83203 112.027 8.58594 111.371 8.53125H110.961V15.1211C111.152 15.2578 111.562 15.3945 112.137 15.5312V15.6133H108.527V15.5312C109.102 15.3945 109.484 15.2578 109.676 15.1211V0.601562C109.484 0.464844 109.102 0.328125 108.527 0.164062V0.0546875ZM124.715 0.109375H136.418L136.938 2.29688H136.828C136.637 1.58594 136.09 0.957031 135.133 0.4375H127.148V7.73828H133.055C133.574 7.19141 133.875 6.78125 133.93 6.50781H134.066V9.26953H133.93C133.848 9.02344 133.629 8.66797 133.219 8.25781L133.055 8.06641H127.148V15.3125H135.816C136.773 14.793 137.348 14.1641 137.539 13.4805H137.621L137.129 15.6406H133.301H124.715V15.5586C125.316 15.4219 125.699 15.2852 125.863 15.1484V0.65625C125.672 0.519531 125.289 0.382812 124.715 0.191406V0.109375ZM147.355 0.410156L143.008 10.0078H151.758L147.355 0.410156ZM147.137 0.0546875H148.559L155.477 15.1484C155.613 15.2305 155.996 15.3398 156.625 15.5312V15.6133H153.125V15.5039C153.562 15.4219 153.891 15.3125 154.109 15.1758L151.895 10.3906H142.844L140.684 15.1484C140.902 15.2578 141.34 15.3945 142.023 15.5312V15.6133H138.742V15.5312C139.535 15.3945 140.055 15.2305 140.246 15.0938L147.137 0.0546875ZM157.773 0.0820312H161.41V0.164062C160.809 0.300781 160.426 0.464844 160.234 0.628906V15.2852H168.219C169.176 14.7656 169.75 14.1367 169.914 13.4531H170.023L169.504 15.6133H157.773V15.5312C158.375 15.3945 158.758 15.2305 158.949 15.0938V0.628906C158.758 0.492188 158.348 0.355469 157.773 0.164062V0.0820312Z" fill="#513A2B"/>
</svg>
