<svg width="108" height="17" viewBox="0 0 108 17" fill="none" xmlns="http://www.w3.org/2000/svg">
<path d="M11.6758 1.44922L10.8008 2.57031C10.3633 1.85938 9.65234 1.3125 8.69531 0.957031C7.73828 0.601562 6.69922 0.410156 5.57812 0.410156C4.45703 0.410156 3.5 0.683594 2.70703 1.25781C1.88672 1.80469 1.47656 2.51562 1.47656 3.41797C1.47656 4.64844 2.1875 5.49609 3.60938 6.01562C4.23828 6.26172 4.92188 6.45312 5.6875 6.64453C6.45312 6.83594 7.21875 7.02734 7.98438 7.24609C8.75 7.46484 9.43359 7.73828 10.0625 8.09375C10.6914 8.42188 11.1836 8.91406 11.5664 9.51562C11.9766 10.1719 12.168 10.9102 12.168 11.7578C12.168 13.0977 11.5664 14.1914 10.3086 14.9844C9.10547 15.8047 7.57422 16.2148 5.79688 16.2148C4.78516 16.2148 3.74609 16.0781 2.67969 15.8047C1.61328 15.5586 0.710938 15.1758 0 14.7109L0.957031 13.4531C1.47656 14.2188 2.26953 14.793 3.28125 15.2031C4.29297 15.5859 5.41406 15.7773 6.61719 15.7773C7.82031 15.7773 8.88672 15.4766 9.78906 14.8477C10.6914 14.2188 11.1562 13.4805 11.1562 12.5781C11.1562 11.6758 10.9648 10.9375 10.582 10.3633C10.1719 9.78906 9.65234 9.32422 9.05078 9.02344C8.39453 8.69531 7.71094 8.42188 6.94531 8.20312C6.17969 8.01172 5.41406 7.79297 4.64844 7.60156C3.88281 7.41016 3.19922 7.16406 2.57031 6.94531C1.94141 6.67188 1.44922 6.31641 1.03906 5.85156C0.628906 5.35938 0.4375 4.75781 0.4375 4.04688C0.4375 2.84375 0.984375 1.85938 2.07812 1.12109C3.17188 0.382812 4.53906 0 6.20703 0C7.13672 0 8.12109 0.109375 9.10547 0.355469C10.1445 0.601562 10.9922 0.957031 11.6758 1.44922ZM21.9297 0.519531L17.582 10.1172H26.332L21.9297 0.519531ZM21.7109 0.164062H23.1328L30.0508 15.2578C30.1875 15.3398 30.5703 15.4492 31.1992 15.6406V15.7227H27.6992V15.6133C28.1367 15.5312 28.4648 15.4219 28.6836 15.2852L26.4688 10.5H17.418L15.2578 15.2578C15.4766 15.3672 15.9141 15.5039 16.5977 15.6406V15.7227H13.3164V15.6406C14.1094 15.5039 14.6289 15.3398 14.8203 15.2031L21.7109 0.164062ZM32.3477 0.191406H35.9844V0.273438C35.3828 0.410156 35 0.574219 34.8086 0.738281V15.3945H42.793C43.75 14.875 44.3242 14.2461 44.4883 13.5625H44.5977L44.0781 15.7227H32.3477V15.6406C32.9492 15.5039 33.332 15.3398 33.5234 15.2031V0.738281C33.332 0.601562 32.9219 0.464844 32.3477 0.273438V0.191406ZM43.0938 0.164062H57.6406L58.1328 2.35156H58.0508C57.8594 1.61328 57.2852 1.01172 56.3281 0.519531H51.0234V15.2031C51.2148 15.3398 51.625 15.5039 52.1992 15.6406V15.7227H48.5352V15.6406C49.1641 15.5039 49.5742 15.3398 49.7656 15.2031V0.519531H44.4062C43.4492 1.03906 42.9023 1.64062 42.7109 2.35156H42.6289L43.0938 0.164062ZM60.375 0.164062H64.0117V0.246094C63.3828 0.382812 63 0.546875 62.8086 0.710938V15.2031C63 15.3398 63.4102 15.5039 64.0117 15.6406V15.7227H60.375V15.6406C60.9766 15.5039 61.3594 15.3398 61.5508 15.2031V0.710938C61.3594 0.574219 60.9492 0.410156 60.375 0.246094V0.164062ZM66.2539 0.191406H69.8906V0.273438C69.2891 0.410156 68.9062 0.574219 68.7148 0.738281V15.3945H76.6992C77.6562 14.875 78.2305 14.2461 78.3945 13.5625H78.5039L77.9844 15.7227H66.2539V15.6406C66.8555 15.5039 67.2383 15.3398 67.4297 15.2031V0.738281C67.2383 0.601562 66.8281 0.464844 66.2539 0.273438V0.191406ZM80.7461 0.191406H84.3828V0.273438C83.7812 0.410156 83.3984 0.574219 83.207 0.738281V15.3945H91.1914C92.1484 14.875 92.7227 14.2461 92.8867 13.5625H92.9961L92.4766 15.7227H80.7461V15.6406C81.3477 15.5039 81.7305 15.3398 81.9219 15.2031V0.738281C81.7305 0.601562 81.3203 0.464844 80.7461 0.273438V0.191406ZM93.5703 6.78125C93.5703 8.20312 93.7891 9.46094 94.1719 10.6094C94.6094 11.7031 95.1562 12.6328 95.8398 13.3164C97.2617 14.7383 98.8203 15.4492 100.516 15.4492L100.543 15.4219C102.266 15.4219 103.688 14.875 104.836 13.7266C106.012 12.6328 106.586 11.0742 106.586 9.13281C106.586 6.37109 105.875 4.26562 104.453 2.73438C103.059 1.25781 101.473 0.492188 99.6953 0.492188C97.9453 0.492188 96.4961 1.06641 95.3203 2.1875C94.1445 3.30859 93.5703 4.83984 93.5703 6.78125ZM106.695 3.66406C107.461 4.86719 107.844 6.20703 107.844 7.65625C107.844 9.13281 107.625 10.3906 107.188 11.375C106.75 12.4141 106.176 13.2344 105.438 13.8633C103.906 15.1758 102.129 15.832 100.105 15.8594C98.7656 15.8594 97.5078 15.5859 96.3594 14.9844C95.2109 14.4375 94.2539 13.5352 93.4883 12.3047C92.7227 11.1016 92.3398 9.76172 92.3398 8.28516V8.12109C92.3398 6.72656 92.5586 5.52344 92.9961 4.56641C93.4609 3.52734 94.0352 2.67969 94.7461 2.05078C96.25 0.765625 97.9727 0.136719 99.9414 0.109375H100.023H100.105C101.445 0.109375 102.703 0.382812 103.852 0.984375C104.973 1.53125 105.93 2.43359 106.695 3.66406Z" fill="#513A2B"/>
</svg>
