<svg width="224" height="46" viewBox="0 0 224 46" fill="none" xmlns="http://www.w3.org/2000/svg">
<path d="M38.5684 1.44922L37.6934 2.57031C37.2559 1.85938 36.5449 1.3125 35.5879 0.957031C34.6309 0.601562 33.5918 0.410156 32.4707 0.410156C31.3496 0.410156 30.3926 0.683594 29.5996 1.25781C28.7793 1.80469 28.3691 2.51562 28.3691 3.41797C28.3691 4.64844 29.0801 5.49609 30.502 6.01562C31.1309 6.26172 31.8145 6.45312 32.5801 6.64453C33.3457 6.83594 34.1113 7.02734 34.877 7.24609C35.6426 7.46484 36.3262 7.73828 36.9551 8.09375C37.584 8.42188 38.0762 8.91406 38.459 9.51562C38.8691 10.1719 39.0605 10.9102 39.0605 11.7578C39.0605 13.0977 38.459 14.1914 37.2012 14.9844C35.998 15.8047 34.4668 16.2148 32.6895 16.2148C31.6777 16.2148 30.6387 16.0781 29.5723 15.8047C28.5059 15.5586 27.6035 15.1758 26.8926 14.7109L27.8496 13.4531C28.3691 14.2188 29.1621 14.793 30.1738 15.2031C31.1855 15.5859 32.3066 15.7773 33.5098 15.7773C34.7129 15.7773 35.7793 15.4766 36.6816 14.8477C37.584 14.2188 38.0488 13.4805 38.0488 12.5781C38.0488 11.6758 37.8574 10.9375 37.4746 10.3633C37.0645 9.78906 36.5449 9.32422 35.9434 9.02344C35.2871 8.69531 34.6035 8.42188 33.8379 8.20312C33.0723 8.01172 32.3066 7.79297 31.541 7.60156C30.7754 7.41016 30.0918 7.16406 29.4629 6.94531C28.834 6.67188 28.3418 6.31641 27.9316 5.85156C27.5215 5.35938 27.3301 4.75781 27.3301 4.04688C27.3301 2.84375 27.877 1.85938 28.9707 1.12109C30.0645 0.382812 31.4316 0 33.0996 0C34.0293 0 35.0137 0.109375 35.998 0.355469C37.0371 0.601562 37.8848 0.957031 38.5684 1.44922ZM48.8223 0.519531L44.4746 10.1172H53.2246L48.8223 0.519531ZM48.6035 0.164062H50.0254L56.9434 15.2578C57.0801 15.3398 57.4629 15.4492 58.0918 15.6406V15.7227H54.5918V15.6133C55.0293 15.5312 55.3574 15.4219 55.5762 15.2852L53.3613 10.5H44.3105L42.1504 15.2578C42.3691 15.3672 42.8066 15.5039 43.4902 15.6406V15.7227H40.209V15.6406C41.002 15.5039 41.5215 15.3398 41.7129 15.2031L48.6035 0.164062ZM59.2402 0.164062H62.1387L73.4863 14.0273V0.710938C72.9395 0.492188 72.5293 0.328125 72.2832 0.246094V0.164062H75.0723V0.246094L73.8965 0.710938V15.6953H73.1855L60.8809 0.710938H60.7988V15.2031C61.3184 15.4219 61.7285 15.5586 61.9746 15.6406V15.7227H59.2402V15.6406L60.416 15.2031V0.710938C60.2246 0.574219 59.8145 0.410156 59.2402 0.246094V0.164062ZM90.7676 0.519531L86.4199 10.1172H95.1699L90.7676 0.519531ZM90.5488 0.164062H91.9707L98.8887 15.2578C99.0254 15.3398 99.4082 15.4492 100.037 15.6406V15.7227H96.5371V15.6133C96.9746 15.5312 97.3027 15.4219 97.5215 15.2852L95.3066 10.5H86.2559L84.0957 15.2578C84.3145 15.3672 84.752 15.5039 85.4355 15.6406V15.7227H82.1543V15.6406C82.9473 15.5039 83.4668 15.3398 83.6582 15.2031L90.5488 0.164062ZM101.186 0.164062H104.084L115.432 14.0273V0.710938C114.885 0.492188 114.475 0.328125 114.229 0.246094V0.164062H117.018V0.246094L115.842 0.710938V15.6953H115.131L102.826 0.710938H102.744V15.2031C103.264 15.4219 103.674 15.5586 103.92 15.6406V15.7227H101.186V15.6406L102.361 15.2031V0.710938C102.17 0.574219 101.76 0.410156 101.186 0.246094V0.164062ZM119.697 0.164062H134.244L134.736 2.35156H134.654C134.463 1.61328 133.889 1.01172 132.932 0.519531H127.627V15.2031C127.818 15.3398 128.229 15.5039 128.803 15.6406V15.7227H125.139V15.6406C125.768 15.5039 126.178 15.3398 126.369 15.2031V0.519531H121.01C120.053 1.03906 119.506 1.64062 119.314 2.35156H119.232L119.697 0.164062ZM135.666 6.78125C135.666 8.20312 135.885 9.46094 136.268 10.6094C136.705 11.7031 137.252 12.6328 137.936 13.3164C139.357 14.7383 140.916 15.4492 142.611 15.4492L142.639 15.4219C144.361 15.4219 145.783 14.875 146.932 13.7266C148.107 12.6328 148.682 11.0742 148.682 9.13281C148.682 6.37109 147.971 4.26562 146.549 2.73438C145.154 1.25781 143.568 0.492188 141.791 0.492188C140.041 0.492188 138.592 1.06641 137.416 2.1875C136.24 3.30859 135.666 4.83984 135.666 6.78125ZM148.791 3.66406C149.557 4.86719 149.939 6.20703 149.939 7.65625C149.939 9.13281 149.721 10.3906 149.283 11.375C148.846 12.4141 148.271 13.2344 147.533 13.8633C146.002 15.1758 144.225 15.832 142.201 15.8594C140.861 15.8594 139.604 15.5859 138.455 14.9844C137.307 14.4375 136.35 13.5352 135.584 12.3047C134.818 11.1016 134.436 9.76172 134.436 8.28516V8.12109C134.436 6.72656 134.654 5.52344 135.092 4.56641C135.557 3.52734 136.131 2.67969 136.842 2.05078C138.346 0.765625 140.068 0.136719 142.037 0.109375H142.119H142.201C143.541 0.109375 144.799 0.382812 145.947 0.984375C147.068 1.53125 148.025 2.43359 148.791 3.66406ZM152.182 0.164062H155.08L166.428 14.0273V0.710938C165.881 0.492188 165.471 0.328125 165.225 0.246094V0.164062H168.014V0.246094L166.838 0.710938V15.6953H166.127L153.822 0.710938H153.74V15.2031C154.26 15.4219 154.67 15.5586 154.916 15.6406V15.7227H152.182V15.6406L153.357 15.2031V0.710938C153.166 0.574219 152.756 0.410156 152.182 0.246094V0.164062ZM170.229 0.164062H173.865V0.246094C173.236 0.382812 172.854 0.546875 172.662 0.710938V15.2031C172.854 15.3398 173.264 15.5039 173.865 15.6406V15.7227H170.229V15.6406C170.83 15.5039 171.213 15.3398 171.404 15.2031V0.710938C171.213 0.574219 170.803 0.410156 170.229 0.246094V0.164062ZM177.338 6.78125C177.338 8.20312 177.557 9.46094 177.939 10.6094C178.377 11.7031 178.924 12.6328 179.607 13.3164C181.029 14.7383 182.588 15.4492 184.283 15.4492L184.311 15.4219C186.033 15.4219 187.455 14.875 188.604 13.7266C189.779 12.6328 190.354 11.0742 190.354 9.13281C190.354 6.37109 189.643 4.26562 188.221 2.73438C186.826 1.25781 185.24 0.492188 183.463 0.492188C181.713 0.492188 180.264 1.06641 179.088 2.1875C177.912 3.30859 177.338 4.83984 177.338 6.78125ZM190.463 3.66406C191.229 4.86719 191.611 6.20703 191.611 7.65625C191.611 9.13281 191.393 10.3906 190.955 11.375C190.518 12.4141 189.943 13.2344 189.205 13.8633C187.674 15.1758 185.896 15.832 183.873 15.8594C182.533 15.8594 181.275 15.5859 180.127 14.9844C178.979 14.4375 178.021 13.5352 177.256 12.3047C176.49 11.1016 176.107 9.76172 176.107 8.28516V8.12109C176.107 6.72656 176.326 5.52344 176.764 4.56641C177.229 3.52734 177.803 2.67969 178.514 2.05078C180.018 0.765625 181.74 0.136719 183.709 0.109375H183.791H183.873C185.213 0.109375 186.471 0.382812 187.619 0.984375C188.74 1.53125 189.697 2.43359 190.463 3.66406ZM6.86328 29.5742H2.43359V44.4219H6.86328H7.16406C7.57422 44.4219 7.875 44.3945 8.06641 44.3672C8.36719 44.2852 8.55859 44.2578 8.64062 44.2578L9.1875 44.0938C9.37891 44.0117 9.76172 43.8477 10.2812 43.5469C10.8008 43.2461 11.2656 42.918 11.6758 42.5078C12.0586 42.0977 12.4141 41.5234 12.7422 40.7578C13.0703 39.9922 13.2344 39.1445 13.2344 38.1875C13.2344 37.8867 13.1797 37.3945 13.0977 36.7109C12.9883 36.0273 12.8516 35.4258 12.7148 34.9062C12.5781 34.3867 12.332 33.7852 12.0039 33.1562C11.7031 32.5273 11.3203 31.9531 10.9102 31.4609C10.4727 30.9688 9.89844 30.5586 9.21484 30.2031C8.50391 29.8477 7.71094 29.6562 6.86328 29.5742ZM2.43359 44.7773H0V44.6953C0.601562 44.5586 0.984375 44.3945 1.14844 44.2578V29.7656C0.957031 29.6289 0.574219 29.4648 0 29.3008V29.2188H2.43359H6.86328C8.96875 29.2461 10.7734 30.0117 12.2773 31.5156C13.7539 33.0469 14.4922 34.8789 14.4922 37.0117C14.4922 39.1445 13.7539 40.9492 12.2773 42.4531C10.8008 43.957 8.99609 44.7227 6.86328 44.75H2.43359V44.7773ZM16.7344 29.2188H28.4375L28.957 31.4062H28.8477C28.6562 30.6953 28.1094 30.0664 27.1523 29.5469H19.168V36.8477H25.0742C25.5938 36.3008 25.8945 35.8906 25.9492 35.6172H26.0859V38.3789H25.9492C25.8672 38.1328 25.6484 37.7773 25.2383 37.3672L25.0742 37.1758H19.168V44.4219H27.8359C28.793 43.9023 29.3672 43.2734 29.5586 42.5898H29.6406L29.1484 44.75H25.3203H16.7344V44.668C17.3359 44.5312 17.7188 44.3945 17.8828 44.2578V29.7656C17.6914 29.6289 17.3086 29.4922 16.7344 29.3008V29.2188ZM36.7227 29.1914H40.3594V29.2734C39.7578 29.4102 39.375 29.5742 39.1836 29.7383V44.3945H47.168C48.125 43.875 48.6992 43.2461 48.8633 42.5625H48.9727L48.4531 44.7227H36.7227V44.6406C37.3242 44.5039 37.707 44.3398 37.8984 44.2031V29.7383C37.707 29.6016 37.2969 29.4648 36.7227 29.2734V29.1914ZM58.7344 29.5195L54.3867 39.1172H63.1367L58.7344 29.5195ZM58.5156 29.1641H59.9375L66.8555 44.2578C66.9922 44.3398 67.375 44.4492 68.0039 44.6406V44.7227H64.5039V44.6133C64.9414 44.5312 65.2695 44.4219 65.4883 44.2852L63.2734 39.5H54.2227L52.0625 44.2578C52.2812 44.3672 52.7188 44.5039 53.4023 44.6406V44.7227H50.1211V44.6406C50.9141 44.5039 51.4336 44.3398 51.625 44.2031L58.5156 29.1641ZM80.8281 30.4492L79.9531 31.5703C79.5156 30.8594 78.8047 30.3125 77.8477 29.957C76.8906 29.6016 75.8516 29.4102 74.7305 29.4102C73.6094 29.4102 72.6523 29.6836 71.8594 30.2578C71.0391 30.8047 70.6289 31.5156 70.6289 32.418C70.6289 33.6484 71.3398 34.4961 72.7617 35.0156C73.3906 35.2617 74.0742 35.4531 74.8398 35.6445C75.6055 35.8359 76.3711 36.0273 77.1367 36.2461C77.9023 36.4648 78.5859 36.7383 79.2148 37.0938C79.8438 37.4219 80.3359 37.9141 80.7188 38.5156C81.1289 39.1719 81.3203 39.9102 81.3203 40.7578C81.3203 42.0977 80.7188 43.1914 79.4609 43.9844C78.2578 44.8047 76.7266 45.2148 74.9492 45.2148C73.9375 45.2148 72.8984 45.0781 71.832 44.8047C70.7656 44.5586 69.8633 44.1758 69.1523 43.7109L70.1094 42.4531C70.6289 43.2188 71.4219 43.793 72.4336 44.2031C73.4453 44.5859 74.5664 44.7773 75.7695 44.7773C76.9727 44.7773 78.0391 44.4766 78.9414 43.8477C79.8438 43.2188 80.3086 42.4805 80.3086 41.5781C80.3086 40.6758 80.1172 39.9375 79.7344 39.3633C79.3242 38.7891 78.8047 38.3242 78.2031 38.0234C77.5469 37.6953 76.8633 37.4219 76.0977 37.2031C75.332 37.0117 74.5664 36.793 73.8008 36.6016C73.0352 36.4102 72.3516 36.1641 71.7227 35.9453C71.0938 35.6719 70.6016 35.3164 70.1914 34.8516C69.7812 34.3594 69.5898 33.7578 69.5898 33.0469C69.5898 31.8438 70.1367 30.8594 71.2305 30.1211C72.3242 29.3828 73.6914 29 75.3594 29C76.2891 29 77.2734 29.1094 78.2578 29.3555C79.2969 29.6016 80.1445 29.957 80.8281 30.4492ZM97.043 29.5195L92.6953 39.1172H101.445L97.043 29.5195ZM96.8242 29.1641H98.2461L105.164 44.2578C105.301 44.3398 105.684 44.4492 106.312 44.6406V44.7227H102.812V44.6133C103.25 44.5312 103.578 44.4219 103.797 44.2852L101.582 39.5H92.5312L90.3711 44.2578C90.5898 44.3672 91.0273 44.5039 91.7109 44.6406V44.7227H88.4297V44.6406C89.2227 44.5039 89.7422 44.3398 89.9336 44.2031L96.8242 29.1641ZM107.461 29.1914H111.098V29.2734C110.496 29.4102 110.113 29.5742 109.922 29.7383V44.3945H117.906C118.863 43.875 119.438 43.2461 119.602 42.5625H119.711L119.191 44.7227H107.461V44.6406C108.062 44.5039 108.445 44.3398 108.637 44.2031V29.7383C108.445 29.6016 108.035 29.4648 107.461 29.2734V29.1914ZM129.473 29.5195L125.125 39.1172H133.875L129.473 29.5195ZM129.254 29.1641H130.676L137.594 44.2578C137.73 44.3398 138.113 44.4492 138.742 44.6406V44.7227H135.242V44.6133C135.68 44.5312 136.008 44.4219 136.227 44.2852L134.012 39.5H124.961L122.801 44.2578C123.02 44.3672 123.457 44.5039 124.141 44.6406V44.7227H120.859V44.6406C121.652 44.5039 122.172 44.3398 122.363 44.2031L129.254 29.1641ZM141.586 29.2188H154.355V29.5469L142.57 44.4219H152.688C153.645 43.9023 154.219 43.3008 154.41 42.5898H154.52L154 44.75H140.984V44.4219L152.715 29.5469H142.926C141.969 30.0664 141.395 30.668 141.203 31.4062H141.094L141.586 29.2188ZM164.801 29.5195L160.453 39.1172H169.203L164.801 29.5195ZM164.582 29.1641H166.004L172.922 44.2578C173.059 44.3398 173.441 44.4492 174.07 44.6406V44.7227H170.57V44.6133C171.008 44.5312 171.336 44.4219 171.555 44.2852L169.34 39.5H160.289L158.129 44.2578C158.348 44.3672 158.785 44.5039 159.469 44.6406V44.7227H156.188V44.6406C156.98 44.5039 157.5 44.3398 157.691 44.2031L164.582 29.1641ZM175.219 29.1641H178.117L189.465 43.0273V29.7109C188.918 29.4922 188.508 29.3281 188.262 29.2461V29.1641H191.051V29.2461L189.875 29.7109V44.6953H189.164L176.859 29.7109H176.777V44.2031C177.297 44.4219 177.707 44.5586 177.953 44.6406V44.7227H175.219V44.6406L176.395 44.2031V29.7109C176.203 29.5742 175.793 29.4102 175.219 29.2461V29.1641ZM200.785 29.5195L196.438 39.1172H205.188L200.785 29.5195ZM200.566 29.1641H201.988L208.906 44.2578C209.043 44.3398 209.426 44.4492 210.055 44.6406V44.7227H206.555V44.6133C206.992 44.5312 207.32 44.4219 207.539 44.2852L205.324 39.5H196.273L194.113 44.2578C194.332 44.3672 194.77 44.5039 195.453 44.6406V44.7227H192.172V44.6406C192.965 44.5039 193.484 44.3398 193.676 44.2031L200.566 29.1641ZM222.879 30.4492L222.004 31.5703C221.566 30.8594 220.855 30.3125 219.898 29.957C218.941 29.6016 217.902 29.4102 216.781 29.4102C215.66 29.4102 214.703 29.6836 213.91 30.2578C213.09 30.8047 212.68 31.5156 212.68 32.418C212.68 33.6484 213.391 34.4961 214.812 35.0156C215.441 35.2617 216.125 35.4531 216.891 35.6445C217.656 35.8359 218.422 36.0273 219.188 36.2461C219.953 36.4648 220.637 36.7383 221.266 37.0938C221.895 37.4219 222.387 37.9141 222.77 38.5156C223.18 39.1719 223.371 39.9102 223.371 40.7578C223.371 42.0977 222.77 43.1914 221.512 43.9844C220.309 44.8047 218.777 45.2148 217 45.2148C215.988 45.2148 214.949 45.0781 213.883 44.8047C212.816 44.5586 211.914 44.1758 211.203 43.7109L212.16 42.4531C212.68 43.2188 213.473 43.793 214.484 44.2031C215.496 44.5859 216.617 44.7773 217.82 44.7773C219.023 44.7773 220.09 44.4766 220.992 43.8477C221.895 43.2188 222.359 42.4805 222.359 41.5781C222.359 40.6758 222.168 39.9375 221.785 39.3633C221.375 38.7891 220.855 38.3242 220.254 38.0234C219.598 37.6953 218.914 37.4219 218.148 37.2031C217.383 37.0117 216.617 36.793 215.852 36.6016C215.086 36.4102 214.402 36.1641 213.773 35.9453C213.145 35.6719 212.652 35.3164 212.242 34.8516C211.832 34.3594 211.641 33.7578 211.641 33.0469C211.641 31.8438 212.188 30.8594 213.281 30.1211C214.375 29.3828 215.742 29 217.41 29C218.34 29 219.324 29.1094 220.309 29.3555C221.348 29.6016 222.195 29.957 222.879 30.4492Z" fill="#513A2B"/>
</svg>
