<svg width="125" height="45" viewBox="0 0 125 45" fill="none" xmlns="http://www.w3.org/2000/svg">
<path d="M13.6719 1.44922L12.7969 2.57031C12.3594 1.85938 11.6484 1.3125 10.6914 0.957031C9.73438 0.601562 8.69531 0.410156 7.57422 0.410156C6.45312 0.410156 5.49609 0.683594 4.70312 1.25781C3.88281 1.80469 3.47266 2.51562 3.47266 3.41797C3.47266 4.64844 4.18359 5.49609 5.60547 6.01562C6.23438 6.26172 6.91797 6.45312 7.68359 6.64453C8.44922 6.83594 9.21484 7.02734 9.98047 7.24609C10.7461 7.46484 11.4297 7.73828 12.0586 8.09375C12.6875 8.42188 13.1797 8.91406 13.5625 9.51562C13.9727 10.1719 14.1641 10.9102 14.1641 11.7578C14.1641 13.0977 13.5625 14.1914 12.3047 14.9844C11.1016 15.8047 9.57031 16.2148 7.79297 16.2148C6.78125 16.2148 5.74219 16.0781 4.67578 15.8047C3.60938 15.5586 2.70703 15.1758 1.99609 14.7109L2.95312 13.4531C3.47266 14.2188 4.26562 14.793 5.27734 15.2031C6.28906 15.5859 7.41016 15.7773 8.61328 15.7773C9.81641 15.7773 10.8828 15.4766 11.7852 14.8477C12.6875 14.2188 13.1523 13.4805 13.1523 12.5781C13.1523 11.6758 12.9609 10.9375 12.5781 10.3633C12.168 9.78906 11.6484 9.32422 11.0469 9.02344C10.3906 8.69531 9.70703 8.42188 8.94141 8.20312C8.17578 8.01172 7.41016 7.79297 6.64453 7.60156C5.87891 7.41016 5.19531 7.16406 4.56641 6.94531C3.9375 6.67188 3.44531 6.31641 3.03516 5.85156C2.625 5.35938 2.43359 4.75781 2.43359 4.04688C2.43359 2.84375 2.98047 1.85938 4.07422 1.12109C5.16797 0.382812 6.53516 0 8.20312 0C9.13281 0 10.1172 0.109375 11.1016 0.355469C12.1406 0.601562 12.9883 0.957031 13.6719 1.44922ZM16.4062 0.164062H20.043V0.246094C19.4141 0.382812 19.0312 0.546875 18.8398 0.710938V15.2031C19.0312 15.3398 19.4414 15.5039 20.043 15.6406V15.7227H16.4062V15.6406C17.0078 15.5039 17.3906 15.3398 17.582 15.2031V0.710938C17.3906 0.574219 16.9805 0.410156 16.4062 0.246094V0.164062ZM22.2852 0.21875H33.9883L34.5078 2.40625H34.3984C34.207 1.69531 33.6602 1.06641 32.7031 0.546875H24.7188V7.84766H30.625C31.1445 7.30078 31.4453 6.89062 31.5 6.61719H31.6367V9.37891H31.5C31.418 9.13281 31.1992 8.77734 30.7891 8.36719L30.625 8.17578H24.7188V15.4219H33.3867C34.3438 14.9023 34.918 14.2734 35.1094 13.5898H35.1914L34.6992 15.75H30.8711H22.2852V15.668C22.8867 15.5312 23.2695 15.3945 23.4336 15.2578V0.765625C23.2422 0.628906 22.8594 0.492188 22.2852 0.300781V0.21875ZM39.8398 0.519531V8.3125H44.1875C45.3086 8.3125 46.2656 8.03906 47.0859 7.51953C47.9062 7 48.3164 6.26172 48.3164 5.35938C48.3164 4.83984 48.207 4.29297 48.0156 3.69141C47.5781 2.59766 47.0039 1.80469 46.3477 1.28516C45.6367 0.765625 44.9258 0.519531 44.1875 0.519531H39.8398ZM37.4062 0.164062H39.8398H44.1875C45.7734 0.164062 47.0859 0.574219 48.125 1.42188C49.1914 2.26953 49.7109 3.19922 49.7383 4.18359C49.7383 4.32031 49.7109 4.45703 49.6836 4.59375V4.45703C49.6836 5.63281 49.1641 6.61719 48.125 7.4375C47.0859 8.20312 45.7734 8.61328 44.1875 8.64062H42.6016C43.2852 8.83203 43.9961 9.29688 44.7891 10.0898C45.582 10.8828 46.293 11.6758 46.9219 12.4961C47.5508 13.3164 48.2891 14.0547 49.082 14.7383C49.875 15.3945 50.6406 15.7227 51.3242 15.7227H51.3789V15.8867C51.1875 15.9141 50.832 15.9414 50.3125 15.9414C49.7656 15.9414 49.1641 15.7773 48.4805 15.4219C47.8242 15.0938 47.25 14.6562 46.7305 14.1367C46.2383 13.6172 45.7461 13.0703 45.2266 12.4688C44.707 11.8672 44.2148 11.293 43.7227 10.7461C43.2852 10.1992 42.7383 9.73438 42.1367 9.35156C41.5352 8.94141 40.9062 8.69531 40.25 8.64062H39.8398V15.2305C40.0312 15.3672 40.4414 15.5039 41.0156 15.6406V15.7227H37.4062V15.6406C37.9805 15.5039 38.3633 15.3672 38.5547 15.2305V0.710938C38.3633 0.574219 37.9805 0.4375 37.4062 0.273438V0.164062ZM56.0273 0.519531V8.3125H60.375C61.4961 8.3125 62.4531 8.03906 63.2734 7.51953C64.0938 7 64.5039 6.26172 64.5039 5.35938C64.5039 4.83984 64.3945 4.29297 64.2031 3.69141C63.7656 2.59766 63.1914 1.80469 62.5352 1.28516C61.8242 0.765625 61.1133 0.519531 60.375 0.519531H56.0273ZM53.5938 0.164062H56.0273H60.375C61.9609 0.164062 63.2734 0.574219 64.3125 1.42188C65.3789 2.26953 65.8984 3.19922 65.9258 4.18359C65.9258 4.32031 65.8984 4.45703 65.8711 4.59375V4.45703C65.8711 5.63281 65.3516 6.61719 64.3125 7.4375C63.2734 8.20312 61.9609 8.61328 60.375 8.64062H58.7891C59.4727 8.83203 60.1836 9.29688 60.9766 10.0898C61.7695 10.8828 62.4805 11.6758 63.1094 12.4961C63.7383 13.3164 64.4766 14.0547 65.2695 14.7383C66.0625 15.3945 66.8281 15.7227 67.5117 15.7227H67.5664V15.8867C67.375 15.9141 67.0195 15.9414 66.5 15.9414C65.9531 15.9414 65.3516 15.7773 64.668 15.4219C64.0117 15.0938 63.4375 14.6562 62.918 14.1367C62.4258 13.6172 61.9336 13.0703 61.4141 12.4688C60.8945 11.8672 60.4023 11.293 59.9102 10.7461C59.4727 10.1992 58.9258 9.73438 58.3242 9.35156C57.7227 8.94141 57.0938 8.69531 56.4375 8.64062H56.0273V15.2305C56.2188 15.3672 56.6289 15.5039 57.2031 15.6406V15.7227H53.5938V15.6406C54.168 15.5039 54.5508 15.3672 54.7422 15.2305V0.710938C54.5508 0.574219 54.168 0.4375 53.5938 0.273438V0.164062ZM76.7539 0.519531L72.4062 10.1172H81.1562L76.7539 0.519531ZM76.5352 0.164062H77.957L84.875 15.2578C85.0117 15.3398 85.3945 15.4492 86.0234 15.6406V15.7227H82.5234V15.6133C82.9609 15.5312 83.2891 15.4219 83.5078 15.2852L81.293 10.5H72.2422L70.082 15.2578C70.3008 15.3672 70.7383 15.5039 71.4219 15.6406V15.7227H68.1406V15.6406C68.9336 15.5039 69.4531 15.3398 69.6445 15.2031L76.5352 0.164062ZM99.9961 0.574219H95.5664V15.4219H99.9961H100.297C100.707 15.4219 101.008 15.3945 101.199 15.3672C101.5 15.2852 101.691 15.2578 101.773 15.2578L102.32 15.0938C102.512 15.0117 102.895 14.8477 103.414 14.5469C103.934 14.2461 104.398 13.918 104.809 13.5078C105.191 13.0977 105.547 12.5234 105.875 11.7578C106.203 10.9922 106.367 10.1445 106.367 9.1875C106.367 8.88672 106.312 8.39453 106.23 7.71094C106.121 7.02734 105.984 6.42578 105.848 5.90625C105.711 5.38672 105.465 4.78516 105.137 4.15625C104.836 3.52734 104.453 2.95312 104.043 2.46094C103.605 1.96875 103.031 1.55859 102.348 1.20312C101.637 0.847656 100.844 0.65625 99.9961 0.574219ZM95.5664 15.7773H93.1328V15.6953C93.7344 15.5586 94.1172 15.3945 94.2812 15.2578V0.765625C94.0898 0.628906 93.707 0.464844 93.1328 0.300781V0.21875H95.5664H99.9961C102.102 0.246094 103.906 1.01172 105.41 2.51562C106.887 4.04688 107.625 5.87891 107.625 8.01172C107.625 10.1445 106.887 11.9492 105.41 13.4531C103.934 14.957 102.129 15.7227 99.9961 15.75H95.5664V15.7773ZM109.867 0.21875H121.57L122.09 2.40625H121.98C121.789 1.69531 121.242 1.06641 120.285 0.546875H112.301V7.84766H118.207C118.727 7.30078 119.027 6.89062 119.082 6.61719H119.219V9.37891H119.082C119 9.13281 118.781 8.77734 118.371 8.36719L118.207 8.17578H112.301V15.4219H120.969C121.926 14.9023 122.5 14.2734 122.691 13.5898H122.773L122.281 15.75H118.453H109.867V15.668C110.469 15.5312 110.852 15.3945 111.016 15.2578V0.765625C110.824 0.628906 110.441 0.492188 109.867 0.300781V0.21875ZM0 29.1914H3.63672V29.2734C3.03516 29.4102 2.65234 29.5742 2.46094 29.7383V44.3945H10.4453C11.4023 43.875 11.9766 43.2461 12.1406 42.5625H12.25L11.7305 44.7227H0V44.6406C0.601562 44.5039 0.984375 44.3398 1.17578 44.2031V29.7383C0.984375 29.6016 0.574219 29.4648 0 29.2734V29.1914ZM22.0117 29.5195L17.6641 39.1172H26.4141L22.0117 29.5195ZM21.793 29.1641H23.2148L30.1328 44.2578C30.2695 44.3398 30.6523 44.4492 31.2812 44.6406V44.7227H27.7812V44.6133C28.2188 44.5312 28.5469 44.4219 28.7656 44.2852L26.5508 39.5H17.5L15.3398 44.2578C15.5586 44.3672 15.9961 44.5039 16.6797 44.6406V44.7227H13.3984V44.6406C14.1914 44.5039 14.7109 44.3398 14.9023 44.2031L21.793 29.1641ZM39.1562 29.1641H41.7812L49.1914 43.4648L56.5742 29.1641H59.0898V29.2461C58.4883 29.3828 58.0781 29.5469 57.8867 29.7109L58.6523 44.2031C58.8438 44.3398 59.2539 44.5039 59.8281 44.6406V44.7227H56.2188V44.6406C56.8203 44.5039 57.2031 44.3398 57.3672 44.2031L56.6016 29.7656C56.6016 29.793 54.0312 34.7695 48.918 44.6953H48.4258C48.3984 44.6953 45.8281 39.7188 40.6602 29.7656L39.8945 44.2031C40.5234 44.4219 40.9609 44.5586 41.207 44.6406V44.7227H38.3906V44.6406L39.5391 44.2031L40.3594 29.7109C40.168 29.5742 39.7578 29.4102 39.1562 29.2461V29.1641ZM69.5898 29.5195L65.2422 39.1172H73.9922L69.5898 29.5195ZM69.3711 29.1641H70.793L77.7109 44.2578C77.8477 44.3398 78.2305 44.4492 78.8594 44.6406V44.7227H75.3594V44.6133C75.7969 44.5312 76.125 44.4219 76.3438 44.2852L74.1289 39.5H65.0781L62.918 44.2578C63.1367 44.3672 63.5742 44.5039 64.2578 44.6406V44.7227H60.9766V44.6406C61.7695 44.5039 62.2891 44.3398 62.4805 44.2031L69.3711 29.1641ZM82.4414 29.5195V37.3125H86.7891C87.9102 37.3125 88.8672 37.0391 89.6875 36.5195C90.5078 36 90.918 35.2617 90.918 34.3594C90.918 33.8398 90.8086 33.293 90.6172 32.6914C90.1797 31.5977 89.6055 30.8047 88.9492 30.2852C88.2383 29.7656 87.5273 29.5195 86.7891 29.5195H82.4414ZM80.0078 29.1641H82.4414H86.7891C88.375 29.1641 89.6875 29.5742 90.7266 30.4219C91.793 31.2695 92.3125 32.1992 92.3398 33.1836C92.3398 33.3203 92.3125 33.457 92.2852 33.5938V33.457C92.2852 34.6328 91.7656 35.6172 90.7266 36.4375C89.6875 37.2031 88.375 37.6133 86.7891 37.6406H85.2031C85.8867 37.832 86.5977 38.2969 87.3906 39.0898C88.1836 39.8828 88.8945 40.6758 89.5234 41.4961C90.1523 42.3164 90.8906 43.0547 91.6836 43.7383C92.4766 44.3945 93.2422 44.7227 93.9258 44.7227H93.9805V44.8867C93.7891 44.9141 93.4336 44.9414 92.9141 44.9414C92.3672 44.9414 91.7656 44.7773 91.082 44.4219C90.4258 44.0938 89.8516 43.6562 89.332 43.1367C88.8398 42.6172 88.3477 42.0703 87.8281 41.4688C87.3086 40.8672 86.8164 40.293 86.3242 39.7461C85.8867 39.1992 85.3398 38.7344 84.7383 38.3516C84.1367 37.9414 83.5078 37.6953 82.8516 37.6406H82.4414V44.2305C82.6328 44.3672 83.043 44.5039 83.6172 44.6406V44.7227H80.0078V44.6406C80.582 44.5039 80.9648 44.3672 81.1562 44.2305V29.7109C80.9648 29.5742 80.582 29.4375 80.0078 29.2734V29.1641ZM93.7891 29.1641H108.336L108.828 31.3516H108.746C108.555 30.6133 107.98 30.0117 107.023 29.5195H101.719V44.2031C101.91 44.3398 102.32 44.5039 102.895 44.6406V44.7227H99.2305V44.6406C99.8594 44.5039 100.27 44.3398 100.461 44.2031V29.5195H95.1016C94.1445 30.0391 93.5977 30.6406 93.4062 31.3516H93.3242L93.7891 29.1641ZM115.473 29.5195L111.125 39.1172H119.875L115.473 29.5195ZM115.254 29.1641H116.676L123.594 44.2578C123.73 44.3398 124.113 44.4492 124.742 44.6406V44.7227H121.242V44.6133C121.68 44.5312 122.008 44.4219 122.227 44.2852L120.012 39.5H110.961L108.801 44.2578C109.02 44.3672 109.457 44.5039 110.141 44.6406V44.7227H106.859V44.6406C107.652 44.5039 108.172 44.3398 108.363 44.2031L115.254 29.1641Z" fill="#513A2B"/>
</svg>
