<svg width="96" height="46" viewBox="0 0 96 46" fill="none" xmlns="http://www.w3.org/2000/svg">
<path d="M7.56055 0H22.1074L22.5996 2.1875H22.5176C22.3262 1.44922 21.752 0.847656 20.7949 0.355469H15.4902V15.0391C15.6816 15.1758 16.0918 15.3398 16.666 15.4766V15.5586H13.002V15.4766C13.6309 15.3398 14.041 15.1758 14.2324 15.0391V0.355469H8.87305C7.91602 0.875 7.36914 1.47656 7.17773 2.1875H7.0957L7.56055 0ZM24.8418 0.0546875H36.5449L37.0645 2.24219H36.9551C36.7637 1.53125 36.2168 0.902344 35.2598 0.382812H27.2754V7.68359H33.1816C33.7012 7.13672 34.002 6.72656 34.0566 6.45312H34.1934V9.21484H34.0566C33.9746 8.96875 33.7559 8.61328 33.3457 8.20312L33.1816 8.01172H27.2754V15.2578H35.9434C36.9004 14.7383 37.4746 14.1094 37.666 13.4258H37.748L37.2559 15.5859H33.4277H24.8418V15.5039C25.4434 15.3672 25.8262 15.2305 25.9902 15.0938V0.601562C25.7988 0.464844 25.416 0.328125 24.8418 0.136719V0.0546875ZM42.3965 0.355469V8.14844H46.7441C47.8652 8.14844 48.8223 7.875 49.6426 7.35547C50.4629 6.83594 50.873 6.09766 50.873 5.19531C50.873 4.67578 50.7637 4.12891 50.5723 3.52734C50.1348 2.43359 49.5605 1.64062 48.9043 1.12109C48.1934 0.601562 47.4824 0.355469 46.7441 0.355469H42.3965ZM39.9629 0H42.3965H46.7441C48.3301 0 49.6426 0.410156 50.6816 1.25781C51.748 2.10547 52.2676 3.03516 52.2949 4.01953C52.2949 4.15625 52.2676 4.29297 52.2402 4.42969V4.29297C52.2402 5.46875 51.7207 6.45312 50.6816 7.27344C49.6426 8.03906 48.3301 8.44922 46.7441 8.47656H45.1582C45.8418 8.66797 46.5527 9.13281 47.3457 9.92578C48.1387 10.7188 48.8496 11.5117 49.4785 12.332C50.1074 13.1523 50.8457 13.8906 51.6387 14.5742C52.4316 15.2305 53.1973 15.5586 53.8809 15.5586H53.9355V15.7227C53.7441 15.75 53.3887 15.7773 52.8691 15.7773C52.3223 15.7773 51.7207 15.6133 51.0371 15.2578C50.3809 14.9297 49.8066 14.4922 49.2871 13.9727C48.7949 13.4531 48.3027 12.9062 47.7832 12.3047C47.2637 11.7031 46.7715 11.1289 46.2793 10.582C45.8418 10.0352 45.2949 9.57031 44.6934 9.1875C44.0918 8.77734 43.4629 8.53125 42.8066 8.47656H42.3965V15.0664C42.5879 15.2031 42.998 15.3398 43.5723 15.4766V15.5586H39.9629V15.4766C40.5371 15.3398 40.9199 15.2031 41.1113 15.0664V0.546875C40.9199 0.410156 40.5371 0.273438 39.9629 0.109375V0ZM58.584 0.355469V8.14844H62.9316C64.0527 8.14844 65.0098 7.875 65.8301 7.35547C66.6504 6.83594 67.0605 6.09766 67.0605 5.19531C67.0605 4.67578 66.9512 4.12891 66.7598 3.52734C66.3223 2.43359 65.748 1.64062 65.0918 1.12109C64.3809 0.601562 63.6699 0.355469 62.9316 0.355469H58.584ZM56.1504 0H58.584H62.9316C64.5176 0 65.8301 0.410156 66.8691 1.25781C67.9355 2.10547 68.4551 3.03516 68.4824 4.01953C68.4824 4.15625 68.4551 4.29297 68.4277 4.42969V4.29297C68.4277 5.46875 67.9082 6.45312 66.8691 7.27344C65.8301 8.03906 64.5176 8.44922 62.9316 8.47656H61.3457C62.0293 8.66797 62.7402 9.13281 63.5332 9.92578C64.3262 10.7188 65.0371 11.5117 65.666 12.332C66.2949 13.1523 67.0332 13.8906 67.8262 14.5742C68.6191 15.2305 69.3848 15.5586 70.0684 15.5586H70.123V15.7227C69.9316 15.75 69.5762 15.7773 69.0566 15.7773C68.5098 15.7773 67.9082 15.6133 67.2246 15.2578C66.5684 14.9297 65.9941 14.4922 65.4746 13.9727C64.9824 13.4531 64.4902 12.9062 63.9707 12.3047C63.4512 11.7031 62.959 11.1289 62.4668 10.582C62.0293 10.0352 61.4824 9.57031 60.8809 9.1875C60.2793 8.77734 59.6504 8.53125 58.9941 8.47656H58.584V15.0664C58.7754 15.2031 59.1855 15.3398 59.7598 15.4766V15.5586H56.1504V15.4766C56.7246 15.3398 57.1074 15.2031 57.2988 15.0664V0.546875C57.1074 0.410156 56.7246 0.273438 56.1504 0.109375V0ZM79.3105 0.355469L74.9629 9.95312H83.7129L79.3105 0.355469ZM79.0918 0H80.5137L87.4316 15.0938C87.5684 15.1758 87.9512 15.2852 88.5801 15.4766V15.5586H85.0801V15.4492C85.5176 15.3672 85.8457 15.2578 86.0645 15.1211L83.8496 10.3359H74.7988L72.6387 15.0938C72.8574 15.2031 73.2949 15.3398 73.9785 15.4766V15.5586H70.6973V15.4766C71.4902 15.3398 72.0098 15.1758 72.2012 15.0391L79.0918 0ZM11.6758 30.2852L10.8008 31.4062C10.3633 30.6953 9.65234 30.1484 8.69531 29.793C7.73828 29.4375 6.69922 29.2461 5.57812 29.2461C4.45703 29.2461 3.5 29.5195 2.70703 30.0938C1.88672 30.6406 1.47656 31.3516 1.47656 32.2539C1.47656 33.4844 2.1875 34.332 3.60938 34.8516C4.23828 35.0977 4.92188 35.2891 5.6875 35.4805C6.45312 35.6719 7.21875 35.8633 7.98438 36.082C8.75 36.3008 9.43359 36.5742 10.0625 36.9297C10.6914 37.2578 11.1836 37.75 11.5664 38.3516C11.9766 39.0078 12.168 39.7461 12.168 40.5938C12.168 41.9336 11.5664 43.0273 10.3086 43.8203C9.10547 44.6406 7.57422 45.0508 5.79688 45.0508C4.78516 45.0508 3.74609 44.9141 2.67969 44.6406C1.61328 44.3945 0.710938 44.0117 0 43.5469L0.957031 42.2891C1.47656 43.0547 2.26953 43.6289 3.28125 44.0391C4.29297 44.4219 5.41406 44.6133 6.61719 44.6133C7.82031 44.6133 8.88672 44.3125 9.78906 43.6836C10.6914 43.0547 11.1562 42.3164 11.1562 41.4141C11.1562 40.5117 10.9648 39.7734 10.582 39.1992C10.1719 38.625 9.65234 38.1602 9.05078 37.8594C8.39453 37.5312 7.71094 37.2578 6.94531 37.0391C6.17969 36.8477 5.41406 36.6289 4.64844 36.4375C3.88281 36.2461 3.19922 36 2.57031 35.7812C1.94141 35.5078 1.44922 35.1523 1.03906 34.6875C0.628906 34.1953 0.4375 33.5938 0.4375 32.8828C0.4375 31.6797 0.984375 30.6953 2.07812 29.957C3.17188 29.2188 4.53906 28.8359 6.20703 28.8359C7.13672 28.8359 8.12109 28.9453 9.10547 29.1914C10.1445 29.4375 10.9922 29.793 11.6758 30.2852ZM14.4102 29.0547H26.1133L26.6328 31.2422H26.5234C26.332 30.5312 25.7852 29.9023 24.8281 29.3828H16.8438V36.6836H22.75C23.2695 36.1367 23.5703 35.7266 23.625 35.4531H23.7617V38.2148H23.625C23.543 37.9688 23.3242 37.6133 22.9141 37.2031L22.75 37.0117H16.8438V44.2578H25.5117C26.4688 43.7383 27.043 43.1094 27.2344 42.4258H27.3164L26.8242 44.5859H22.9961H14.4102V44.5039C15.0117 44.3672 15.3945 44.2305 15.5586 44.0938V29.6016C15.3672 29.4648 14.9844 29.3281 14.4102 29.1367V29.0547ZM31.9648 29.3555V37.1484H36.3125C37.4336 37.1484 38.3906 36.875 39.2109 36.3555C40.0312 35.8359 40.4414 35.0977 40.4414 34.1953C40.4414 33.6758 40.332 33.1289 40.1406 32.5273C39.7031 31.4336 39.1289 30.6406 38.4727 30.1211C37.7617 29.6016 37.0508 29.3555 36.3125 29.3555H31.9648ZM29.5312 29H31.9648H36.3125C37.8984 29 39.2109 29.4102 40.25 30.2578C41.3164 31.1055 41.8359 32.0352 41.8633 33.0195C41.8633 33.1562 41.8359 33.293 41.8086 33.4297V33.293C41.8086 34.4688 41.2891 35.4531 40.25 36.2734C39.2109 37.0391 37.8984 37.4492 36.3125 37.4766H34.7266C35.4102 37.668 36.1211 38.1328 36.9141 38.9258C37.707 39.7188 38.418 40.5117 39.0469 41.332C39.6758 42.1523 40.4141 42.8906 41.207 43.5742C42 44.2305 42.7656 44.5586 43.4492 44.5586H43.5039V44.7227C43.3125 44.75 42.957 44.7773 42.4375 44.7773C41.8906 44.7773 41.2891 44.6133 40.6055 44.2578C39.9492 43.9297 39.375 43.4922 38.8555 42.9727C38.3633 42.4531 37.8711 41.9062 37.3516 41.3047C36.832 40.7031 36.3398 40.1289 35.8477 39.582C35.4102 39.0352 34.8633 38.5703 34.2617 38.1875C33.6602 37.7773 33.0312 37.5312 32.375 37.4766H31.9648V44.0664C32.1562 44.2031 32.5664 44.3398 33.1406 44.4766V44.5586H29.5312V44.4766C30.1055 44.3398 30.4883 44.2031 30.6797 44.0664V29.5469C30.4883 29.4102 30.1055 29.2734 29.5312 29.1094V29ZM45.7188 29.0547H57.4219L57.9414 31.2422H57.832C57.6406 30.5312 57.0938 29.9023 56.1367 29.3828H48.1523V36.6836H54.0586C54.5781 36.1367 54.8789 35.7266 54.9336 35.4531H55.0703V38.2148H54.9336C54.8516 37.9688 54.6328 37.6133 54.2227 37.2031L54.0586 37.0117H48.1523V44.2578H56.8203C57.7773 43.7383 58.3516 43.1094 58.543 42.4258H58.625L58.1328 44.5859H54.3047H45.7188V44.5039C46.3203 44.3672 46.7031 44.2305 46.8672 44.0938V29.6016C46.6758 29.4648 46.293 29.3281 45.7188 29.1367V29.0547ZM60.8398 29H63.7383L75.0859 42.8633V29.5469C74.5391 29.3281 74.1289 29.1641 73.8828 29.082V29H76.6719V29.082L75.4961 29.5469V44.5312H74.7852L62.4805 29.5469H62.3984V44.0391C62.918 44.2578 63.3281 44.3945 63.5742 44.4766V44.5586H60.8398V44.4766L62.0156 44.0391V29.5469C61.8242 29.4102 61.4141 29.2461 60.8398 29.082V29ZM86.4062 29.3555L82.0586 38.9531H90.8086L86.4062 29.3555ZM86.1875 29H87.6094L94.5273 44.0938C94.6641 44.1758 95.0469 44.2852 95.6758 44.4766V44.5586H92.1758V44.4492C92.6133 44.3672 92.9414 44.2578 93.1602 44.1211L90.9453 39.3359H81.8945L79.7344 44.0938C79.9531 44.2031 80.3906 44.3398 81.0742 44.4766V44.5586H77.793V44.4766C78.5859 44.3398 79.1055 44.1758 79.2969 44.0391L86.1875 29Z" fill="#513A2B"/>
</svg>
