<svg xmlns="http://www.w3.org/2000/svg" version="1.1" xmlns:xlink="http://www.w3.org/1999/xlink" width="1000" height="1000"><metadata><rdf:RDF xmlns:rdf="http://www.w3.org/1999/02/22-rdf-syntax-ns#" xmlns:dc="http://purl.org/dc/elements/1.1/"><rdf:Description><dc:creator>RealFaviconGenerator</dc:creator><dc:source>https://realfavicongenerator.net</dc:source></rdf:Description></rdf:RDF></metadata><style>
    #light-icon {
      display: inline;
    }
    #dark-icon {
      display: none;
    }

    @media (prefers-color-scheme: dark) {
      #light-icon {
        display: none;
      }
      #dark-icon {
        display: inline;
      }
    }
  </style><g id="light-icon"><svg xmlns="http://www.w3.org/2000/svg" version="1.1" xmlns:xlink="http://www.w3.org/1999/xlink" width="1000" height="1000"><g><g transform="matrix(29.41176470588235,0,0,29.41176470588235,0,29.411764705882376)"><svg xmlns="http://www.w3.org/2000/svg" width="34" height="32" viewBox="0 0 34 32" fill="none"><path d="M18.801 31.9637H18.778L18.567 31.3925L18.3825 31.9637H18.358L18.1909 31.4241C18.1759 31.3751 18.165 31.3426 18.1582 31.3266C18.1518 31.3102 18.1431 31.2983 18.1322 31.2908C18.1216 31.283 18.1039 31.2785 18.079 31.2775V31.254H18.3391V31.2775C18.3078 31.2795 18.2877 31.2841 18.2788 31.2913C18.27 31.2981 18.2655 31.3078 18.2655 31.3204C18.2655 31.3317 18.2727 31.3605 18.287 31.4068L18.4106 31.8104L18.5915 31.254H18.6201L18.8235 31.8104L18.9293 31.4425C18.9432 31.3928 18.9502 31.3603 18.9502 31.345C18.9502 31.3 18.9262 31.2775 18.8782 31.2775V31.254H19.0672V31.2775C19.0393 31.2795 19.0185 31.2899 19.0049 31.3087C18.9913 31.3271 18.9741 31.3715 18.9533 31.442L18.801 31.9637Z" fill="#374432"></path><path d="M17.6716 31.6239C17.6508 31.6491 17.6286 31.668 17.6051 31.6806C17.5816 31.6933 17.5569 31.6996 17.531 31.6996C17.4759 31.6996 17.4282 31.6788 17.388 31.6372C17.3481 31.5953 17.3282 31.5432 17.3282 31.4809C17.3282 31.4216 17.3476 31.3702 17.3864 31.3266C17.4253 31.2826 17.4748 31.2606 17.5351 31.2606C17.5862 31.2606 17.6293 31.2768 17.6644 31.3092C17.6995 31.3415 17.724 31.3821 17.738 31.4308C17.7523 31.4792 17.7594 31.5296 17.7594 31.582C17.7594 31.69 17.7356 31.7806 17.6879 31.8539C17.6406 31.9271 17.577 31.9637 17.4973 31.9637C17.4599 31.9637 17.4268 31.9555 17.3982 31.9392C17.3696 31.9228 17.3553 31.9046 17.3553 31.8845C17.3553 31.8654 17.3652 31.8559 17.3849 31.8559C17.4016 31.8559 17.4159 31.8673 17.4278 31.8901C17.4442 31.9222 17.4719 31.9382 17.5111 31.9382C17.5649 31.9382 17.6053 31.9143 17.6322 31.8666C17.6591 31.8186 17.6726 31.7469 17.6726 31.6515C17.6726 31.6437 17.6722 31.6345 17.6716 31.6239ZM17.6741 31.488C17.6741 31.455 17.6695 31.4223 17.6603 31.3899C17.6511 31.3572 17.6356 31.3315 17.6138 31.3128C17.592 31.294 17.5677 31.2847 17.5408 31.2847C17.4982 31.2847 17.4662 31.3017 17.4447 31.3358C17.4236 31.3695 17.413 31.4204 17.413 31.4885C17.413 31.5315 17.4171 31.565 17.4253 31.5892C17.4335 31.613 17.4481 31.633 17.4692 31.649C17.4907 31.665 17.5145 31.673 17.5408 31.673C17.5762 31.673 17.6072 31.6597 17.6337 31.6331C17.6607 31.6062 17.6741 31.5579 17.6741 31.488Z" fill="#374432"></path><path d="M16.5671 31.4012L16.6101 31.2606H16.6279C16.6286 31.2675 16.6313 31.2721 16.6361 31.2744C16.6412 31.2765 16.6547 31.2775 16.6765 31.2775H16.9412L16.7577 31.8365C16.7376 31.8978 16.7223 31.9344 16.7117 31.9463C16.7015 31.9579 16.691 31.9637 16.6801 31.9637C16.6596 31.9637 16.6494 31.9532 16.6494 31.932C16.6494 31.9194 16.6589 31.8927 16.678 31.8518C16.6831 31.8413 16.6874 31.8317 16.6908 31.8232L16.8967 31.345H16.6785C16.6492 31.345 16.6317 31.3456 16.6259 31.347C16.6201 31.348 16.6147 31.3518 16.6095 31.3582C16.6044 31.3644 16.598 31.3787 16.5901 31.4012H16.5671Z" fill="#374432"></path><path d="M16.0299 31.9085C16.0299 31.8935 16.0352 31.8808 16.0457 31.8702C16.0566 31.8593 16.0696 31.8539 16.0845 31.8539C16.0999 31.8539 16.1128 31.8593 16.1234 31.8702C16.1343 31.8808 16.1397 31.8935 16.1397 31.9085C16.1397 31.9239 16.1343 31.9368 16.1234 31.9474C16.1125 31.9583 16.0995 31.9637 16.0845 31.9637C16.0692 31.9637 16.0563 31.9581 16.0457 31.9469C16.0352 31.936 16.0299 31.9232 16.0299 31.9085Z" fill="#374432"></path><path d="M15.2034 31.6122C15.2034 31.5056 15.2235 31.4204 15.2637 31.3567C15.3042 31.2927 15.3572 31.2606 15.4226 31.2606C15.488 31.2606 15.5408 31.2928 15.581 31.3572C15.6215 31.4213 15.6418 31.5062 15.6418 31.6122C15.6418 31.7174 15.6217 31.8024 15.5815 31.8671C15.5413 31.9315 15.4884 31.9637 15.4226 31.9637C15.3572 31.9637 15.3042 31.9317 15.2637 31.8677C15.2235 31.8033 15.2034 31.7181 15.2034 31.6122ZM15.2882 31.6122C15.2882 31.7535 15.3 31.8435 15.3235 31.882C15.3473 31.9201 15.3804 31.9392 15.4226 31.9392C15.4723 31.9392 15.5071 31.9164 15.5268 31.8707C15.5466 31.8247 15.5565 31.7386 15.5565 31.6122C15.5565 31.4705 15.5446 31.3805 15.5207 31.3424C15.4972 31.3042 15.4645 31.2852 15.4226 31.2852C15.3807 31.2852 15.3478 31.3042 15.324 31.3424C15.3001 31.3802 15.2882 31.4701 15.2882 31.6122Z" fill="#374432"></path><path d="M14.4081 31.6122C14.4081 31.5056 14.4282 31.4204 14.4684 31.3567C14.5089 31.2927 14.5619 31.2606 14.6273 31.2606C14.6927 31.2606 14.7455 31.2928 14.7857 31.3572C14.8262 31.4213 14.8465 31.5062 14.8465 31.6122C14.8465 31.7174 14.8264 31.8024 14.7862 31.8671C14.746 31.9315 14.6931 31.9637 14.6273 31.9637C14.5619 31.9637 14.5089 31.9317 14.4684 31.8677C14.4282 31.8033 14.4081 31.7181 14.4081 31.6122ZM14.4929 31.6122C14.4929 31.7535 14.5047 31.8435 14.5282 31.882C14.552 31.9201 14.5851 31.9392 14.6273 31.9392C14.677 31.9392 14.7118 31.9164 14.7315 31.8707C14.7513 31.8247 14.7612 31.7386 14.7612 31.6122C14.7612 31.4705 14.7493 31.3805 14.7254 31.3424C14.7019 31.3042 14.6692 31.2852 14.6273 31.2852C14.5854 31.2852 14.5525 31.3042 14.5287 31.3424C14.5049 31.3802 14.4929 31.4701 14.4929 31.6122Z" fill="#374432"></path><path d="M13.8494 31.2606H13.8719V31.8033C13.8719 31.8479 13.8724 31.876 13.8734 31.8876C13.8748 31.8992 13.8797 31.908 13.8882 31.9142C13.8967 31.9203 13.9119 31.9234 13.9337 31.9234H13.9536V31.9469H13.7237V31.9234H13.7406C13.7651 31.9234 13.7809 31.92 13.7881 31.9131C13.7956 31.906 13.7998 31.8976 13.8008 31.8881C13.8022 31.8782 13.8029 31.8499 13.8029 31.8033V31.4395C13.8029 31.3935 13.8024 31.3657 13.8014 31.3562C13.8003 31.3463 13.7959 31.3378 13.7881 31.3306C13.7806 31.3232 13.7647 31.3194 13.7406 31.3194H13.7186V31.2959C13.7775 31.2949 13.8211 31.2831 13.8494 31.2606Z" fill="#374432"></path><path d="M12.6226 31.9627L12.1326 31.3133V31.7941C12.1326 31.8339 12.1345 31.8602 12.1382 31.8728C12.1423 31.8854 12.1535 31.897 12.1719 31.9075C12.1903 31.9181 12.2179 31.9234 12.2547 31.9234V31.9469H11.9962V31.9234C12.0292 31.921 12.0544 31.915 12.0718 31.9055C12.0892 31.8956 12.0994 31.885 12.1024 31.8738C12.1058 31.8626 12.1076 31.836 12.1076 31.7941V31.4267C12.1076 31.3736 12.105 31.338 12.0999 31.3199C12.0951 31.3019 12.0873 31.2903 12.0764 31.2852C12.0658 31.2801 12.042 31.2775 12.0049 31.2775V31.254H12.2092L12.6195 31.7961V31.3817C12.6195 31.3511 12.6163 31.3296 12.6098 31.3174C12.6037 31.3051 12.5909 31.2954 12.5715 31.2882C12.5521 31.2811 12.5288 31.2775 12.5015 31.2775V31.254H12.7529V31.2775C12.7236 31.2799 12.7004 31.2855 12.6834 31.2944C12.6667 31.3032 12.656 31.314 12.6512 31.3266C12.6468 31.3388 12.6446 31.3598 12.6446 31.3894V31.9627H12.6226Z" fill="#374432"></path><path d="M11.4431 31.5749C11.4536 31.5718 11.4642 31.5703 11.4747 31.5703C11.5248 31.5703 11.5642 31.5875 11.5928 31.6219C11.6217 31.656 11.6362 31.6989 11.6362 31.7507C11.6362 31.813 11.6149 31.8641 11.5723 31.9039C11.5298 31.9438 11.4749 31.9637 11.4078 31.9637C11.3628 31.9637 11.3242 31.9535 11.2918 31.9331C11.2595 31.9126 11.2433 31.8907 11.2433 31.8671C11.2433 31.8573 11.2463 31.8489 11.2525 31.8421C11.2586 31.835 11.2666 31.8314 11.2765 31.8314C11.2942 31.8314 11.3068 31.8435 11.3143 31.8677C11.3238 31.8987 11.3375 31.9186 11.3552 31.9274C11.3726 31.9366 11.3898 31.9412 11.4068 31.9412C11.4497 31.9412 11.4845 31.9256 11.511 31.8942C11.5379 31.8629 11.5514 31.8144 11.5514 31.7486C11.5514 31.6958 11.5413 31.6565 11.5212 31.6306C11.5015 31.6047 11.478 31.5917 11.4507 31.5917C11.4272 31.5917 11.4013 31.606 11.3731 31.6347C11.3683 31.6398 11.3634 31.6423 11.3582 31.6423C11.348 31.6423 11.3429 31.6369 11.3429 31.626C11.3429 31.6212 11.3455 31.6163 11.3506 31.6112C11.356 31.6057 11.371 31.5946 11.3955 31.5779C11.4494 31.5415 11.485 31.5112 11.5023 31.487C11.5197 31.4628 11.5284 31.4323 11.5284 31.3955C11.5284 31.3604 11.5194 31.3334 11.5013 31.3143C11.4833 31.2949 11.4592 31.2852 11.4293 31.2852C11.3986 31.2852 11.3714 31.295 11.3475 31.3148C11.324 31.3342 11.3123 31.3591 11.3123 31.3894C11.3123 31.4136 11.3226 31.4362 11.3434 31.4574C11.3458 31.4597 11.347 31.4618 11.347 31.4635C11.347 31.4679 11.3414 31.4727 11.3301 31.4778C11.3189 31.4829 11.3107 31.4855 11.3056 31.4855C11.2951 31.4855 11.2852 31.4775 11.276 31.4614C11.2668 31.4454 11.2622 31.4281 11.2622 31.4093C11.2622 31.3715 11.2785 31.3373 11.3112 31.3066C11.3439 31.276 11.3877 31.2606 11.4426 31.2606C11.4988 31.2606 11.5412 31.2736 11.5698 31.2995C11.5987 31.325 11.6132 31.3536 11.6132 31.3853C11.6132 31.4132 11.6033 31.4393 11.5836 31.4635C11.5642 31.4873 11.5311 31.5149 11.4845 31.5463L11.4431 31.5749Z" fill="#374432"></path><path d="M10.6478 31.5749C10.6583 31.5718 10.6689 31.5703 10.6794 31.5703C10.7295 31.5703 10.7689 31.5875 10.7975 31.6219C10.8264 31.656 10.8409 31.6989 10.8409 31.7507C10.8409 31.813 10.8196 31.8641 10.777 31.9039C10.7345 31.9438 10.6796 31.9637 10.6125 31.9637C10.5675 31.9637 10.5289 31.9535 10.4965 31.9331C10.4642 31.9126 10.448 31.8907 10.448 31.8671C10.448 31.8573 10.451 31.8489 10.4572 31.8421C10.4633 31.835 10.4713 31.8314 10.4812 31.8314C10.4989 31.8314 10.5115 31.8435 10.519 31.8677C10.5285 31.8987 10.5422 31.9186 10.5599 31.9274C10.5773 31.9366 10.5945 31.9412 10.6115 31.9412C10.6544 31.9412 10.6892 31.9256 10.7157 31.8942C10.7426 31.8629 10.7561 31.8144 10.7561 31.7486C10.7561 31.6958 10.746 31.6565 10.7259 31.6306C10.7062 31.6047 10.6827 31.5917 10.6554 31.5917C10.6319 31.5917 10.606 31.606 10.5778 31.6347C10.573 31.6398 10.5681 31.6423 10.5629 31.6423C10.5527 31.6423 10.5476 31.6369 10.5476 31.626C10.5476 31.6212 10.5502 31.6163 10.5553 31.6112C10.5607 31.6057 10.5757 31.5946 10.6002 31.5779C10.6541 31.5415 10.6897 31.5112 10.707 31.487C10.7244 31.4628 10.7331 31.4323 10.7331 31.3955C10.7331 31.3604 10.7241 31.3334 10.706 31.3143C10.688 31.2949 10.6639 31.2852 10.634 31.2852C10.6033 31.2852 10.5761 31.295 10.5522 31.3148C10.5287 31.3342 10.517 31.3591 10.517 31.3894C10.517 31.4136 10.5274 31.4362 10.5481 31.4574C10.5505 31.4597 10.5517 31.4618 10.5517 31.4635C10.5517 31.4679 10.5461 31.4727 10.5348 31.4778C10.5236 31.4829 10.5154 31.4855 10.5103 31.4855C10.4998 31.4855 10.4899 31.4775 10.4807 31.4614C10.4715 31.4454 10.4669 31.4281 10.4669 31.4093C10.4669 31.3715 10.4832 31.3373 10.5159 31.3066C10.5486 31.276 10.5924 31.2606 10.6473 31.2606C10.7035 31.2606 10.7459 31.2736 10.7745 31.2995C10.8034 31.325 10.8179 31.3536 10.8179 31.3853C10.8179 31.4132 10.808 31.4393 10.7883 31.4635C10.7689 31.4873 10.7358 31.5149 10.6892 31.5463L10.6478 31.5749Z" fill="#374432"></path><path d="M9.92912 31.9085C9.92912 31.8935 9.9344 31.8808 9.94495 31.8702C9.95586 31.8593 9.9688 31.8539 9.98379 31.8539C9.99912 31.8539 10.0121 31.8593 10.0226 31.8702C10.0335 31.8808 10.039 31.8935 10.039 31.9085C10.039 31.9239 10.0335 31.9368 10.0226 31.9474C10.0117 31.9583 9.99878 31.9637 9.98379 31.9637C9.96846 31.9637 9.95551 31.9581 9.94495 31.9469C9.9344 31.936 9.92912 31.9232 9.92912 31.9085Z" fill="#374432"></path><path d="M9.19616 31.5953H9.16959L9.18492 31.2775H9.4501C9.43546 31.3119 9.42473 31.3318 9.41791 31.3373C9.41144 31.3427 9.40003 31.3455 9.38368 31.3455H9.20433L9.19616 31.557C9.23056 31.5131 9.2728 31.4911 9.32287 31.4911C9.37601 31.4911 9.42132 31.5124 9.45879 31.555C9.4966 31.5975 9.51551 31.6503 9.51551 31.7134C9.51551 31.7859 9.49422 31.8459 9.45164 31.8932C9.4094 31.9402 9.35013 31.9637 9.27382 31.9637C9.22068 31.9637 9.1793 31.9515 9.14966 31.9269C9.12002 31.9021 9.10521 31.8796 9.10521 31.8595C9.10521 31.8506 9.1081 31.843 9.11389 31.8365C9.12002 31.83 9.1282 31.8268 9.13842 31.8268C9.14966 31.8268 9.15818 31.8302 9.16397 31.837C9.16976 31.8435 9.17657 31.8571 9.1844 31.8779C9.19973 31.9201 9.23022 31.9412 9.27587 31.9412C9.31947 31.9412 9.35609 31.9237 9.38572 31.8886C9.4157 31.8535 9.43069 31.7965 9.43069 31.7174C9.43069 31.6462 9.41842 31.5957 9.3939 31.5657C9.36937 31.5357 9.34042 31.5207 9.30703 31.5207C9.26003 31.5207 9.22307 31.5456 9.19616 31.5953Z" fill="#374432"></path><path d="M8.3232 31.9469V31.9152C8.36203 31.8849 8.41108 31.837 8.47035 31.7716C8.52996 31.7059 8.57288 31.6491 8.59911 31.6015C8.62534 31.5538 8.63846 31.5056 8.63846 31.4569C8.63846 31.3986 8.62517 31.3559 8.5986 31.3286C8.57203 31.301 8.53899 31.2872 8.49948 31.2872C8.46064 31.2872 8.4305 31.2998 8.40904 31.325C8.38792 31.3502 8.37736 31.3771 8.37736 31.4058C8.37736 31.4385 8.39115 31.4643 8.41874 31.4834C8.42896 31.4906 8.43407 31.496 8.43407 31.4998C8.43407 31.5059 8.42828 31.5142 8.4167 31.5248C8.40512 31.5354 8.39558 31.5406 8.38809 31.5406C8.37787 31.5406 8.36543 31.5304 8.35079 31.51C8.33648 31.4892 8.32933 31.4626 8.32933 31.4303C8.32933 31.3782 8.34959 31.3369 8.39013 31.3066C8.43067 31.276 8.47512 31.2606 8.52349 31.2606C8.57459 31.2606 8.62057 31.2765 8.66145 31.3082C8.70267 31.3398 8.72327 31.3868 8.72327 31.4492C8.72327 31.4884 8.71408 31.5257 8.69568 31.5611C8.67729 31.5962 8.6325 31.65 8.5613 31.7225C8.49045 31.7948 8.43339 31.8491 8.39013 31.8855H8.7151L8.68598 32H8.66196C8.66196 31.9939 8.66298 31.9877 8.66503 31.9816C8.66605 31.9782 8.66656 31.9736 8.66656 31.9678C8.66656 31.9576 8.66434 31.9515 8.65992 31.9494C8.65549 31.9477 8.64357 31.9469 8.62415 31.9469H8.3232Z" fill="#374432"></path><path d="M9.62994 4.38464H9.26818V4.55172C9.26818 4.60623 9.26954 4.64199 9.27227 4.65902C9.27499 4.67572 9.28181 4.68815 9.29271 4.69632C9.30395 4.7045 9.32507 4.70859 9.35606 4.70859H9.37395V4.73209H9.06226V4.70859H9.08015C9.10978 4.70859 9.13022 4.70484 9.14146 4.69735C9.15304 4.68985 9.16037 4.67827 9.16343 4.6626C9.16684 4.64659 9.16854 4.60963 9.16854 4.55172V4.21194C9.16854 4.15675 9.16684 4.12116 9.16343 4.10515C9.16037 4.08914 9.15355 4.07807 9.14299 4.07193C9.13278 4.0658 9.11012 4.06274 9.07504 4.06274H9.06226V4.03923H9.37395V4.06274H9.36117C9.32745 4.06274 9.30531 4.06563 9.29475 4.07142C9.28419 4.07687 9.27704 4.08726 9.27329 4.10259C9.26988 4.11792 9.26818 4.15437 9.26818 4.21194V4.34938H9.62994V4.21194C9.62994 4.15675 9.6284 4.12116 9.62534 4.10515C9.62227 4.08914 9.61546 4.07807 9.6049 4.07193C9.59468 4.0658 9.57203 4.06274 9.53694 4.06274H9.51855V4.03923H9.83381V4.06274H9.82359C9.78953 4.06274 9.76721 4.06563 9.75666 4.07142C9.7461 4.07687 9.73894 4.08726 9.7352 4.10259C9.73179 4.11792 9.73009 4.15437 9.73009 4.21194V4.55172C9.73009 4.60623 9.73128 4.64199 9.73366 4.65902C9.73639 4.67572 9.74337 4.68815 9.75461 4.69632C9.76585 4.7045 9.78697 4.70859 9.81797 4.70859H9.83381V4.73209H9.51855V4.70859H9.54256C9.57186 4.70859 9.59213 4.70484 9.60337 4.69735C9.61495 4.68985 9.62227 4.67827 9.62534 4.6626C9.6284 4.64659 9.62994 4.60963 9.62994 4.55172V4.38464Z" fill="#374432"></path><path d="M8.49996 4.47661H8.23682L8.21894 4.52055C8.19237 4.58425 8.17908 4.62581 8.17908 4.64523C8.17908 4.66601 8.18607 4.68185 8.20003 4.69275C8.21434 4.70331 8.23256 4.70859 8.2547 4.70859V4.73209H8.04879V4.70859C8.07945 4.70382 8.10227 4.69309 8.11726 4.6764C8.13225 4.65937 8.1503 4.62377 8.17142 4.56961C8.17312 4.5645 8.1813 4.54474 8.19594 4.51034L8.39726 4.02952H8.41719L8.64865 4.57983L8.68033 4.65238C8.68749 4.66873 8.69702 4.68168 8.70895 4.69122C8.72121 4.70041 8.73943 4.7062 8.76362 4.70859V4.73209H8.49128V4.70859C8.52466 4.70859 8.54714 4.7062 8.55872 4.70143C8.57065 4.69632 8.57661 4.68645 8.57661 4.6718C8.57661 4.6643 8.56877 4.64199 8.5531 4.60486L8.49996 4.47661ZM8.49128 4.45362L8.36865 4.15829L8.24653 4.45362H8.49128Z" fill="#374432"></path><path d="M7.02765 4.38106C7.02765 4.2741 7.06342 4.18826 7.13495 4.12354C7.20648 4.05882 7.29573 4.02646 7.40269 4.02646C7.51068 4.02646 7.60077 4.05848 7.67299 4.12252C7.74555 4.18656 7.78182 4.27393 7.78182 4.38464C7.78182 4.49194 7.74708 4.5788 7.67759 4.64523C7.60844 4.71165 7.51732 4.74487 7.40423 4.74487C7.2942 4.74487 7.20393 4.71165 7.13342 4.64523C7.06291 4.5788 7.02765 4.49075 7.02765 4.38106ZM7.14466 4.38464C7.14466 4.49603 7.1668 4.57966 7.21108 4.63552C7.25571 4.69139 7.32247 4.71932 7.41138 4.71932C7.48939 4.71932 7.55104 4.69139 7.59635 4.63552C7.64165 4.57966 7.6643 4.49637 7.6643 4.38566C7.6643 4.27802 7.64199 4.19559 7.59737 4.13836C7.55274 4.08079 7.48802 4.05201 7.4032 4.05201C7.31975 4.05201 7.25571 4.08011 7.21108 4.13631C7.1668 4.19218 7.14466 4.27495 7.14466 4.38464Z" fill="#374432"></path><path d="M6.61097 4.47201H6.63294V4.71472H6.61097C6.60484 4.68713 6.59377 4.66277 6.57776 4.64165C6.51679 4.71046 6.43895 4.74487 6.34425 4.74487C6.24411 4.74487 6.16218 4.71319 6.09848 4.64983C6.03512 4.58647 6.00344 4.50267 6.00344 4.39844C6.00344 4.32997 6.01809 4.26559 6.04739 4.20529C6.07668 4.14466 6.11756 4.0997 6.17002 4.0704C6.22248 4.04111 6.28004 4.02646 6.34272 4.02646C6.3945 4.02646 6.44134 4.03719 6.48323 4.05865C6.52547 4.07977 6.55698 4.10327 6.57776 4.12916C6.59241 4.10021 6.60127 4.07023 6.60433 4.03923H6.62681L6.63294 4.30186H6.61097C6.59564 4.20853 6.56431 4.14364 6.51696 4.10719C6.46995 4.07074 6.41681 4.05252 6.35754 4.05252C6.28498 4.05252 6.22724 4.08198 6.18432 4.14091C6.14174 4.19984 6.12045 4.28415 6.12045 4.39384C6.12045 4.49773 6.14379 4.57744 6.19046 4.63297C6.23712 4.68815 6.2952 4.71574 6.36469 4.71574C6.40182 4.71574 6.4398 4.70671 6.47864 4.68866C6.51747 4.67061 6.54813 4.64012 6.57061 4.5972C6.59343 4.55394 6.60689 4.51221 6.61097 4.47201Z" fill="#374432"></path><path d="M7.91118 18.4594L15.9745 0.659265L24.1392 18.4594L24.4621 19.1324L28.5005 28.0441C28.0948 28.2977 27.4863 28.5005 26.6749 28.6527V28.8555H33.1661V28.7034C31.9997 28.3484 31.2897 28.1455 31.0361 27.9934L18.2058 0H15.5688L2.7892 27.892C2.43421 28.1455 1.47067 28.4498 0 28.7034V28.8555H6.08552V28.7034C4.8177 28.4498 4.0063 28.1962 3.6006 27.9934L7.6069 19.1694L7.91118 18.4594Z" fill="#374432"></path><path d="M13.816 18.125C14.5285 17.7604 15.6745 17.9972 16.1918 18.1044C16.226 18.1112 16.258 18.1176 16.2875 18.1232C16.8383 18.2371 16.8186 18.3148 17.2261 18.5046C17.6278 18.7008 18.0283 18.6749 18.5069 18.9468C18.9795 19.2192 19.0025 19.3573 19.5451 19.6179C19.6616 19.6717 19.7788 19.7266 19.8758 19.7576C20.2928 19.8862 20.7094 19.9567 20.9218 19.9505C21.1951 19.9391 21.2121 20.0612 21.6019 20.0729C21.9011 20.0825 22.1096 20.1113 22.3404 20.1653C22.4128 20.1822 22.4824 20.2007 22.5618 20.2226C22.8976 20.3042 23.9092 20.5675 24.2852 20.6548C24.6667 20.726 25.0392 20.9697 25.2779 21.0641C25.3523 21.0938 25.411 21.1178 25.4563 21.137C25.4755 21.1452 25.4831 21.1547 25.4816 21.1623L25.4776 21.1686C25.4709 21.1742 25.4567 21.177 25.4366 21.1733C25.3081 21.1508 25.117 21.1029 24.8912 21.056C24.4698 20.9717 24.4543 20.8791 23.8992 20.7474C23.3418 20.6263 22.9972 20.6203 22.3456 20.4766C22.3293 20.4732 22.3131 20.4699 22.2973 20.4668C21.6768 20.3478 21.4967 20.523 20.5687 20.3128C20.2156 20.2275 19.9768 20.1778 19.763 20.134C19.377 20.0348 19.1201 19.9563 18.5899 19.6911C17.7633 19.2524 16.7145 18.7393 16.1627 18.6227C16.1325 18.6155 16.1016 18.6084 16.07 18.6013C15.539 18.4888 14.8193 18.3359 14.1714 18.5138C14.1173 18.529 14.0633 18.548 14.0093 18.5704C13.4125 18.8763 12.7003 19.5745 11.9713 19.9751C11.5265 20.2329 10.9586 20.5189 10.434 20.7212C10.0292 20.8799 9.65389 20.9974 9.40147 21.0592C8.82075 21.19 8.68059 21.2191 8.10817 21.2794C7.77896 21.3091 7.30781 21.2382 6.97019 21.0504C6.8015 20.9554 6.8573 20.9442 7.03778 20.9954C7.30268 21.0663 7.52293 21.1165 7.66641 21.0896C7.95173 21.0296 8.05565 21 8.40649 21.0133C8.76159 21.0166 8.90001 20.86 9.098 20.8204C9.29416 20.7673 9.327 20.8753 10.2828 20.4108C10.2862 20.4091 10.2898 20.4074 10.2933 20.4057C11.2254 19.9235 11.6865 19.5739 12.0133 19.3445C12.3464 19.1165 13.0203 18.6436 13.6038 18.2425C13.6642 18.2041 13.7307 18.1639 13.816 18.125Z" fill="#374432"></path></svg></g></g></svg></g><g id="dark-icon"><svg xmlns="http://www.w3.org/2000/svg" version="1.1" xmlns:xlink="http://www.w3.org/1999/xlink" width="1000" height="1000"><g><g transform="matrix(29.41176470588235,0,0,29.41176470588235,0,29.411764705882376)"><svg xmlns="http://www.w3.org/2000/svg" width="34" height="32" viewBox="0 0 34 32" fill="none"><path d="M18.801 31.9637H18.778L18.567 31.3925L18.3825 31.9637H18.358L18.1909 31.4241C18.1759 31.3751 18.165 31.3426 18.1582 31.3266C18.1518 31.3102 18.1431 31.2983 18.1322 31.2908C18.1216 31.283 18.1039 31.2785 18.079 31.2775V31.254H18.3391V31.2775C18.3078 31.2795 18.2877 31.2841 18.2788 31.2913C18.27 31.2981 18.2655 31.3078 18.2655 31.3204C18.2655 31.3317 18.2727 31.3605 18.287 31.4068L18.4106 31.8104L18.5915 31.254H18.6201L18.8235 31.8104L18.9293 31.4425C18.9432 31.3928 18.9502 31.3603 18.9502 31.345C18.9502 31.3 18.9262 31.2775 18.8782 31.2775V31.254H19.0672V31.2775C19.0393 31.2795 19.0185 31.2899 19.0049 31.3087C18.9913 31.3271 18.9741 31.3715 18.9533 31.442L18.801 31.9637Z" fill="#EEECE0"></path><path d="M17.6716 31.6239C17.6508 31.6491 17.6286 31.668 17.6051 31.6806C17.5816 31.6933 17.5569 31.6996 17.531 31.6996C17.4759 31.6996 17.4282 31.6788 17.388 31.6372C17.3481 31.5953 17.3282 31.5432 17.3282 31.4809C17.3282 31.4216 17.3476 31.3702 17.3864 31.3266C17.4253 31.2826 17.4748 31.2606 17.5351 31.2606C17.5862 31.2606 17.6293 31.2768 17.6644 31.3092C17.6995 31.3415 17.724 31.3821 17.738 31.4308C17.7523 31.4792 17.7594 31.5296 17.7594 31.582C17.7594 31.69 17.7356 31.7806 17.6879 31.8539C17.6406 31.9271 17.577 31.9637 17.4973 31.9637C17.4599 31.9637 17.4268 31.9555 17.3982 31.9392C17.3696 31.9228 17.3553 31.9046 17.3553 31.8845C17.3553 31.8654 17.3652 31.8559 17.3849 31.8559C17.4016 31.8559 17.4159 31.8673 17.4278 31.8901C17.4442 31.9222 17.4719 31.9382 17.5111 31.9382C17.5649 31.9382 17.6053 31.9143 17.6322 31.8666C17.6591 31.8186 17.6726 31.7469 17.6726 31.6515C17.6726 31.6437 17.6722 31.6345 17.6716 31.6239ZM17.6741 31.488C17.6741 31.455 17.6695 31.4223 17.6603 31.3899C17.6511 31.3572 17.6356 31.3315 17.6138 31.3128C17.592 31.294 17.5677 31.2847 17.5408 31.2847C17.4982 31.2847 17.4662 31.3017 17.4447 31.3358C17.4236 31.3695 17.413 31.4204 17.413 31.4885C17.413 31.5315 17.4171 31.565 17.4253 31.5892C17.4335 31.613 17.4481 31.633 17.4692 31.649C17.4907 31.665 17.5145 31.673 17.5408 31.673C17.5762 31.673 17.6072 31.6597 17.6337 31.6331C17.6607 31.6062 17.6741 31.5579 17.6741 31.488Z" fill="#EEECE0"></path><path d="M16.5671 31.4012L16.6101 31.2606H16.6279C16.6286 31.2675 16.6313 31.2721 16.6361 31.2744C16.6412 31.2765 16.6547 31.2775 16.6765 31.2775H16.9412L16.7577 31.8365C16.7376 31.8978 16.7223 31.9344 16.7117 31.9463C16.7015 31.9579 16.691 31.9637 16.6801 31.9637C16.6596 31.9637 16.6494 31.9532 16.6494 31.932C16.6494 31.9194 16.6589 31.8927 16.678 31.8518C16.6831 31.8413 16.6874 31.8317 16.6908 31.8232L16.8967 31.345H16.6785C16.6492 31.345 16.6317 31.3456 16.6259 31.347C16.6201 31.348 16.6147 31.3518 16.6095 31.3582C16.6044 31.3644 16.598 31.3787 16.5901 31.4012H16.5671Z" fill="#EEECE0"></path><path d="M16.0299 31.9085C16.0299 31.8935 16.0352 31.8808 16.0457 31.8702C16.0566 31.8593 16.0696 31.8539 16.0845 31.8539C16.0999 31.8539 16.1128 31.8593 16.1234 31.8702C16.1343 31.8808 16.1397 31.8935 16.1397 31.9085C16.1397 31.9239 16.1343 31.9368 16.1234 31.9474C16.1125 31.9583 16.0995 31.9637 16.0845 31.9637C16.0692 31.9637 16.0563 31.9581 16.0457 31.9469C16.0352 31.936 16.0299 31.9232 16.0299 31.9085Z" fill="#EEECE0"></path><path d="M15.2034 31.6122C15.2034 31.5056 15.2235 31.4204 15.2637 31.3567C15.3042 31.2927 15.3572 31.2606 15.4226 31.2606C15.488 31.2606 15.5408 31.2928 15.581 31.3572C15.6215 31.4213 15.6418 31.5062 15.6418 31.6122C15.6418 31.7174 15.6217 31.8024 15.5815 31.8671C15.5413 31.9315 15.4884 31.9637 15.4226 31.9637C15.3572 31.9637 15.3042 31.9317 15.2637 31.8677C15.2235 31.8033 15.2034 31.7181 15.2034 31.6122ZM15.2882 31.6122C15.2882 31.7535 15.3 31.8435 15.3235 31.882C15.3473 31.9201 15.3804 31.9392 15.4226 31.9392C15.4723 31.9392 15.5071 31.9164 15.5268 31.8707C15.5466 31.8247 15.5565 31.7386 15.5565 31.6122C15.5565 31.4705 15.5446 31.3805 15.5207 31.3424C15.4972 31.3042 15.4645 31.2852 15.4226 31.2852C15.3807 31.2852 15.3478 31.3042 15.324 31.3424C15.3001 31.3802 15.2882 31.4701 15.2882 31.6122Z" fill="#EEECE0"></path><path d="M14.4081 31.6122C14.4081 31.5056 14.4282 31.4204 14.4684 31.3567C14.5089 31.2927 14.5619 31.2606 14.6273 31.2606C14.6927 31.2606 14.7455 31.2928 14.7857 31.3572C14.8262 31.4213 14.8465 31.5062 14.8465 31.6122C14.8465 31.7174 14.8264 31.8024 14.7862 31.8671C14.746 31.9315 14.6931 31.9637 14.6273 31.9637C14.5619 31.9637 14.5089 31.9317 14.4684 31.8677C14.4282 31.8033 14.4081 31.7181 14.4081 31.6122ZM14.4929 31.6122C14.4929 31.7535 14.5047 31.8435 14.5282 31.882C14.552 31.9201 14.5851 31.9392 14.6273 31.9392C14.677 31.9392 14.7118 31.9164 14.7315 31.8707C14.7513 31.8247 14.7612 31.7386 14.7612 31.6122C14.7612 31.4705 14.7493 31.3805 14.7254 31.3424C14.7019 31.3042 14.6692 31.2852 14.6273 31.2852C14.5854 31.2852 14.5525 31.3042 14.5287 31.3424C14.5049 31.3802 14.4929 31.4701 14.4929 31.6122Z" fill="#EEECE0"></path><path d="M13.8494 31.2606H13.8719V31.8033C13.8719 31.8479 13.8724 31.876 13.8734 31.8876C13.8748 31.8992 13.8797 31.908 13.8882 31.9142C13.8967 31.9203 13.9119 31.9234 13.9337 31.9234H13.9536V31.9469H13.7237V31.9234H13.7406C13.7651 31.9234 13.7809 31.92 13.7881 31.9131C13.7956 31.906 13.7998 31.8976 13.8008 31.8881C13.8022 31.8782 13.8029 31.8499 13.8029 31.8033V31.4395C13.8029 31.3935 13.8024 31.3657 13.8014 31.3562C13.8003 31.3463 13.7959 31.3378 13.7881 31.3306C13.7806 31.3232 13.7647 31.3194 13.7406 31.3194H13.7186V31.2959C13.7775 31.2949 13.8211 31.2831 13.8494 31.2606Z" fill="#EEECE0"></path><path d="M12.6226 31.9627L12.1326 31.3133V31.7941C12.1326 31.8339 12.1345 31.8602 12.1382 31.8728C12.1423 31.8854 12.1535 31.897 12.1719 31.9075C12.1903 31.9181 12.2179 31.9234 12.2547 31.9234V31.9469H11.9962V31.9234C12.0292 31.921 12.0544 31.915 12.0718 31.9055C12.0892 31.8956 12.0994 31.885 12.1024 31.8738C12.1058 31.8626 12.1076 31.836 12.1076 31.7941V31.4267C12.1076 31.3736 12.105 31.338 12.0999 31.3199C12.0951 31.3019 12.0873 31.2903 12.0764 31.2852C12.0658 31.2801 12.042 31.2775 12.0049 31.2775V31.254H12.2092L12.6195 31.7961V31.3817C12.6195 31.3511 12.6163 31.3296 12.6098 31.3174C12.6037 31.3051 12.5909 31.2954 12.5715 31.2882C12.5521 31.2811 12.5288 31.2775 12.5015 31.2775V31.254H12.7529V31.2775C12.7236 31.2799 12.7004 31.2855 12.6834 31.2944C12.6667 31.3032 12.656 31.314 12.6512 31.3266C12.6468 31.3388 12.6446 31.3598 12.6446 31.3894V31.9627H12.6226Z" fill="#EEECE0"></path><path d="M11.4431 31.5749C11.4536 31.5718 11.4642 31.5703 11.4747 31.5703C11.5248 31.5703 11.5642 31.5875 11.5928 31.6219C11.6217 31.656 11.6362 31.6989 11.6362 31.7507C11.6362 31.813 11.6149 31.8641 11.5723 31.9039C11.5298 31.9438 11.4749 31.9637 11.4078 31.9637C11.3628 31.9637 11.3242 31.9535 11.2918 31.9331C11.2595 31.9126 11.2433 31.8907 11.2433 31.8671C11.2433 31.8573 11.2463 31.8489 11.2525 31.8421C11.2586 31.835 11.2666 31.8314 11.2765 31.8314C11.2942 31.8314 11.3068 31.8435 11.3143 31.8677C11.3238 31.8987 11.3375 31.9186 11.3552 31.9274C11.3726 31.9366 11.3898 31.9412 11.4068 31.9412C11.4497 31.9412 11.4845 31.9256 11.511 31.8942C11.5379 31.8629 11.5514 31.8144 11.5514 31.7486C11.5514 31.6958 11.5413 31.6565 11.5212 31.6306C11.5015 31.6047 11.478 31.5917 11.4507 31.5917C11.4272 31.5917 11.4013 31.606 11.3731 31.6347C11.3683 31.6398 11.3634 31.6423 11.3582 31.6423C11.348 31.6423 11.3429 31.6369 11.3429 31.626C11.3429 31.6212 11.3455 31.6163 11.3506 31.6112C11.356 31.6057 11.371 31.5946 11.3955 31.5779C11.4494 31.5415 11.485 31.5112 11.5023 31.487C11.5197 31.4628 11.5284 31.4323 11.5284 31.3955C11.5284 31.3604 11.5194 31.3334 11.5013 31.3143C11.4833 31.2949 11.4592 31.2852 11.4293 31.2852C11.3986 31.2852 11.3714 31.295 11.3475 31.3148C11.324 31.3342 11.3123 31.3591 11.3123 31.3894C11.3123 31.4136 11.3226 31.4362 11.3434 31.4574C11.3458 31.4597 11.347 31.4618 11.347 31.4635C11.347 31.4679 11.3414 31.4727 11.3301 31.4778C11.3189 31.4829 11.3107 31.4855 11.3056 31.4855C11.2951 31.4855 11.2852 31.4775 11.276 31.4614C11.2668 31.4454 11.2622 31.4281 11.2622 31.4093C11.2622 31.3715 11.2785 31.3373 11.3112 31.3066C11.3439 31.276 11.3877 31.2606 11.4426 31.2606C11.4988 31.2606 11.5412 31.2736 11.5698 31.2995C11.5987 31.325 11.6132 31.3536 11.6132 31.3853C11.6132 31.4132 11.6033 31.4393 11.5836 31.4635C11.5642 31.4873 11.5311 31.5149 11.4845 31.5463L11.4431 31.5749Z" fill="#EEECE0"></path><path d="M10.6478 31.5749C10.6583 31.5718 10.6689 31.5703 10.6794 31.5703C10.7295 31.5703 10.7689 31.5875 10.7975 31.6219C10.8264 31.656 10.8409 31.6989 10.8409 31.7507C10.8409 31.813 10.8196 31.8641 10.777 31.9039C10.7345 31.9438 10.6796 31.9637 10.6125 31.9637C10.5675 31.9637 10.5289 31.9535 10.4965 31.9331C10.4642 31.9126 10.448 31.8907 10.448 31.8671C10.448 31.8573 10.451 31.8489 10.4572 31.8421C10.4633 31.835 10.4713 31.8314 10.4812 31.8314C10.4989 31.8314 10.5115 31.8435 10.519 31.8677C10.5285 31.8987 10.5422 31.9186 10.5599 31.9274C10.5773 31.9366 10.5945 31.9412 10.6115 31.9412C10.6544 31.9412 10.6892 31.9256 10.7157 31.8942C10.7426 31.8629 10.7561 31.8144 10.7561 31.7486C10.7561 31.6958 10.746 31.6565 10.7259 31.6306C10.7062 31.6047 10.6827 31.5917 10.6554 31.5917C10.6319 31.5917 10.606 31.606 10.5778 31.6347C10.573 31.6398 10.5681 31.6423 10.5629 31.6423C10.5527 31.6423 10.5476 31.6369 10.5476 31.626C10.5476 31.6212 10.5502 31.6163 10.5553 31.6112C10.5607 31.6057 10.5757 31.5946 10.6002 31.5779C10.6541 31.5415 10.6897 31.5112 10.707 31.487C10.7244 31.4628 10.7331 31.4323 10.7331 31.3955C10.7331 31.3604 10.7241 31.3334 10.706 31.3143C10.688 31.2949 10.6639 31.2852 10.634 31.2852C10.6033 31.2852 10.5761 31.295 10.5522 31.3148C10.5287 31.3342 10.517 31.3591 10.517 31.3894C10.517 31.4136 10.5274 31.4362 10.5481 31.4574C10.5505 31.4597 10.5517 31.4618 10.5517 31.4635C10.5517 31.4679 10.5461 31.4727 10.5348 31.4778C10.5236 31.4829 10.5154 31.4855 10.5103 31.4855C10.4998 31.4855 10.4899 31.4775 10.4807 31.4614C10.4715 31.4454 10.4669 31.4281 10.4669 31.4093C10.4669 31.3715 10.4832 31.3373 10.5159 31.3066C10.5486 31.276 10.5924 31.2606 10.6473 31.2606C10.7035 31.2606 10.7459 31.2736 10.7745 31.2995C10.8034 31.325 10.8179 31.3536 10.8179 31.3853C10.8179 31.4132 10.808 31.4393 10.7883 31.4635C10.7689 31.4873 10.7358 31.5149 10.6892 31.5463L10.6478 31.5749Z" fill="#EEECE0"></path><path d="M9.92912 31.9085C9.92912 31.8935 9.9344 31.8808 9.94495 31.8702C9.95586 31.8593 9.9688 31.8539 9.98379 31.8539C9.99912 31.8539 10.0121 31.8593 10.0226 31.8702C10.0335 31.8808 10.039 31.8935 10.039 31.9085C10.039 31.9239 10.0335 31.9368 10.0226 31.9474C10.0117 31.9583 9.99878 31.9637 9.98379 31.9637C9.96846 31.9637 9.95551 31.9581 9.94495 31.9469C9.9344 31.936 9.92912 31.9232 9.92912 31.9085Z" fill="#EEECE0"></path><path d="M9.19616 31.5953H9.16959L9.18492 31.2775H9.4501C9.43546 31.3119 9.42473 31.3318 9.41791 31.3373C9.41144 31.3427 9.40003 31.3455 9.38368 31.3455H9.20433L9.19616 31.557C9.23056 31.5131 9.2728 31.4911 9.32287 31.4911C9.37601 31.4911 9.42132 31.5124 9.45879 31.555C9.4966 31.5975 9.51551 31.6503 9.51551 31.7134C9.51551 31.7859 9.49422 31.8459 9.45164 31.8932C9.4094 31.9402 9.35013 31.9637 9.27382 31.9637C9.22068 31.9637 9.1793 31.9515 9.14966 31.9269C9.12002 31.9021 9.10521 31.8796 9.10521 31.8595C9.10521 31.8506 9.1081 31.843 9.11389 31.8365C9.12002 31.83 9.1282 31.8268 9.13842 31.8268C9.14966 31.8268 9.15818 31.8302 9.16397 31.837C9.16976 31.8435 9.17657 31.8571 9.1844 31.8779C9.19973 31.9201 9.23022 31.9412 9.27587 31.9412C9.31947 31.9412 9.35609 31.9237 9.38572 31.8886C9.4157 31.8535 9.43069 31.7965 9.43069 31.7174C9.43069 31.6462 9.41842 31.5957 9.3939 31.5657C9.36937 31.5357 9.34042 31.5207 9.30703 31.5207C9.26003 31.5207 9.22307 31.5456 9.19616 31.5953Z" fill="#EEECE0"></path><path d="M8.3232 31.9469V31.9152C8.36203 31.8849 8.41108 31.837 8.47035 31.7716C8.52996 31.7059 8.57288 31.6491 8.59911 31.6015C8.62534 31.5538 8.63846 31.5056 8.63846 31.4569C8.63846 31.3986 8.62517 31.3559 8.5986 31.3286C8.57203 31.301 8.53899 31.2872 8.49948 31.2872C8.46064 31.2872 8.4305 31.2998 8.40904 31.325C8.38792 31.3502 8.37736 31.3771 8.37736 31.4058C8.37736 31.4385 8.39115 31.4643 8.41874 31.4834C8.42896 31.4906 8.43407 31.496 8.43407 31.4998C8.43407 31.5059 8.42828 31.5142 8.4167 31.5248C8.40512 31.5354 8.39558 31.5406 8.38809 31.5406C8.37787 31.5406 8.36543 31.5304 8.35079 31.51C8.33648 31.4892 8.32933 31.4626 8.32933 31.4303C8.32933 31.3782 8.34959 31.3369 8.39013 31.3066C8.43067 31.276 8.47512 31.2606 8.52349 31.2606C8.57459 31.2606 8.62057 31.2765 8.66145 31.3082C8.70267 31.3398 8.72327 31.3868 8.72327 31.4492C8.72327 31.4884 8.71408 31.5257 8.69568 31.5611C8.67729 31.5962 8.6325 31.65 8.5613 31.7225C8.49045 31.7948 8.43339 31.8491 8.39013 31.8855H8.7151L8.68598 32H8.66196C8.66196 31.9939 8.66298 31.9877 8.66503 31.9816C8.66605 31.9782 8.66656 31.9736 8.66656 31.9678C8.66656 31.9576 8.66434 31.9515 8.65992 31.9494C8.65549 31.9477 8.64357 31.9469 8.62415 31.9469H8.3232Z" fill="#EEECE0"></path><path d="M9.62994 4.38464H9.26818V4.55172C9.26818 4.60623 9.26954 4.64199 9.27227 4.65902C9.27499 4.67572 9.28181 4.68815 9.29271 4.69632C9.30395 4.7045 9.32507 4.70859 9.35606 4.70859H9.37395V4.73209H9.06226V4.70859H9.08015C9.10978 4.70859 9.13022 4.70484 9.14146 4.69735C9.15304 4.68985 9.16037 4.67827 9.16343 4.6626C9.16684 4.64659 9.16854 4.60963 9.16854 4.55172V4.21194C9.16854 4.15675 9.16684 4.12116 9.16343 4.10515C9.16037 4.08914 9.15355 4.07807 9.14299 4.07193C9.13278 4.0658 9.11012 4.06274 9.07504 4.06274H9.06226V4.03923H9.37395V4.06274H9.36117C9.32745 4.06274 9.30531 4.06563 9.29475 4.07142C9.28419 4.07687 9.27704 4.08726 9.27329 4.10259C9.26988 4.11792 9.26818 4.15437 9.26818 4.21194V4.34938H9.62994V4.21194C9.62994 4.15675 9.6284 4.12116 9.62534 4.10515C9.62227 4.08914 9.61546 4.07807 9.6049 4.07193C9.59468 4.0658 9.57203 4.06274 9.53694 4.06274H9.51855V4.03923H9.83381V4.06274H9.82359C9.78953 4.06274 9.76721 4.06563 9.75666 4.07142C9.7461 4.07687 9.73894 4.08726 9.7352 4.10259C9.73179 4.11792 9.73009 4.15437 9.73009 4.21194V4.55172C9.73009 4.60623 9.73128 4.64199 9.73366 4.65902C9.73639 4.67572 9.74337 4.68815 9.75461 4.69632C9.76585 4.7045 9.78697 4.70859 9.81797 4.70859H9.83381V4.73209H9.51855V4.70859H9.54256C9.57186 4.70859 9.59213 4.70484 9.60337 4.69735C9.61495 4.68985 9.62227 4.67827 9.62534 4.6626C9.6284 4.64659 9.62994 4.60963 9.62994 4.55172V4.38464Z" fill="#EEECE0"></path><path d="M8.49996 4.47661H8.23682L8.21894 4.52055C8.19237 4.58425 8.17908 4.62581 8.17908 4.64523C8.17908 4.66601 8.18607 4.68185 8.20003 4.69275C8.21434 4.70331 8.23256 4.70859 8.2547 4.70859V4.73209H8.04879V4.70859C8.07945 4.70382 8.10227 4.69309 8.11726 4.6764C8.13225 4.65937 8.1503 4.62377 8.17142 4.56961C8.17312 4.5645 8.1813 4.54474 8.19594 4.51034L8.39726 4.02952H8.41719L8.64865 4.57983L8.68033 4.65238C8.68749 4.66873 8.69702 4.68168 8.70895 4.69122C8.72121 4.70041 8.73943 4.7062 8.76362 4.70859V4.73209H8.49128V4.70859C8.52466 4.70859 8.54714 4.7062 8.55872 4.70143C8.57065 4.69632 8.57661 4.68645 8.57661 4.6718C8.57661 4.6643 8.56877 4.64199 8.5531 4.60486L8.49996 4.47661ZM8.49128 4.45362L8.36865 4.15829L8.24653 4.45362H8.49128Z" fill="#EEECE0"></path><path d="M7.02765 4.38106C7.02765 4.2741 7.06342 4.18826 7.13495 4.12354C7.20648 4.05882 7.29573 4.02646 7.40269 4.02646C7.51068 4.02646 7.60077 4.05848 7.67299 4.12252C7.74555 4.18656 7.78182 4.27393 7.78182 4.38464C7.78182 4.49194 7.74708 4.5788 7.67759 4.64523C7.60844 4.71165 7.51732 4.74487 7.40423 4.74487C7.2942 4.74487 7.20393 4.71165 7.13342 4.64523C7.06291 4.5788 7.02765 4.49075 7.02765 4.38106ZM7.14466 4.38464C7.14466 4.49603 7.1668 4.57966 7.21108 4.63552C7.25571 4.69139 7.32247 4.71932 7.41138 4.71932C7.48939 4.71932 7.55104 4.69139 7.59635 4.63552C7.64165 4.57966 7.6643 4.49637 7.6643 4.38566C7.6643 4.27802 7.64199 4.19559 7.59737 4.13836C7.55274 4.08079 7.48802 4.05201 7.4032 4.05201C7.31975 4.05201 7.25571 4.08011 7.21108 4.13631C7.1668 4.19218 7.14466 4.27495 7.14466 4.38464Z" fill="#EEECE0"></path><path d="M6.61097 4.47201H6.63294V4.71472H6.61097C6.60484 4.68713 6.59377 4.66277 6.57776 4.64165C6.51679 4.71046 6.43895 4.74487 6.34425 4.74487C6.24411 4.74487 6.16218 4.71319 6.09848 4.64983C6.03512 4.58647 6.00344 4.50267 6.00344 4.39844C6.00344 4.32997 6.01809 4.26559 6.04739 4.20529C6.07668 4.14466 6.11756 4.0997 6.17002 4.0704C6.22248 4.04111 6.28004 4.02646 6.34272 4.02646C6.3945 4.02646 6.44134 4.03719 6.48323 4.05865C6.52547 4.07977 6.55698 4.10327 6.57776 4.12916C6.59241 4.10021 6.60127 4.07023 6.60433 4.03923H6.62681L6.63294 4.30186H6.61097C6.59564 4.20853 6.56431 4.14364 6.51696 4.10719C6.46995 4.07074 6.41681 4.05252 6.35754 4.05252C6.28498 4.05252 6.22724 4.08198 6.18432 4.14091C6.14174 4.19984 6.12045 4.28415 6.12045 4.39384C6.12045 4.49773 6.14379 4.57744 6.19046 4.63297C6.23712 4.68815 6.2952 4.71574 6.36469 4.71574C6.40182 4.71574 6.4398 4.70671 6.47864 4.68866C6.51747 4.67061 6.54813 4.64012 6.57061 4.5972C6.59343 4.55394 6.60689 4.51221 6.61097 4.47201Z" fill="#EEECE0"></path><path d="M7.91118 18.4594L15.9745 0.659265L24.1392 18.4594L24.4621 19.1324L28.5005 28.0441C28.0948 28.2977 27.4863 28.5005 26.6749 28.6527V28.8555H33.1661V28.7034C31.9997 28.3484 31.2897 28.1455 31.0361 27.9934L18.2058 0H15.5688L2.7892 27.892C2.43421 28.1455 1.47067 28.4498 0 28.7034V28.8555H6.08552V28.7034C4.8177 28.4498 4.0063 28.1962 3.6006 27.9934L7.6069 19.1694L7.91118 18.4594Z" fill="#EEECE0"></path><path d="M13.816 18.125C14.5285 17.7604 15.6745 17.9972 16.1918 18.1044C16.226 18.1112 16.258 18.1176 16.2875 18.1232C16.8383 18.2371 16.8186 18.3148 17.2261 18.5046C17.6278 18.7008 18.0283 18.6749 18.5069 18.9468C18.9795 19.2192 19.0025 19.3573 19.5451 19.6179C19.6616 19.6717 19.7788 19.7266 19.8758 19.7576C20.2928 19.8862 20.7094 19.9567 20.9218 19.9505C21.1951 19.9391 21.2121 20.0612 21.6019 20.0729C21.9011 20.0825 22.1096 20.1113 22.3404 20.1653C22.4128 20.1822 22.4824 20.2007 22.5618 20.2226C22.8976 20.3042 23.9092 20.5675 24.2852 20.6548C24.6667 20.726 25.0392 20.9697 25.2779 21.0641C25.3523 21.0938 25.411 21.1178 25.4563 21.137C25.4755 21.1452 25.4831 21.1547 25.4816 21.1623L25.4776 21.1686C25.4709 21.1742 25.4567 21.177 25.4366 21.1733C25.3081 21.1508 25.117 21.1029 24.8912 21.056C24.4698 20.9717 24.4543 20.8791 23.8992 20.7474C23.3418 20.6263 22.9972 20.6203 22.3456 20.4766C22.3293 20.4732 22.3131 20.4699 22.2973 20.4668C21.6768 20.3478 21.4967 20.523 20.5687 20.3128C20.2156 20.2275 19.9768 20.1778 19.763 20.134C19.377 20.0348 19.1201 19.9563 18.5899 19.6911C17.7633 19.2524 16.7145 18.7393 16.1627 18.6227C16.1325 18.6155 16.1016 18.6084 16.07 18.6013C15.539 18.4888 14.8193 18.3359 14.1714 18.5138C14.1173 18.529 14.0633 18.548 14.0093 18.5704C13.4125 18.8763 12.7003 19.5745 11.9713 19.9751C11.5265 20.2329 10.9586 20.5189 10.434 20.7212C10.0292 20.8799 9.65389 20.9974 9.40147 21.0592C8.82075 21.19 8.68059 21.2191 8.10817 21.2794C7.77896 21.3091 7.30781 21.2382 6.97019 21.0504C6.8015 20.9554 6.8573 20.9442 7.03778 20.9954C7.30268 21.0663 7.52293 21.1165 7.66641 21.0896C7.95173 21.0296 8.05565 21 8.40649 21.0133C8.76159 21.0166 8.90001 20.86 9.098 20.8204C9.29416 20.7673 9.327 20.8753 10.2828 20.4108C10.2862 20.4091 10.2898 20.4074 10.2933 20.4057C11.2254 19.9235 11.6865 19.5739 12.0133 19.3445C12.3464 19.1165 13.0203 18.6436 13.6038 18.2425C13.6642 18.2041 13.7307 18.1639 13.816 18.125Z" fill="#EEECE0"></path></svg></g></g></svg></g></svg>