<svg width="563" height="21" viewBox="0 0 563 21" fill="none" xmlns="http://www.w3.org/2000/svg">
<path d="M0 0.191406H6.34375C7.82031 0.191406 9.07812 0.546875 10.1445 1.25781C11.2109 1.99609 11.7305 2.87109 11.7305 3.88281C11.7305 4.64844 11.4023 5.35938 10.7734 5.98828C10.1445 6.61719 9.32422 7.08203 8.33984 7.35547C9.625 7.54688 10.6914 8.06641 11.4844 8.85938C12.2773 9.65234 12.6875 10.6094 12.6875 11.7031C12.6875 12.7969 12.168 13.7266 11.1289 14.5469C10.0898 15.3125 8.77734 15.7227 7.21875 15.7227H0V15.6406C0.246094 15.5859 0.410156 15.5312 0.546875 15.5039C0.628906 15.5039 0.738281 15.4766 0.875 15.4492C1.06641 15.3945 1.17578 15.3125 1.17578 15.2031V5.16797V0.738281C0.984375 0.601562 0.574219 0.464844 0 0.273438V0.191406ZM2.43359 0.519531V7.27344H6.34375C7.38281 7.27344 8.33984 7.02734 9.16016 6.5625C10.0352 6.07031 10.4453 5.35938 10.4453 4.45703C10.4453 3.55469 10.0625 2.65234 9.32422 1.80469C8.58594 0.957031 7.57422 0.519531 6.34375 0.519531H2.43359ZM2.43359 7.57422V15.3945H7.21875C8.33984 15.3945 9.29688 15.1211 10.1445 14.6016C10.8281 14.1367 11.2383 13.3984 11.375 12.3867C11.3477 11.6484 11.0195 10.6641 10.3906 9.46094C10.1719 9.02344 9.73438 8.58594 9.10547 8.12109C8.64062 7.76562 8.01172 7.60156 7.21875 7.57422H2.43359ZM14.9023 0.164062H18.5391V0.246094C17.9102 0.382812 17.5273 0.546875 17.3359 0.710938V15.2031C17.5273 15.3398 17.9375 15.5039 18.5391 15.6406V15.7227H14.9023V15.6406C15.5039 15.5039 15.8867 15.3398 16.0781 15.2031V0.710938C15.8867 0.574219 15.4766 0.410156 14.9023 0.246094V0.164062ZM20.7812 0.21875H32.4844L33.0039 2.40625H32.8945C32.7031 1.69531 32.1562 1.06641 31.1992 0.546875H23.2148V7.84766H29.1211C29.6406 7.30078 29.9414 6.89062 29.9961 6.61719H30.1328V9.37891H29.9961C29.9141 9.13281 29.6953 8.77734 29.2852 8.36719L29.1211 8.17578H23.2148V15.4219H31.8828C32.8398 14.9023 33.4141 14.2734 33.6055 13.5898H33.6875L33.1953 15.75H29.3672H20.7812V15.668C21.3828 15.5312 21.7656 15.3945 21.9297 15.2578V0.765625C21.7383 0.628906 21.3555 0.492188 20.7812 0.300781V0.21875ZM35.9023 0.164062H38.8008L50.1484 14.0273V0.710938C49.6016 0.492188 49.1914 0.328125 48.9453 0.246094V0.164062H51.7344V0.246094L50.5586 0.710938V15.6953H49.8477L37.543 0.710938H37.4609V15.2031C37.9805 15.4219 38.3906 15.5586 38.6367 15.6406V15.7227H35.9023V15.6406L37.0781 15.2031V0.710938C36.8867 0.574219 36.4766 0.410156 35.9023 0.246094V0.164062ZM53.9492 0.21875H65.6523L66.1719 2.40625H66.0625C65.8711 1.69531 65.3242 1.06641 64.3672 0.546875H56.3828V7.84766H62.2891C62.8086 7.30078 63.1094 6.89062 63.1641 6.61719H63.3008V9.37891H63.1641C63.082 9.13281 62.8633 8.77734 62.4531 8.36719L62.2891 8.17578H56.3828V15.4219H65.0508C66.0078 14.9023 66.582 14.2734 66.7734 13.5898H66.8555L66.3633 15.75H62.5352H53.9492V15.668C54.5508 15.5312 54.9336 15.3945 55.0977 15.2578V0.765625C54.9062 0.628906 54.5234 0.492188 53.9492 0.300781V0.21875ZM80.7461 1.44922L79.8711 2.57031C79.4336 1.85938 78.7227 1.3125 77.7656 0.957031C76.8086 0.601562 75.7695 0.410156 74.6484 0.410156C73.5273 0.410156 72.5703 0.683594 71.7773 1.25781C70.957 1.80469 70.5469 2.51562 70.5469 3.41797C70.5469 4.64844 71.2578 5.49609 72.6797 6.01562C73.3086 6.26172 73.9922 6.45312 74.7578 6.64453C75.5234 6.83594 76.2891 7.02734 77.0547 7.24609C77.8203 7.46484 78.5039 7.73828 79.1328 8.09375C79.7617 8.42188 80.2539 8.91406 80.6367 9.51562C81.0469 10.1719 81.2383 10.9102 81.2383 11.7578C81.2383 13.0977 80.6367 14.1914 79.3789 14.9844C78.1758 15.8047 76.6445 16.2148 74.8672 16.2148C73.8555 16.2148 72.8164 16.0781 71.75 15.8047C70.6836 15.5586 69.7812 15.1758 69.0703 14.7109L70.0273 13.4531C70.5469 14.2188 71.3398 14.793 72.3516 15.2031C73.3633 15.5859 74.4844 15.7773 75.6875 15.7773C76.8906 15.7773 77.957 15.4766 78.8594 14.8477C79.7617 14.2188 80.2266 13.4805 80.2266 12.5781C80.2266 11.6758 80.0352 10.9375 79.6523 10.3633C79.2422 9.78906 78.7227 9.32422 78.1211 9.02344C77.4648 8.69531 76.7812 8.42188 76.0156 8.20312C75.25 8.01172 74.4844 7.79297 73.7188 7.60156C72.9531 7.41016 72.2695 7.16406 71.6406 6.94531C71.0117 6.67188 70.5195 6.31641 70.1094 5.85156C69.6992 5.35938 69.5078 4.75781 69.5078 4.04688C69.5078 2.84375 70.0547 1.85938 71.1484 1.12109C72.2422 0.382812 73.6094 0 75.2773 0C76.207 0 77.1914 0.109375 78.1758 0.355469C79.2148 0.601562 80.0625 0.957031 80.7461 1.44922ZM83.3984 0.164062H97.9453L98.4375 2.35156H98.3555C98.1641 1.61328 97.5898 1.01172 96.6328 0.519531H91.3281V15.2031C91.5195 15.3398 91.9297 15.5039 92.5039 15.6406V15.7227H88.8398V15.6406C89.4688 15.5039 89.8789 15.3398 90.0703 15.2031V0.519531H84.7109C83.7539 1.03906 83.207 1.64062 83.0156 2.35156H82.9336L83.3984 0.164062ZM105.082 0.519531L100.734 10.1172H109.484L105.082 0.519531ZM104.863 0.164062H106.285L113.203 15.2578C113.34 15.3398 113.723 15.4492 114.352 15.6406V15.7227H110.852V15.6133C111.289 15.5312 111.617 15.4219 111.836 15.2852L109.621 10.5H100.57L98.4102 15.2578C98.6289 15.3672 99.0664 15.5039 99.75 15.6406V15.7227H96.4688V15.6406C97.2617 15.5039 97.7812 15.3398 97.9727 15.2031L104.863 0.164062ZM117.934 0.519531V8.3125H122.281C123.402 8.3125 124.359 8.03906 125.18 7.51953C126 7 126.41 6.26172 126.41 5.35938C126.41 4.83984 126.301 4.29297 126.109 3.69141C125.672 2.59766 125.098 1.80469 124.441 1.28516C123.73 0.765625 123.02 0.519531 122.281 0.519531H117.934ZM115.5 0.164062H117.934H122.281C123.867 0.164062 125.18 0.574219 126.219 1.42188C127.285 2.26953 127.805 3.19922 127.832 4.18359C127.832 4.32031 127.805 4.45703 127.777 4.59375V4.45703C127.777 5.63281 127.258 6.61719 126.219 7.4375C125.18 8.20312 123.867 8.61328 122.281 8.64062H120.695C121.379 8.83203 122.09 9.29688 122.883 10.0898C123.676 10.8828 124.387 11.6758 125.016 12.4961C125.645 13.3164 126.383 14.0547 127.176 14.7383C127.969 15.3945 128.734 15.7227 129.418 15.7227H129.473V15.8867C129.281 15.9141 128.926 15.9414 128.406 15.9414C127.859 15.9414 127.258 15.7773 126.574 15.4219C125.918 15.0938 125.344 14.6562 124.824 14.1367C124.332 13.6172 123.84 13.0703 123.32 12.4688C122.801 11.8672 122.309 11.293 121.816 10.7461C121.379 10.1992 120.832 9.73438 120.23 9.35156C119.629 8.94141 119 8.69531 118.344 8.64062H117.934V15.2305C118.125 15.3672 118.535 15.5039 119.109 15.6406V15.7227H115.5V15.6406C116.074 15.5039 116.457 15.3672 116.648 15.2305V0.710938C116.457 0.574219 116.074 0.4375 115.5 0.273438V0.164062ZM136.555 0.164062H140.191V0.246094C139.836 0.328125 139.508 0.492188 139.207 0.710938L144.402 7.79297L149.625 0.601562C149.16 0.4375 148.805 0.328125 148.559 0.246094V0.164062H151.293V0.246094C151.266 0.246094 150.883 0.410156 150.09 0.710938L144.648 8.09375V15.2031C144.84 15.3398 145.25 15.5039 145.824 15.6406V15.7227H142.188V15.6406C142.789 15.5039 143.172 15.3398 143.363 15.2031V8.47656L137.594 0.601562C137.512 0.546875 137.156 0.4375 136.555 0.246094V0.164062ZM158.375 0.21875H170.078L170.598 2.40625H170.488C170.297 1.69531 169.75 1.06641 168.793 0.546875H160.809V7.84766H166.715C167.234 7.30078 167.535 6.89062 167.59 6.61719H167.727V9.37891H167.59C167.508 9.13281 167.289 8.77734 166.879 8.36719L166.715 8.17578H160.809V15.4219H169.477C170.434 14.9023 171.008 14.2734 171.199 13.5898H171.281L170.789 15.75H166.961H158.375V15.668C158.977 15.5312 159.359 15.3945 159.523 15.2578V0.765625C159.332 0.628906 158.949 0.492188 158.375 0.300781V0.21875ZM173.77 6.83594C173.77 8.23047 173.988 9.46094 174.371 10.582C174.809 11.7031 175.328 12.5781 176.012 13.2617C177.406 14.6562 178.992 15.3398 180.715 15.3398C182.438 15.3398 183.887 14.793 185.035 13.6992C186.211 12.6055 186.785 11.1016 186.785 9.21484C186.785 7.82031 186.594 6.58984 186.184 5.46875C185.773 4.375 185.227 3.5 184.516 2.81641C183.121 1.42188 181.562 0.738281 179.84 0.738281L179.812 0.765625C178.09 0.765625 176.668 1.3125 175.52 2.37891C174.344 3.44531 173.77 4.94922 173.77 6.83594ZM180.305 0.246094C182.438 0.246094 184.27 1.01172 185.773 2.51562C187.277 4.04688 188.043 5.85156 188.043 7.92969C188.043 10.0352 187.359 11.8125 186.02 13.2891C184.652 14.793 182.957 15.6133 180.934 15.7773C180.797 16.0781 180.578 16.3516 180.332 16.5977C180.578 16.4336 180.934 16.3516 181.398 16.3516C181.426 16.3789 181.453 16.3789 181.48 16.3789C181.973 16.3789 182.629 16.625 183.504 17.1172C184.324 17.6094 185.145 18.1016 185.91 18.5938C186.648 19.0859 187.168 19.332 187.441 19.332C187.742 19.332 187.934 19.2227 188.043 19.0039L188.18 19.0859C187.824 19.7422 187.359 20.0703 186.812 20.0703C186.348 20.0703 185.801 19.8516 185.227 19.3867C184.57 18.8672 183.887 18.375 183.176 17.8828C182.438 17.3633 181.754 17.1172 181.152 17.1172C180.496 17.1172 179.895 17.3633 179.266 17.8828L179.047 17.7734C179.457 17.0898 179.758 16.4609 179.949 15.832C177.871 15.75 176.121 14.957 174.699 13.4531C173.25 11.9492 172.539 10.1172 172.539 7.98438C172.539 5.87891 173.305 4.04688 174.809 2.51562C176.34 1.01172 178.172 0.246094 180.305 0.246094ZM190.422 0.164062H194.059V0.246094C193.457 0.382812 193.074 0.546875 192.883 0.710938V8.77734V9.10547C192.883 11.0742 193.402 12.5781 194.441 13.6445C195.508 14.7109 196.793 15.2305 198.352 15.2305C199.91 15.2305 201.277 14.6562 202.48 13.5078C203.656 12.332 204.258 10.7734 204.258 8.77734V0.710938C203.738 0.492188 203.355 0.328125 203.082 0.246094V0.164062H205.816V0.246094L204.641 0.710938V8.77734C204.641 10.9648 204.012 12.6602 202.699 13.8906C201.441 15.0938 199.91 15.6953 198.105 15.6953C196.355 15.6953 194.824 15.0938 193.512 13.8906C192.254 12.6602 191.598 10.9648 191.598 8.77734V0.710938C191.379 0.574219 190.996 0.4375 190.422 0.246094V0.164062ZM207.785 0.164062H211.422V0.246094C210.793 0.382812 210.41 0.546875 210.219 0.710938V15.2031C210.41 15.3398 210.82 15.5039 211.422 15.6406V15.7227H207.785V15.6406C208.387 15.5039 208.77 15.3398 208.961 15.2031V0.710938C208.77 0.574219 208.359 0.410156 207.785 0.246094V0.164062ZM213.664 0.191406H217.301V0.273438C216.699 0.410156 216.316 0.574219 216.125 0.738281V15.3945H224.109C225.066 14.875 225.641 14.2461 225.805 13.5625H225.914L225.395 15.7227H213.664V15.6406C214.266 15.5039 214.648 15.3398 214.84 15.2031V0.738281C214.648 0.601562 214.238 0.464844 213.664 0.273438V0.191406ZM228.156 0.164062H231.793V0.246094C231.164 0.382812 230.781 0.546875 230.59 0.710938V15.2031C230.781 15.3398 231.191 15.5039 231.793 15.6406V15.7227H228.156V15.6406C228.758 15.5039 229.141 15.3398 229.332 15.2031V0.710938C229.141 0.574219 228.73 0.410156 228.156 0.246094V0.164062ZM234.035 0.191406H240.379C241.855 0.191406 243.113 0.546875 244.18 1.25781C245.246 1.99609 245.766 2.87109 245.766 3.88281C245.766 4.64844 245.438 5.35938 244.809 5.98828C244.18 6.61719 243.359 7.08203 242.375 7.35547C243.66 7.54688 244.727 8.06641 245.52 8.85938C246.312 9.65234 246.723 10.6094 246.723 11.7031C246.723 12.7969 246.203 13.7266 245.164 14.5469C244.125 15.3125 242.812 15.7227 241.254 15.7227H234.035V15.6406C234.281 15.5859 234.445 15.5312 234.582 15.5039C234.664 15.5039 234.773 15.4766 234.91 15.4492C235.102 15.3945 235.211 15.3125 235.211 15.2031V5.16797V0.738281C235.02 0.601562 234.609 0.464844 234.035 0.273438V0.191406ZM236.469 0.519531V7.27344H240.379C241.418 7.27344 242.375 7.02734 243.195 6.5625C244.07 6.07031 244.48 5.35938 244.48 4.45703C244.48 3.55469 244.098 2.65234 243.359 1.80469C242.621 0.957031 241.609 0.519531 240.379 0.519531H236.469ZM236.469 7.57422V15.3945H241.254C242.375 15.3945 243.332 15.1211 244.18 14.6016C244.863 14.1367 245.273 13.3984 245.41 12.3867C245.383 11.6484 245.055 10.6641 244.426 9.46094C244.207 9.02344 243.77 8.58594 243.141 8.12109C242.676 7.76562 242.047 7.60156 241.254 7.57422H236.469ZM251.371 0.519531V8.3125H255.719C256.84 8.3125 257.797 8.03906 258.617 7.51953C259.438 7 259.848 6.26172 259.848 5.35938C259.848 4.83984 259.738 4.29297 259.547 3.69141C259.109 2.59766 258.535 1.80469 257.879 1.28516C257.168 0.765625 256.457 0.519531 255.719 0.519531H251.371ZM248.938 0.164062H251.371H255.719C257.305 0.164062 258.617 0.574219 259.656 1.42188C260.723 2.26953 261.242 3.19922 261.27 4.18359C261.27 4.32031 261.242 4.45703 261.215 4.59375V4.45703C261.215 5.63281 260.695 6.61719 259.656 7.4375C258.617 8.20312 257.305 8.61328 255.719 8.64062H254.133C254.816 8.83203 255.527 9.29688 256.32 10.0898C257.113 10.8828 257.824 11.6758 258.453 12.4961C259.082 13.3164 259.82 14.0547 260.613 14.7383C261.406 15.3945 262.172 15.7227 262.855 15.7227H262.91V15.8867C262.719 15.9141 262.363 15.9414 261.844 15.9414C261.297 15.9414 260.695 15.7773 260.012 15.4219C259.355 15.0938 258.781 14.6562 258.262 14.1367C257.77 13.6172 257.277 13.0703 256.758 12.4688C256.238 11.8672 255.746 11.293 255.254 10.7461C254.816 10.1992 254.27 9.73438 253.668 9.35156C253.066 8.94141 252.438 8.69531 251.781 8.64062H251.371V15.2305C251.562 15.3672 251.973 15.5039 252.547 15.6406V15.7227H248.938V15.6406C249.512 15.5039 249.895 15.3672 250.086 15.2305V0.710938C249.895 0.574219 249.512 0.4375 248.938 0.273438V0.164062ZM265.125 0.164062H268.762V0.246094C268.133 0.382812 267.75 0.546875 267.559 0.710938V15.2031C267.75 15.3398 268.16 15.5039 268.762 15.6406V15.7227H265.125V15.6406C265.727 15.5039 266.109 15.3398 266.301 15.2031V0.710938C266.109 0.574219 265.699 0.410156 265.125 0.246094V0.164062ZM272.234 6.78125C272.234 8.20312 272.453 9.46094 272.836 10.6094C273.273 11.7031 273.82 12.6328 274.504 13.3164C275.926 14.7383 277.484 15.4492 279.18 15.4492L279.207 15.4219C280.93 15.4219 282.352 14.875 283.5 13.7266C284.676 12.6328 285.25 11.0742 285.25 9.13281C285.25 6.37109 284.539 4.26562 283.117 2.73438C281.723 1.25781 280.137 0.492188 278.359 0.492188C276.609 0.492188 275.16 1.06641 273.984 2.1875C272.809 3.30859 272.234 4.83984 272.234 6.78125ZM285.359 3.66406C286.125 4.86719 286.508 6.20703 286.508 7.65625C286.508 9.13281 286.289 10.3906 285.852 11.375C285.414 12.4141 284.84 13.2344 284.102 13.8633C282.57 15.1758 280.793 15.832 278.77 15.8594C277.43 15.8594 276.172 15.5859 275.023 14.9844C273.875 14.4375 272.918 13.5352 272.152 12.3047C271.387 11.1016 271.004 9.76172 271.004 8.28516V8.12109C271.004 6.72656 271.223 5.52344 271.66 4.56641C272.125 3.52734 272.699 2.67969 273.41 2.05078C274.914 0.765625 276.637 0.136719 278.605 0.109375H278.688H278.77C280.109 0.109375 281.367 0.382812 282.516 0.984375C283.637 1.53125 284.594 2.43359 285.359 3.66406ZM307.508 3.08984L306.715 4.34766C306.113 3.0625 305.32 2.13281 304.336 1.47656C303.352 0.875 302.285 0.546875 301.137 0.546875C299.469 0.546875 298.02 1.14844 296.762 2.32422C295.477 3.5 294.848 5.03125 294.848 6.86328C294.848 8.20312 295.066 9.40625 295.504 10.5C295.941 11.5938 296.516 12.4688 297.227 13.1523C298.676 14.5469 300.316 15.2305 302.094 15.2305H302.176C303.379 15.2305 304.418 14.875 305.293 14.1914C306.195 13.5078 306.715 12.5234 306.906 11.293L307.508 11.7578C306.988 13.0703 306.168 14.0547 305.074 14.7109C303.98 15.3945 302.777 15.7227 301.438 15.7227C299.387 15.7227 297.555 15.0117 295.996 13.6172C294.41 12.2227 293.617 10.3633 293.617 8.03906C293.617 5.74219 294.41 3.88281 295.996 2.40625C297.555 0.984375 299.387 0.246094 301.492 0.246094H301.574C303.953 0.273438 305.922 1.20312 307.508 3.08984ZM310.953 6.78125C310.953 8.20312 311.172 9.46094 311.555 10.6094C311.992 11.7031 312.539 12.6328 313.223 13.3164C314.645 14.7383 316.203 15.4492 317.898 15.4492L317.926 15.4219C319.648 15.4219 321.07 14.875 322.219 13.7266C323.395 12.6328 323.969 11.0742 323.969 9.13281C323.969 6.37109 323.258 4.26562 321.836 2.73438C320.441 1.25781 318.855 0.492188 317.078 0.492188C315.328 0.492188 313.879 1.06641 312.703 2.1875C311.527 3.30859 310.953 4.83984 310.953 6.78125ZM324.078 3.66406C324.844 4.86719 325.227 6.20703 325.227 7.65625C325.227 9.13281 325.008 10.3906 324.57 11.375C324.133 12.4141 323.559 13.2344 322.82 13.8633C321.289 15.1758 319.512 15.832 317.488 15.8594C316.148 15.8594 314.891 15.5859 313.742 14.9844C312.594 14.4375 311.637 13.5352 310.871 12.3047C310.105 11.1016 309.723 9.76172 309.723 8.28516V8.12109C309.723 6.72656 309.941 5.52344 310.379 4.56641C310.844 3.52734 311.418 2.67969 312.129 2.05078C313.633 0.765625 315.355 0.136719 317.324 0.109375H317.406H317.488C318.828 0.109375 320.086 0.382812 321.234 0.984375C322.355 1.53125 323.312 2.43359 324.078 3.66406ZM328.234 0.164062H330.859L338.27 14.4648L345.652 0.164062H348.168V0.246094C347.566 0.382812 347.156 0.546875 346.965 0.710938L347.73 15.2031C347.922 15.3398 348.332 15.5039 348.906 15.6406V15.7227H345.297V15.6406C345.898 15.5039 346.281 15.3398 346.445 15.2031L345.68 0.765625C345.68 0.792969 343.109 5.76953 337.996 15.6953H337.504C337.477 15.6953 334.906 10.7188 329.738 0.765625L328.973 15.2031C329.602 15.4219 330.039 15.5586 330.285 15.6406V15.7227H327.469V15.6406L328.617 15.2031L329.438 0.710938C329.246 0.574219 328.836 0.410156 328.234 0.246094V0.164062ZM352.379 6.78125C352.379 8.20312 352.598 9.46094 352.98 10.6094C353.418 11.7031 353.965 12.6328 354.648 13.3164C356.07 14.7383 357.629 15.4492 359.324 15.4492L359.352 15.4219C361.074 15.4219 362.496 14.875 363.645 13.7266C364.82 12.6328 365.395 11.0742 365.395 9.13281C365.395 6.37109 364.684 4.26562 363.262 2.73438C361.867 1.25781 360.281 0.492188 358.504 0.492188C356.754 0.492188 355.305 1.06641 354.129 2.1875C352.953 3.30859 352.379 4.83984 352.379 6.78125ZM365.504 3.66406C366.27 4.86719 366.652 6.20703 366.652 7.65625C366.652 9.13281 366.434 10.3906 365.996 11.375C365.559 12.4141 364.984 13.2344 364.246 13.8633C362.715 15.1758 360.938 15.832 358.914 15.8594C357.574 15.8594 356.316 15.5859 355.168 14.9844C354.02 14.4375 353.062 13.5352 352.297 12.3047C351.531 11.1016 351.148 9.76172 351.148 8.28516V8.12109C351.148 6.72656 351.367 5.52344 351.805 4.56641C352.27 3.52734 352.844 2.67969 353.555 2.05078C355.059 0.765625 356.781 0.136719 358.75 0.109375H358.832H358.914C360.254 0.109375 361.512 0.382812 362.66 0.984375C363.781 1.53125 364.738 2.43359 365.504 3.66406ZM373.762 0.191406H385.492L386.012 2.37891H385.902C385.711 1.66797 385.164 1.03906 384.207 0.519531H376.223V8.23047H382.102C382.621 7.71094 382.922 7.30078 383.004 7.05469H383.113V9.73438H383.004C382.922 9.48828 382.676 9.1875 382.266 8.77734L382.102 8.55859H376.223V15.2305C376.414 15.3672 376.824 15.5039 377.398 15.6406V15.75H373.762V15.6406C374.363 15.5039 374.746 15.3672 374.938 15.2305V0.738281C374.746 0.601562 374.336 0.464844 373.762 0.300781V0.191406ZM388.691 6.78125C388.691 8.20312 388.91 9.46094 389.293 10.6094C389.73 11.7031 390.277 12.6328 390.961 13.3164C392.383 14.7383 393.941 15.4492 395.637 15.4492L395.664 15.4219C397.387 15.4219 398.809 14.875 399.957 13.7266C401.133 12.6328 401.707 11.0742 401.707 9.13281C401.707 6.37109 400.996 4.26562 399.574 2.73438C398.18 1.25781 396.594 0.492188 394.816 0.492188C393.066 0.492188 391.617 1.06641 390.441 2.1875C389.266 3.30859 388.691 4.83984 388.691 6.78125ZM401.816 3.66406C402.582 4.86719 402.965 6.20703 402.965 7.65625C402.965 9.13281 402.746 10.3906 402.309 11.375C401.871 12.4141 401.297 13.2344 400.559 13.8633C399.027 15.1758 397.25 15.832 395.227 15.8594C393.887 15.8594 392.629 15.5859 391.48 14.9844C390.332 14.4375 389.375 13.5352 388.609 12.3047C387.844 11.1016 387.461 9.76172 387.461 8.28516V8.12109C387.461 6.72656 387.68 5.52344 388.117 4.56641C388.582 3.52734 389.156 2.67969 389.867 2.05078C391.371 0.765625 393.094 0.136719 395.062 0.109375H395.145H395.227C396.566 0.109375 397.824 0.382812 398.973 0.984375C400.094 1.53125 401.051 2.43359 401.816 3.66406ZM407.641 0.519531V8.3125H411.988C413.109 8.3125 414.066 8.03906 414.887 7.51953C415.707 7 416.117 6.26172 416.117 5.35938C416.117 4.83984 416.008 4.29297 415.816 3.69141C415.379 2.59766 414.805 1.80469 414.148 1.28516C413.438 0.765625 412.727 0.519531 411.988 0.519531H407.641ZM405.207 0.164062H407.641H411.988C413.574 0.164062 414.887 0.574219 415.926 1.42188C416.992 2.26953 417.512 3.19922 417.539 4.18359C417.539 4.32031 417.512 4.45703 417.484 4.59375V4.45703C417.484 5.63281 416.965 6.61719 415.926 7.4375C414.887 8.20312 413.574 8.61328 411.988 8.64062H410.402C411.086 8.83203 411.797 9.29688 412.59 10.0898C413.383 10.8828 414.094 11.6758 414.723 12.4961C415.352 13.3164 416.09 14.0547 416.883 14.7383C417.676 15.3945 418.441 15.7227 419.125 15.7227H419.18V15.8867C418.988 15.9141 418.633 15.9414 418.113 15.9414C417.566 15.9414 416.965 15.7773 416.281 15.4219C415.625 15.0938 415.051 14.6562 414.531 14.1367C414.039 13.6172 413.547 13.0703 413.027 12.4688C412.508 11.8672 412.016 11.293 411.523 10.7461C411.086 10.1992 410.539 9.73438 409.938 9.35156C409.336 8.94141 408.707 8.69531 408.051 8.64062H407.641V15.2305C407.832 15.3672 408.242 15.5039 408.816 15.6406V15.7227H405.207V15.6406C405.781 15.5039 406.164 15.3672 406.355 15.2305V0.710938C406.164 0.574219 405.781 0.4375 405.207 0.273438V0.164062ZM422.16 0.164062H424.785L432.195 14.4648L439.578 0.164062H442.094V0.246094C441.492 0.382812 441.082 0.546875 440.891 0.710938L441.656 15.2031C441.848 15.3398 442.258 15.5039 442.832 15.6406V15.7227H439.223V15.6406C439.824 15.5039 440.207 15.3398 440.371 15.2031L439.605 0.765625C439.605 0.792969 437.035 5.76953 431.922 15.6953H431.43C431.402 15.6953 428.832 10.7188 423.664 0.765625L422.898 15.2031C423.527 15.4219 423.965 15.5586 424.211 15.6406V15.7227H421.395V15.6406L422.543 15.2031L423.363 0.710938C423.172 0.574219 422.762 0.410156 422.16 0.246094V0.164062ZM452.594 0.519531L448.246 10.1172H456.996L452.594 0.519531ZM452.375 0.164062H453.797L460.715 15.2578C460.852 15.3398 461.234 15.4492 461.863 15.6406V15.7227H458.363V15.6133C458.801 15.5312 459.129 15.4219 459.348 15.2852L457.133 10.5H448.082L445.922 15.2578C446.141 15.3672 446.578 15.5039 447.262 15.6406V15.7227H443.98V15.6406C444.773 15.5039 445.293 15.3398 445.484 15.2031L452.375 0.164062ZM475.836 0.574219H471.406V15.4219H475.836H476.137C476.547 15.4219 476.848 15.3945 477.039 15.3672C477.34 15.2852 477.531 15.2578 477.613 15.2578L478.16 15.0938C478.352 15.0117 478.734 14.8477 479.254 14.5469C479.773 14.2461 480.238 13.918 480.648 13.5078C481.031 13.0977 481.387 12.5234 481.715 11.7578C482.043 10.9922 482.207 10.1445 482.207 9.1875C482.207 8.88672 482.152 8.39453 482.07 7.71094C481.961 7.02734 481.824 6.42578 481.688 5.90625C481.551 5.38672 481.305 4.78516 480.977 4.15625C480.676 3.52734 480.293 2.95312 479.883 2.46094C479.445 1.96875 478.871 1.55859 478.188 1.20312C477.477 0.847656 476.684 0.65625 475.836 0.574219ZM471.406 15.7773H468.973V15.6953C469.574 15.5586 469.957 15.3945 470.121 15.2578V0.765625C469.93 0.628906 469.547 0.464844 468.973 0.300781V0.21875H471.406H475.836C477.941 0.246094 479.746 1.01172 481.25 2.51562C482.727 4.04688 483.465 5.87891 483.465 8.01172C483.465 10.1445 482.727 11.9492 481.25 13.4531C479.773 14.957 477.969 15.7227 475.836 15.75H471.406V15.7773ZM485.707 0.21875H497.41L497.93 2.40625H497.82C497.629 1.69531 497.082 1.06641 496.125 0.546875H488.141V7.84766H494.047C494.566 7.30078 494.867 6.89062 494.922 6.61719H495.059V9.37891H494.922C494.84 9.13281 494.621 8.77734 494.211 8.36719L494.047 8.17578H488.141V15.4219H496.809C497.766 14.9023 498.34 14.2734 498.531 13.5898H498.613L498.121 15.75H494.293H485.707V15.668C486.309 15.5312 486.691 15.3945 486.855 15.2578V0.765625C486.664 0.628906 486.281 0.492188 485.707 0.300781V0.21875ZM521.637 0.601562C521.609 0.601562 521.227 0.492188 520.516 0.246094V0.164062H523.223V0.246094L522.047 0.710938C518.793 7.35547 516.359 12.332 514.719 15.6953H514.199L506.844 0.710938C506.652 0.574219 506.27 0.4375 505.695 0.246094V0.164062H509.469V0.246094C508.867 0.382812 508.484 0.546875 508.293 0.710938L514.938 14.3281L521.637 0.601562ZM524.344 0.164062H527.98V0.246094C527.352 0.382812 526.969 0.546875 526.777 0.710938V15.2031C526.969 15.3398 527.379 15.5039 527.98 15.6406V15.7227H524.344V15.6406C524.945 15.5039 525.328 15.3398 525.52 15.2031V0.710938C525.328 0.574219 524.918 0.410156 524.344 0.246094V0.164062ZM537.086 0.574219H532.656V15.4219H537.086H537.387C537.797 15.4219 538.098 15.3945 538.289 15.3672C538.59 15.2852 538.781 15.2578 538.863 15.2578L539.41 15.0938C539.602 15.0117 539.984 14.8477 540.504 14.5469C541.023 14.2461 541.488 13.918 541.898 13.5078C542.281 13.0977 542.637 12.5234 542.965 11.7578C543.293 10.9922 543.457 10.1445 543.457 9.1875C543.457 8.88672 543.402 8.39453 543.32 7.71094C543.211 7.02734 543.074 6.42578 542.938 5.90625C542.801 5.38672 542.555 4.78516 542.227 4.15625C541.926 3.52734 541.543 2.95312 541.133 2.46094C540.695 1.96875 540.121 1.55859 539.438 1.20312C538.727 0.847656 537.934 0.65625 537.086 0.574219ZM532.656 15.7773H530.223V15.6953C530.824 15.5586 531.207 15.3945 531.371 15.2578V0.765625C531.18 0.628906 530.797 0.464844 530.223 0.300781V0.21875H532.656H537.086C539.191 0.246094 540.996 1.01172 542.5 2.51562C543.977 4.04688 544.715 5.87891 544.715 8.01172C544.715 10.1445 543.977 11.9492 542.5 13.4531C541.023 14.957 539.219 15.7227 537.086 15.75H532.656V15.7773ZM553.383 0.519531L549.035 10.1172H557.785L553.383 0.519531ZM553.164 0.164062H554.586L561.504 15.2578C561.641 15.3398 562.023 15.4492 562.652 15.6406V15.7227H559.152V15.6133C559.59 15.5312 559.918 15.4219 560.137 15.2852L557.922 10.5H548.871L546.711 15.2578C546.93 15.3672 547.367 15.5039 548.051 15.6406V15.7227H544.77V15.6406C545.562 15.5039 546.082 15.3398 546.273 15.2031L553.164 0.164062Z" fill="#513A2B"/>
</svg>
