<svg width="21" height="21" viewBox="0 0 21 21" fill="none" xmlns="http://www.w3.org/2000/svg">
<path d="M20.4251 13.0538C19.7768 15.1701 18.4775 17.0281 16.7122 18.3633C15.1622 19.5298 13.3179 20.2412 11.3861 20.4178C9.45427 20.5943 7.5115 20.2289 5.77582 19.3627C4.04014 18.4964 2.58025 17.1635 1.56001 15.5136C0.539778 13.8637 -0.000420678 11.9621 4.91123e-05 10.0223C-0.0069255 7.75805 0.729144 5.55408 2.09533 3.74846C3.43051 1.98311 5.28846 0.683847 7.4048 0.0355485C7.54428 -0.00740053 7.69283 -0.0115132 7.83448 0.0236528C7.97612 0.0588188 8.1055 0.131933 8.2087 0.235132C8.3119 0.338331 8.38501 0.467711 8.42018 0.609357C8.45535 0.751002 8.45123 0.899555 8.40828 1.03904C7.94552 2.56979 7.90672 4.19741 8.29602 5.74848C8.68532 7.29954 9.48813 8.71593 10.6189 9.84671C11.7497 10.9775 13.1661 11.7803 14.7172 12.1696C16.2682 12.5589 17.8958 12.5201 19.4266 12.0573C19.5661 12.0144 19.7146 12.0103 19.8563 12.0455C19.9979 12.0806 20.1273 12.1537 20.2305 12.2569C20.3337 12.3601 20.4068 12.4895 20.442 12.6312C20.4771 12.7728 20.473 12.9214 20.4301 13.0608L20.4251 13.0538Z" fill="#96C0E8"/>
</svg>
