<svg width="21" height="21" viewBox="0 0 21 21" fill="none" xmlns="http://www.w3.org/2000/svg">
<path d="M9.6335 1.60558V0.802791C9.6335 0.589878 9.71807 0.385685 9.86863 0.235132C10.0192 0.0845795 10.2234 0 10.4363 0C10.6492 0 10.8534 0.0845795 11.0039 0.235132C11.1545 0.385685 11.2391 0.589878 11.2391 0.802791V1.60558C11.2391 1.8185 11.1545 2.02269 11.0039 2.17324C10.8534 2.32379 10.6492 2.40837 10.4363 2.40837C10.2234 2.40837 10.0192 2.32379 9.86863 2.17324C9.71807 2.02269 9.6335 1.8185 9.6335 1.60558ZM10.4363 4.01396C9.16607 4.01396 7.92438 4.39062 6.86823 5.09631C5.81208 5.80201 4.98892 6.80504 4.50283 7.97857C4.01674 9.15209 3.88955 10.4434 4.13736 11.6892C4.38517 12.935 4.99683 14.0794 5.89501 14.9776C6.79319 15.8757 7.93754 16.4874 9.18335 16.7352C10.4292 16.983 11.7205 16.8558 12.894 16.3697C14.0675 15.8837 15.0706 15.0605 15.7763 14.0043C16.482 12.9482 16.8586 11.7065 16.8586 10.4363C16.8568 8.73355 16.1795 7.10108 14.9755 5.89707C13.7715 4.69305 12.139 4.01582 10.4363 4.01396ZM3.44598 4.58193C3.59662 4.73257 3.80092 4.81719 4.01396 4.81719C4.22699 4.81719 4.43129 4.73257 4.58193 4.58193C4.73257 4.43129 4.81719 4.22699 4.81719 4.01396C4.81719 3.80092 4.73257 3.59662 4.58193 3.44598L3.77914 2.64319C3.6285 2.49255 3.4242 2.40793 3.21116 2.40793C2.99813 2.40793 2.79383 2.49255 2.64319 2.64319C2.49255 2.79383 2.40793 2.99813 2.40793 3.21116C2.40793 3.4242 2.49255 3.6285 2.64319 3.77914L3.44598 4.58193ZM3.44598 16.2906L2.64319 17.0934C2.49255 17.2441 2.40793 17.4484 2.40793 17.6614C2.40793 17.8744 2.49255 18.0787 2.64319 18.2294C2.79383 18.38 2.99813 18.4646 3.21116 18.4646C3.4242 18.4646 3.6285 18.38 3.77914 18.2294L4.58193 17.4266C4.65652 17.352 4.71568 17.2635 4.75605 17.166C4.79642 17.0685 4.81719 16.9641 4.81719 16.8586C4.81719 16.7531 4.79642 16.6487 4.75605 16.5512C4.71568 16.4538 4.65652 16.3652 4.58193 16.2906C4.50734 16.2161 4.4188 16.1569 4.32134 16.1165C4.22389 16.0762 4.11944 16.0554 4.01396 16.0554C3.90847 16.0554 3.80402 16.0762 3.70657 16.1165C3.60912 16.1569 3.52057 16.2161 3.44598 16.2906ZM16.8586 4.81675C16.9641 4.81683 17.0685 4.79613 17.166 4.75584C17.2634 4.71555 17.352 4.65646 17.4266 4.58193L18.2294 3.77914C18.38 3.6285 18.4646 3.4242 18.4646 3.21116C18.4646 2.99813 18.38 2.79383 18.2294 2.64319C18.0787 2.49255 17.8744 2.40793 17.6614 2.40793C17.4484 2.40793 17.2441 2.49255 17.0934 2.64319L16.2906 3.44598C16.1782 3.55826 16.1017 3.70136 16.0707 3.85717C16.0396 4.01298 16.0555 4.17449 16.1163 4.32126C16.1772 4.46803 16.2801 4.59345 16.4123 4.68165C16.5444 4.76986 16.6997 4.81687 16.8586 4.81675ZM17.4266 16.2906C17.276 16.14 17.0716 16.0554 16.8586 16.0554C16.6456 16.0554 16.4413 16.14 16.2906 16.2906C16.14 16.4413 16.0554 16.6456 16.0554 16.8586C16.0554 17.0716 16.14 17.276 16.2906 17.4266L17.0934 18.2294C17.168 18.304 17.2566 18.3631 17.354 18.4035C17.4515 18.4439 17.5559 18.4646 17.6614 18.4646C17.7669 18.4646 17.8713 18.4439 17.9688 18.4035C18.0662 18.3631 18.1548 18.304 18.2294 18.2294C18.304 18.1548 18.3631 18.0662 18.4035 17.9688C18.4439 17.8713 18.4646 17.7669 18.4646 17.6614C18.4646 17.5559 18.4439 17.4515 18.4035 17.354C18.3631 17.2566 18.304 17.168 18.2294 17.0934L17.4266 16.2906ZM1.60558 9.6335H0.802791C0.589878 9.6335 0.385685 9.71807 0.235132 9.86863C0.0845795 10.0192 0 10.2234 0 10.4363C0 10.6492 0.0845795 10.8534 0.235132 11.0039C0.385685 11.1545 0.589878 11.2391 0.802791 11.2391H1.60558C1.8185 11.2391 2.02269 11.1545 2.17324 11.0039C2.32379 10.8534 2.40837 10.6492 2.40837 10.4363C2.40837 10.2234 2.32379 10.0192 2.17324 9.86863C2.02269 9.71807 1.8185 9.6335 1.60558 9.6335ZM10.4363 18.4642C10.2234 18.4642 10.0192 18.5488 9.86863 18.6993C9.71807 18.8499 9.6335 19.0541 9.6335 19.267V20.0698C9.6335 20.2827 9.71807 20.4869 9.86863 20.6374C10.0192 20.788 10.2234 20.8726 10.4363 20.8726C10.6492 20.8726 10.8534 20.788 11.0039 20.6374C11.1545 20.4869 11.2391 20.2827 11.2391 20.0698V19.267C11.2391 19.0541 11.1545 18.8499 11.0039 18.6993C10.8534 18.5488 10.6492 18.4642 10.4363 18.4642ZM20.0698 9.6335H19.267C19.0541 9.6335 18.8499 9.71807 18.6993 9.86863C18.5488 10.0192 18.4642 10.2234 18.4642 10.4363C18.4642 10.6492 18.5488 10.8534 18.6993 11.0039C18.8499 11.1545 19.0541 11.2391 19.267 11.2391H20.0698C20.2827 11.2391 20.4869 11.1545 20.6374 11.0039C20.788 10.8534 20.8726 10.6492 20.8726 10.4363C20.8726 10.2234 20.788 10.0192 20.6374 9.86863C20.4869 9.71807 20.2827 9.6335 20.0698 9.6335Z" fill="#EFE181"/>
</svg>
