<svg width="540" height="82" viewBox="0 0 540 82" fill="none" xmlns="http://www.w3.org/2000/svg">
<path d="M3.44338 0.108431H32.272L33.2474 4.44357H33.0849C32.7055 2.98046 31.5676 1.7883 29.6709 0.812891H19.1582V29.9125C19.5376 30.1834 20.3504 30.5086 21.4884 30.7795V30.9421H14.227V30.7795C15.4734 30.5086 16.2862 30.1834 16.6655 29.9125V0.812891H6.04446C4.14784 1.84249 3.06406 3.03465 2.68473 4.44357H2.52216L3.44338 0.108431ZM36.6072 0.108431H43.8143V0.270999C42.6222 0.541945 41.8635 0.86708 41.4842 1.19221V17.178V17.8283C41.4842 21.7299 42.5138 24.7103 44.573 26.8237C46.6864 28.9371 49.2332 29.9667 52.322 29.9667C55.4108 29.9667 58.1203 28.8287 60.5046 26.5528C62.8347 24.2226 64.0269 21.1338 64.0269 17.178V1.19221C62.9973 0.758702 62.2386 0.433566 61.6968 0.270999V0.108431H67.1157V0.270999L64.7855 1.19221V17.178C64.7855 21.5132 63.5392 24.8729 60.9381 27.3114C58.4454 29.6957 55.4108 30.8879 51.8343 30.8879C48.3662 30.8879 45.3316 29.6957 42.7305 27.3114C40.2378 24.8729 38.9373 21.5132 38.9373 17.178V1.19221C38.5038 0.921269 37.7451 0.650323 36.6072 0.270999V0.108431ZM112.797 0.975458C112.743 0.975458 111.984 0.758702 110.575 0.270999V0.108431H115.94V0.270999L113.61 1.19221C107.161 14.3602 102.339 24.2226 99.0873 30.8879H98.0577L83.4808 1.19221C83.1015 0.921269 82.3428 0.650323 81.2049 0.270999V0.108431H88.683V0.270999C87.4908 0.541945 86.7322 0.86708 86.3528 1.19221L99.5208 28.1784L112.797 0.975458ZM118.162 0.108431H125.369V0.270999C124.123 0.541945 123.364 0.86708 122.985 1.19221V29.9125C123.364 30.1834 124.177 30.5086 125.369 30.7795V30.9421H118.162V30.7795C119.354 30.5086 120.113 30.1834 120.492 29.9125V1.19221C120.113 0.921269 119.3 0.596134 118.162 0.270999V0.108431ZM143.414 0.921269H134.635V30.346H143.414H144.01C144.823 30.346 145.419 30.2918 145.798 30.2376C146.394 30.0751 146.774 30.0209 146.936 30.0209L148.02 29.6957C148.399 29.5332 149.158 29.208 150.188 28.6119C151.217 28.0159 152.139 27.3656 152.951 26.5528C153.71 25.7399 154.414 24.6019 155.065 23.0846C155.715 21.5673 156.04 19.8875 156.04 17.9909C156.04 17.3948 155.932 16.4194 155.769 15.0646C155.552 13.7099 155.281 12.5178 155.011 11.4882C154.74 10.4586 154.252 9.2664 153.602 8.02005C153.006 6.7737 152.247 5.63573 151.434 4.66032C150.567 3.68492 149.429 2.87208 148.074 2.16762C146.665 1.46316 145.094 1.08384 143.414 0.921269ZM134.635 31.0505H129.813V30.8879C131.005 30.6169 131.763 30.2918 132.089 30.0209V1.30059C131.709 1.02965 130.951 0.704512 129.813 0.379377V0.21681H134.635H143.414C147.587 0.270999 151.163 1.7883 154.144 4.7687C157.07 7.8033 158.533 11.434 158.533 15.6607C158.533 19.8875 157.07 23.464 154.144 26.4444C151.217 29.4248 147.641 30.9421 143.414 30.9963H134.635V31.0505ZM175.711 0.812891L167.095 19.8333H184.435L175.711 0.812891ZM175.277 0.108431H178.095L191.805 30.0209C192.076 30.1834 192.835 30.4002 194.081 30.7795V30.9421H187.145V30.7253C188.012 30.5628 188.662 30.346 189.096 30.0751L184.706 20.5919H166.77L162.489 30.0209C162.922 30.2376 163.789 30.5086 165.144 30.7795V30.9421H158.641V30.7795C160.213 30.5086 161.242 30.1834 161.622 29.9125L175.277 0.108431ZM208.17 0.21681H231.363L232.393 4.55194H232.176C231.797 3.14303 230.713 1.89667 228.816 0.86708H212.993V15.3356H224.698C225.727 14.2518 226.324 13.439 226.432 12.8971H226.703V18.3702H226.432C226.269 17.8825 225.836 17.178 225.023 16.3652L224.698 15.9859H212.993V30.346H230.171C232.068 29.3164 233.206 28.0701 233.585 26.7153H233.747L232.772 30.9963H225.186H208.17V30.8337C209.362 30.5628 210.121 30.2918 210.446 30.0209V1.30059C210.067 1.02965 209.308 0.758702 208.17 0.379377V0.21681ZM238.137 0.108431H243.881L266.369 27.5823V1.19221C265.286 0.758702 264.473 0.433566 263.985 0.270999V0.108431H269.512V0.270999L267.182 1.19221V30.8879H265.773L241.388 1.19221H241.226V29.9125C242.255 30.346 243.068 30.6169 243.556 30.7795V30.9421H238.137V30.7795L240.467 29.9125V1.19221C240.088 0.921269 239.275 0.596134 238.137 0.270999V0.108431ZM283.547 0.21681H306.74L307.77 4.55194H307.553C307.174 3.14303 306.09 1.89667 304.193 0.86708H288.37V15.3356H300.075C301.105 14.2518 301.701 13.439 301.809 12.8971H302.08V18.3702H301.809C301.647 17.8825 301.213 17.178 300.4 16.3652L300.075 15.9859H288.37V30.346H305.548C307.445 29.3164 308.583 28.0701 308.962 26.7153H309.125L308.149 30.9963H300.563H283.547V30.8337C284.739 30.5628 285.498 30.2918 285.823 30.0209V1.30059C285.444 1.02965 284.685 0.758702 283.547 0.379377V0.21681ZM314.056 13.3306C314.056 16.0942 314.489 18.5328 315.248 20.7545C316.115 22.9763 317.145 24.7103 318.499 26.0651C321.263 28.8287 324.406 30.1834 327.82 30.1834C331.234 30.1834 334.106 29.0996 336.382 26.9321C338.712 24.7645 339.85 21.7841 339.85 18.0451C339.85 15.2814 339.471 12.8429 338.658 10.6211C337.845 8.45357 336.761 6.71951 335.352 5.36478C332.589 2.60113 329.5 1.2464 326.086 1.2464L326.032 1.30059C322.618 1.30059 319.8 2.38438 317.524 4.49776C315.194 6.61113 314.056 9.59154 314.056 13.3306ZM327.007 0.270999C331.234 0.270999 334.864 1.7883 337.845 4.7687C340.825 7.8033 342.343 11.3798 342.343 15.4982C342.343 19.6707 340.988 23.193 338.333 26.1192C335.623 29.0996 332.263 30.7253 328.253 31.0505C327.982 31.6465 327.549 32.1884 327.061 32.6761C327.549 32.351 328.253 32.1884 329.175 32.1884C329.229 32.2426 329.283 32.2426 329.337 32.2426C330.313 32.2426 331.613 32.7303 333.347 33.7057C334.973 34.6811 336.599 35.6565 338.116 36.6319C339.579 37.6073 340.609 38.0951 341.15 38.0951C341.746 38.0951 342.126 37.8783 342.343 37.4448L342.614 37.6073C341.909 38.9079 340.988 39.5582 339.904 39.5582C338.983 39.5582 337.899 39.1246 336.761 38.2034C335.461 37.1738 334.106 36.1984 332.697 35.223C331.234 34.1934 329.879 33.7057 328.687 33.7057C327.386 33.7057 326.194 34.1934 324.948 35.223L324.514 35.0063C325.327 33.6515 325.923 32.4052 326.303 31.1588C322.184 30.9963 318.716 29.4248 315.898 26.4444C313.026 23.464 311.617 19.8333 311.617 15.6065C311.617 11.434 313.135 7.8033 316.115 4.7687C319.15 1.7883 322.78 0.270999 327.007 0.270999ZM347.057 0.108431H354.264V0.270999C353.072 0.541945 352.313 0.86708 351.934 1.19221V17.178V17.8283C351.934 21.7299 352.964 24.7103 355.023 26.8237C357.136 28.9371 359.683 29.9667 362.772 29.9667C365.861 29.9667 368.57 28.8287 370.954 26.5528C373.285 24.2226 374.477 21.1338 374.477 17.178V1.19221C373.447 0.758702 372.689 0.433566 372.147 0.270999V0.108431H377.566V0.270999L375.235 1.19221V17.178C375.235 21.5132 373.989 24.8729 371.388 27.3114C368.895 29.6957 365.861 30.8879 362.284 30.8879C358.816 30.8879 355.781 29.6957 353.18 27.3114C350.688 24.8729 349.387 21.5132 349.387 17.178V1.19221C348.954 0.921269 348.195 0.650323 347.057 0.270999V0.108431ZM381.467 0.108431H388.674V0.270999C387.428 0.541945 386.669 0.86708 386.29 1.19221V29.9125C386.669 30.1834 387.482 30.5086 388.674 30.7795V30.9421H381.467V30.7795C382.659 30.5086 383.418 30.1834 383.797 29.9125V1.19221C383.418 0.921269 382.605 0.596134 381.467 0.270999V0.108431ZM393.118 0.16262H400.325V0.325188C399.133 0.596134 398.374 0.921269 397.995 1.2464V30.2918H413.818C415.715 29.2622 416.853 28.0159 417.178 26.6611H417.395L416.365 30.9421H393.118V30.7795C394.31 30.5086 395.069 30.1834 395.448 29.9125V1.2464C395.069 0.975458 394.256 0.704512 393.118 0.325188V0.16262ZM421.838 0.108431H429.045V0.270999C427.799 0.541945 427.04 0.86708 426.661 1.19221V29.9125C427.04 30.1834 427.853 30.5086 429.045 30.7795V30.9421H421.838V30.7795C423.03 30.5086 423.789 30.1834 424.168 29.9125V1.19221C423.789 0.921269 422.976 0.596134 421.838 0.270999V0.108431ZM433.489 0.16262H446.061C448.987 0.16262 451.48 0.86708 453.593 2.276C455.706 3.73911 456.736 5.47316 456.736 7.47816C456.736 8.99546 456.086 10.4044 454.839 11.6507C453.593 12.8971 451.967 13.8183 450.016 14.3602C452.563 14.7395 454.677 15.7691 456.248 17.3406C457.82 18.9121 458.633 20.8087 458.633 22.9763C458.633 25.1438 457.603 26.9863 455.544 28.6119C453.485 30.1292 450.884 30.9421 447.795 30.9421H433.489V30.7795C433.976 30.6711 434.302 30.5628 434.573 30.5086C434.735 30.5086 434.952 30.4544 435.223 30.4002C435.602 30.2918 435.819 30.1292 435.819 29.9125V10.0251V1.2464C435.44 0.975458 434.627 0.704512 433.489 0.325188V0.16262ZM438.312 0.812891V14.1976H446.061C448.12 14.1976 450.016 13.7099 451.642 12.7887C453.376 11.8133 454.189 10.4044 454.189 8.61613C454.189 6.82789 453.43 5.03965 451.967 3.35978C450.504 1.67992 448.499 0.812891 446.061 0.812891H438.312ZM438.312 14.7937V30.2918H447.795C450.016 30.2918 451.913 29.7499 453.593 28.7203C454.948 27.7991 455.761 26.336 456.031 24.331C455.977 22.8679 455.327 20.9171 454.081 18.5328C453.647 17.6657 452.78 16.7987 451.534 15.8775C450.613 15.173 449.366 14.8479 447.795 14.7937H438.312ZM467.845 0.812891V16.2568H476.461C478.683 16.2568 480.579 15.7149 482.205 14.6853C483.831 13.6557 484.643 12.1926 484.643 10.4044C484.643 9.37478 484.427 8.291 484.047 7.09884C483.18 4.93127 482.042 3.35978 480.742 2.33019C479.333 1.30059 477.924 0.812891 476.461 0.812891H467.845ZM463.022 0.108431H467.845H476.461C479.604 0.108431 482.205 0.921269 484.264 2.60113C486.377 4.281 487.407 6.12343 487.461 8.07424C487.461 8.34519 487.407 8.61613 487.353 8.88708V8.61613C487.353 10.9463 486.323 12.8971 484.264 14.5228C482.205 16.0401 479.604 16.8529 476.461 16.9071H473.318C474.673 17.2864 476.081 18.2076 477.653 19.7791C479.224 21.3506 480.633 22.9221 481.88 24.5478C483.126 26.1734 484.589 27.6365 486.161 28.9913C487.732 30.2918 489.249 30.9421 490.604 30.9421H490.713V31.2672C490.333 31.3214 489.629 31.3756 488.599 31.3756C487.515 31.3756 486.323 31.0505 484.969 30.346C483.668 29.6957 482.53 28.8287 481.5 27.7991C480.525 26.7695 479.55 25.6857 478.52 24.4936C477.49 23.3014 476.515 22.1634 475.54 21.0796C474.673 19.9959 473.589 19.0746 472.397 18.316C471.204 17.5032 469.958 17.0155 468.658 16.9071H467.845V29.9667C468.224 30.2376 469.037 30.5086 470.175 30.7795V30.9421H463.022V30.7795C464.16 30.5086 464.919 30.2376 465.298 29.9667V1.19221C464.919 0.921269 464.16 0.650323 463.022 0.325188V0.108431ZM495.102 0.108431H502.309V0.270999C501.063 0.541945 500.304 0.86708 499.925 1.19221V29.9125C500.304 30.1834 501.117 30.5086 502.309 30.7795V30.9421H495.102V30.7795C496.294 30.5086 497.053 30.1834 497.432 29.9125V1.19221C497.053 0.921269 496.24 0.596134 495.102 0.270999V0.108431ZM509.191 13.2222C509.191 16.0401 509.625 18.5328 510.383 20.8087C511.25 22.9763 512.334 24.8187 513.689 26.1734C516.507 28.9913 519.595 30.4002 522.955 30.4002L523.009 30.346C526.423 30.346 529.241 29.2622 531.517 26.9863C533.847 24.8187 534.985 21.7299 534.985 17.8825C534.985 12.4094 533.576 8.23681 530.758 5.20221C527.995 2.276 524.852 0.758702 521.329 0.758702C517.861 0.758702 514.989 1.89667 512.659 4.11843C510.329 6.34019 509.191 9.37478 509.191 13.2222ZM535.202 7.04465C536.719 9.42897 537.478 12.0842 537.478 14.9563C537.478 17.8825 537.044 20.3752 536.177 22.326C535.31 24.3852 534.172 26.0109 532.709 27.2572C529.675 29.8583 526.152 31.1588 522.142 31.213C519.487 31.213 516.994 30.6711 514.718 29.479C512.442 28.3952 510.546 26.6069 509.029 24.1684C507.511 21.7841 506.753 19.1288 506.753 16.2026V15.8775C506.753 13.1138 507.186 10.7295 508.053 8.83289C508.974 6.7737 510.112 5.09384 511.521 3.84749C514.502 1.30059 517.916 0.0542421 521.817 5.28917e-05H521.98H522.142C524.798 5.28917e-05 527.29 0.541945 529.566 1.73411C531.788 2.81789 533.685 4.60613 535.202 7.04465Z" fill="#374432"/>
<path d="M68.0369 47.4184L59.4208 66.4388H76.7614L68.0369 47.4184ZM67.6034 46.7139H70.4212L84.1311 76.6263C84.402 76.7889 85.1607 77.0057 86.407 77.385V77.5475H79.4708V77.3308C80.3379 77.1682 80.9881 76.9515 81.4216 76.6805L77.0323 67.1974H59.0957L54.8147 76.6263C55.2483 76.8431 56.1153 77.114 57.47 77.385V77.5475H50.9673V77.385C52.5388 77.114 53.5684 76.7889 53.9477 76.518L67.6034 46.7139ZM100.496 46.7139H107.703V46.8765C106.511 47.1474 105.753 47.4725 105.373 47.7977V63.7835V64.4338C105.373 68.3354 106.403 71.3158 108.462 73.4292C110.575 75.5425 113.122 76.5721 116.211 76.5721C119.3 76.5721 122.009 75.4342 124.394 73.1582C126.724 70.8281 127.916 67.7393 127.916 63.7835V47.7977C126.886 47.3642 126.128 47.039 125.586 46.8765V46.7139H131.005V46.8765L128.675 47.7977V63.7835C128.675 68.1186 127.428 71.4784 124.827 73.9169C122.334 76.3012 119.3 77.4934 115.723 77.4934C112.255 77.4934 109.221 76.3012 106.62 73.9169C104.127 71.4784 102.826 68.1186 102.826 63.7835V47.7977C102.393 47.5267 101.634 47.2558 100.496 46.8765V46.7139ZM134.906 46.7139H140.65L163.139 74.1878V47.7977C162.055 47.3642 161.242 47.039 160.755 46.8765V46.7139H166.282V46.8765L163.952 47.7977V77.4934H162.543L138.158 47.7977H137.995V76.518C139.025 76.9515 139.838 77.2224 140.325 77.385V77.5475H134.906V77.385L137.237 76.518V47.7977C136.857 47.5267 136.044 47.2016 134.906 46.8765V46.7139Z" fill="#374432"/>
<line x1="173.904" y1="81.1656" x2="245.151" y2="81.1656" stroke="#374432" stroke-width="0.950007"/>
<path d="M253.1 46.7139H260.307V46.8765C259.061 47.1474 258.302 47.4725 257.923 47.7977V76.518C258.302 76.7889 259.115 77.114 260.307 77.385V77.5475H253.1V77.385C254.292 77.114 255.051 76.7889 255.43 76.518V47.7977C255.051 47.5267 254.238 47.2016 253.1 46.8765V46.7139ZM264.751 46.7139H270.495L292.984 74.1878V47.7977C291.9 47.3642 291.087 47.039 290.599 46.8765V46.7139H296.126V46.8765L293.796 47.7977V77.4934H292.387L268.002 47.7977H267.84V76.518C268.869 76.9515 269.682 77.2224 270.17 77.385V77.5475H264.751V77.385L267.081 76.518V47.7977C266.702 47.5267 265.889 47.2016 264.751 46.8765V46.7139ZM323.655 49.2608L321.921 51.4825C321.054 50.0736 319.645 48.9898 317.748 48.2854C315.851 47.5809 313.792 47.2016 311.57 47.2016C309.349 47.2016 307.452 47.7435 305.881 48.8815C304.255 49.9653 303.442 51.3742 303.442 53.1624C303.442 55.6009 304.851 57.2808 307.669 58.3104C308.915 58.7981 310.27 59.1774 311.787 59.5567C313.304 59.9361 314.822 60.3154 316.339 60.7489C317.856 61.1824 319.211 61.7243 320.457 62.4288C321.704 63.079 322.679 64.0544 323.438 65.2466C324.251 66.5471 324.63 68.0103 324.63 69.6901C324.63 72.3454 323.438 74.513 320.945 76.0844C318.561 77.7101 315.526 78.523 312.004 78.523C309.999 78.523 307.94 78.252 305.826 77.7101C303.713 77.2224 301.925 76.4638 300.516 75.5425L302.412 73.0498C303.442 74.5671 305.014 75.7051 307.019 76.518C309.024 77.2766 311.245 77.6559 313.63 77.6559C316.014 77.6559 318.127 77.0598 319.916 75.8135C321.704 74.5671 322.625 73.104 322.625 71.3158C322.625 69.5275 322.246 68.0644 321.487 66.9265C320.674 65.7885 319.645 64.8673 318.452 64.2712C317.152 63.6209 315.797 63.079 314.28 62.6455C312.763 62.2662 311.245 61.8327 309.728 61.4534C308.211 61.074 306.856 60.5863 305.61 60.1528C304.363 59.6109 303.388 58.9065 302.575 57.9853C301.762 57.0098 301.383 55.8177 301.383 54.4088C301.383 52.0244 302.467 50.0736 304.634 48.6105C306.802 47.1474 309.511 46.3888 312.817 46.3888C314.659 46.3888 316.61 46.6055 318.561 47.0932C320.62 47.5809 322.3 48.2854 323.655 49.2608ZM328.911 46.7139H357.74L358.715 51.049H358.552C358.173 49.5859 357.035 48.3938 355.138 47.4184H344.626V76.518C345.005 76.7889 345.818 77.114 346.956 77.385V77.5475H339.695V77.385C340.941 77.114 341.754 76.7889 342.133 76.518V47.4184H331.512C329.615 48.448 328.532 49.6401 328.152 51.049H327.99L328.911 46.7139ZM371.883 47.4184L363.267 66.4388H380.607L371.883 47.4184ZM371.449 46.7139H374.267L387.977 76.6263C388.248 76.7889 389.007 77.0057 390.253 77.385V77.5475H383.317V77.3308C384.184 77.1682 384.834 76.9515 385.268 76.6805L380.878 67.1974H362.942L358.661 76.6263C359.094 76.8431 359.961 77.114 361.316 77.385V77.5475H354.813V77.385C356.385 77.114 357.414 76.7889 357.794 76.518L371.449 46.7139ZM392.529 46.7139H398.273L420.762 74.1878V47.7977C419.678 47.3642 418.865 47.039 418.377 46.8765V46.7139H423.905V46.8765L421.574 47.7977V77.4934H420.166L395.78 47.7977H395.618V76.518C396.647 76.9515 397.46 77.2224 397.948 77.385V77.5475H392.529V77.385L394.859 76.518V47.7977C394.48 47.5267 393.667 47.2016 392.529 46.8765V46.7139ZM429.215 46.7139H458.044L459.019 51.049H458.857C458.477 49.5859 457.339 48.3938 455.443 47.4184H444.93V76.518C445.309 76.7889 446.122 77.114 447.26 77.385V77.5475H439.999V77.385C441.245 77.114 442.058 76.7889 442.437 76.518V47.4184H431.816C429.92 48.448 428.836 49.6401 428.456 51.049H428.294L429.215 46.7139ZM463.463 46.8223H486.656L487.685 51.1574H487.469C487.089 49.7485 486.005 48.5021 484.109 47.4725H468.286V61.9411H479.99C481.02 60.8573 481.616 60.0444 481.724 59.5025H481.995V64.9757H481.724C481.562 64.488 481.128 63.7835 480.316 62.9707L479.99 62.5913H468.286V76.9515H485.464C487.36 75.9219 488.498 74.6755 488.877 73.3208H489.04L488.065 77.6017H480.478H463.463V77.4392C464.655 77.1682 465.414 76.8973 465.739 76.6263V47.9061C465.359 47.6351 464.601 47.3642 463.463 46.9848V46.8223Z" fill="#374432"/>
</svg>
