<svg width="17" height="17" viewBox="0 0 17 17" fill="none" xmlns="http://www.w3.org/2000/svg">
<path d="M16.4909 0.853778L12.6087 5.39818L16.6154 9.38662V1.43788C16.6154 1.22996 16.5707 1.03239 16.4909 0.853778Z" fill="#EEECE0"/>
<path d="M15.1775 0H10.6641C10.6417 0.0568882 10.6081 0.110466 10.563 0.157165L5.78436 5.10654L8.91909 8.24126L15.8267 0.15551C15.6315 0.0563041 15.411 0 15.1775 0Z" fill="#EEECE0"/>
<path d="M11.9842 6.12913L9.59899 8.9212L16.4749 15.7971C16.5649 15.6093 16.6154 15.3992 16.6154 15.1775V10.7392L11.9842 6.12913Z" fill="#EEECE0"/>
<path d="M1.43788 0C1.21617 0 1.00607 0.0505276 0.81834 0.140517L5.10641 4.42858L9.38234 0H1.43788Z" fill="#EEECE0"/>
<path d="M0.140517 0.81834C0.0505276 1.00607 0 1.21614 0 1.43788V15.1775C0 15.9704 0.645014 16.6154 1.43788 16.6154H15.1775C15.3992 16.6154 15.6093 16.5649 15.7971 16.4749L0.140517 0.81834ZM6.05228 13.3266L5.195 14.6482C5.10663 14.7845 4.95528 14.8667 4.79292 14.8667C4.63053 14.8667 4.47921 14.7845 4.39084 14.6482L3.53356 13.3266C2.62812 12.8579 2.05073 11.9171 2.05073 10.8901C2.05073 9.37805 3.28089 8.1479 4.79295 8.1479C6.30502 8.1479 7.53517 9.37805 7.53517 10.8901C7.53511 11.9171 6.95773 12.8579 6.05228 13.3266Z" fill="#EEECE0"/>
<path d="M4.79289 9.1065C3.8094 9.1065 3.00927 9.90666 3.00927 10.8901C3.00927 11.5902 3.42173 12.2288 4.06016 12.5169C4.14395 12.5547 4.21505 12.6158 4.26506 12.6929L4.79289 13.5067L5.32075 12.6929C5.37076 12.6158 5.4419 12.5547 5.52565 12.5169C6.16405 12.2288 6.57654 11.5902 6.57654 10.8901C6.57654 9.90666 5.77641 9.1065 4.79289 9.1065ZM4.79289 11.5342C4.4378 11.5342 4.14891 11.2452 4.14891 10.8902C4.14891 10.5351 4.4378 10.2461 4.79289 10.2461C5.14798 10.2461 5.43687 10.5351 5.43687 10.8902C5.43687 11.2452 5.14798 11.5342 4.79289 11.5342Z" fill="#EEECE0"/>
</svg>
