<svg width="166" height="21" viewBox="0 0 166 21" fill="none" xmlns="http://www.w3.org/2000/svg">
<path d="M93.6031 2.3722C95.9082 3.44395 98.0798 4.68016 100.088 5.37874C101.284 5.663 102.702 5.74621 104.374 5.9454C105.494 6.07775 106.407 6.21594 107.205 6.37516C109.77 6.93349 111.229 7.32654 115.176 8.80876C115.594 8.95786 116.001 9.09682 116.377 9.17476C117.345 9.41588 118.79 8.23834 120.11 7.59998C121.453 6.89225 122.794 6.37754 123.979 6.01598C124.987 5.73958 125.726 6.11245 126.281 6.34895C126.841 6.61287 127.279 6.88037 127.645 7.09038C129.406 8.14068 129.639 8.70242 131.272 9.86354C131.632 10.1169 132.065 10.388 132.614 10.6651C134.27 11.496 135.668 11.9099 137.056 12.4033C137.934 12.6733 139.204 12.5081 140.535 12.4219C141.493 12.3529 143.087 12.1778 144.939 12.1316C147.863 12.2234 151.024 13.6606 153.458 12.7869C153.464 12.7851 153.483 12.7814 153.489 12.7804C154.662 12.6342 155.584 13.0176 156.244 13.2381C159.325 14.4351 162.054 16.874 163.955 18.2456C164.073 18.3302 164.186 18.4091 164.3 18.4872C164.895 18.891 165.363 19.2169 165.753 19.3778C165.918 19.4408 166.002 19.4701 165.997 19.4987C165.997 19.4987 165.997 19.4987 165.997 19.4987C165.995 19.5281 165.85 19.5581 165.614 19.4745C165.072 19.2672 164.483 18.8992 163.793 18.4852C163.074 18.0276 162.257 17.5121 161.359 16.9738C159.771 16.0236 158.901 15.4586 157.903 14.8553C156.92 14.3511 155.725 13.3028 153.577 13.3931L153.619 13.3844C153.491 13.4215 153.363 13.4557 153.227 13.4882C149.961 14.2555 147.455 12.9431 144.975 13.025C143.266 13.1095 141.442 13.3763 139.076 13.5657C138.262 13.6062 137.518 13.672 136.714 13.4304C134.402 12.6908 132.637 12.2103 130.568 10.9147C129.004 10.0622 127.166 8.08801 124.731 7.26018C124.597 7.2433 124.481 7.24883 124.376 7.27412C122.457 7.79902 121.081 8.49675 119.919 9.189C118.762 9.80992 117.769 10.83 116.072 10.6017C113.615 10.0469 111.725 9.13983 107.801 8.53677C107.508 8.48951 107.211 8.44464 106.905 8.40126C104.646 8.04417 102.158 8.08347 99.4952 7.29364C95.2942 5.16447 92.1766 3.12807 88.9096 2.35105C87.3478 1.92753 85.9578 1.7171 84.9136 1.78701C84.2782 1.82552 83.6493 1.95696 83.0485 2.23432C80.3961 3.88478 77.0295 7.09289 72.8063 8.94198C71.3639 9.59865 69.8349 10.201 68.1743 10.557C66.2882 10.9704 64.008 11.033 61.9507 10.096C59.1915 8.98958 56.4654 6.77009 53.9338 6.74853C50.7169 6.7635 47.7046 6.65009 44.7621 6.93126C43.4974 7.04044 42.1527 7.21562 40.7727 7.47098C37.2076 8.61683 33.0046 10.8479 29.3327 12.1781C26.5963 13.4409 24.0719 15.019 22.1373 15.5215C20.1699 16.113 18.6903 16.2001 17.3935 16.1669C15.3919 16.1348 13.7586 16.6239 10.9427 17.8676C8.33942 19.0319 4.54373 20.7516 1.09642 20.6546C-0.611007 20.5713 -0.201158 20.4974 1.4762 20.3754C3.93027 20.1206 5.87089 19.4438 7.00795 18.8645C9.27795 17.684 10.146 16.9898 13.3477 16.0514C15.0185 15.6012 16.2823 15.3676 17.4072 15.3105C18.3409 15.2537 19.1051 15.1015 19.9559 14.967C21.6209 14.5534 21.7424 15.2445 28.9061 11.13C29.3492 10.9416 29.8081 10.7422 30.3005 10.5232C34.4821 8.71769 37.3594 6.91653 40.4589 5.93584C43.675 5.2416 46.1086 5.06246 48.0562 4.97114C49.5118 4.88952 51.6406 4.98719 53.8854 4.99594C57.4404 5.15498 59.8542 7.53971 62.6192 8.60153C63.2333 8.87499 63.87 9.04711 64.5018 9.12548C66.4415 9.42262 69.274 8.68875 72.0748 7.3576C76.0183 5.6305 79.1605 2.58411 82.3308 0.636474C83.2157 0.225594 84.0883 0.0724939 84.7855 0.0173869C87.1686 -0.0937562 88.3461 0.352309 89.3478 0.6207C90.6239 1.02773 91.5604 1.4069 93.6031 2.3722Z" fill="#513A2B"/>
</svg>
